SplineFontDB: 3.0
FontName: Gemunu-Sinhala-0
FullName: Gemunu-Sinhala
FamilyName: Gemunu-Sinhala
OS2FamilyName: "AbhayaLibre"
OS2StyleName: "regular"
Weight: Regular
Copyright: Copyright (c) 1997-2015 Pushpananda Ekanayake (http://isiwara.lk), Copyright (c) 2015 mooniak (http://mooniak.com)\n
UComments: "2015-2-15: Created with FontForge (http://fontforge.org) The  Free Font Editor"
Version: 1.0
ItalicAngle: 0
UnderlinePosition: -102
UnderlineWidth: 51
Ascent: 819
Descent: 205
InvalidEm: 0
UFOAscent: 819
UFODescent: -205
LayerCount: 2
Layer: 0 0 "Back" 1
Layer: 1 0 "Fore" 0
FSType: 0
OS2Version: 0
OS2_WeightWidthSlopeOnly: 0
OS2_UseTypoMetrics: 0
CreationTime: 1440051439
ModificationTime: 1452159623
PfmFamily: 16
TTFWeight: 400
TTFWidth: 5
LineGap: 94
VLineGap: 0
OS2TypoAscent: 819
OS2TypoAOffset: 0
OS2TypoDescent: -205
OS2TypoDOffset: 0
OS2TypoLinegap: 94
OS2WinAscent: 918
OS2WinAOffset: 0
OS2WinDescent: 205
OS2WinDOffset: 0
HheadAscent: 918
HheadAOffset: 0
HheadDescent: -205
HheadDOffset: 0
OS2CapHeight: 0
OS2XHeight: 0
OS2Vendor: 'PfEd'
OS2UnicodeRanges: 00000002.00000000.00000000.00000000
Lookup: 1 0 0 "Abhaya Libre Latin-Regular-'sups' Superscript lookup 0" { "Abhaya Libre Latin-Regular-'sups' Superscript lookup 0 subtable"  } ['sups' ('DFLT' <'dflt' > ) ]
Lookup: 4 0 0 "Abhaya Libre Latin-Regular-'frac' Diagonal Fractions lookup 1" { "Abhaya Libre Latin-Regular-'frac' Diagonal Fractions lookup 1 subtable"  } ['frac' ('DFLT' <'dflt' > ) ]
Lookup: 6 0 0 "Abhaya Libre Latin-Regular-'ordn' Ordinals lookup 2" { "Abhaya Libre Latin-Regular-'ordn' Ordinals lookup 2 contextual 0"  "Abhaya Libre Latin-Regular-'ordn' Ordinals lookup 2 contextual 1"  } ['ordn' ('DFLT' <'dflt' > ) ]
Lookup: 1 0 0 "Abhaya Libre Latin-Regular-Single Substitution lookup 3" { "Abhaya Libre Latin-Regular-Single Substitution lookup 3 subtable"  } []
Lookup: 1 0 0 "Abhaya Libre Latin-Regular-Single Substitution lookup 4" { "Abhaya Libre Latin-Regular-Single Substitution lookup 4 subtable"  } []

StartChar: si_NdAa.halant
Encoding: 293 -1 0
GlifName: N_ameM_e.544
Width: 776
VWidth: 0
Flags: HW
LayerCount: 2
Back
Fore
SplineSet
116.6015625 465 m 2
 76.890625 465 59 452.739906784 59 412 c 2
 59 0 l 1
 22 0 l 1
 22 424 l 2
 22 476.166015625 58.8512667515 497 105.400390625 497 c 2
 281.614257812 497 l 1
 211.614257812 465 l 1
 116.6015625 465 l 2
EndSplineSet
Refer: 42 -1 N 1 0 0 1 173 0 2
EndChar

StartChar: si_JnyAe
Encoding: 184 -1 1
GlifName: N_ameM_e.559
Width: 1071
VWidth: 1000
Flags: HW
LayerCount: 2
Back
Fore
SplineSet
620.0234375 465 m 25
 487.020507812 465 l 2
 458.514648438 465 448.502929688 454.046875 445.020507812 435 c 2
 417.598632812 285 l 1
 441.606445312 285 l 2
 466.2734375 285 478.606445312 270.666992188 478.606445312 242 c 2
 478.606445312 60 l 2
 478.606445312 12.607421875 459.206054688 0 411.606445312 0 c 2
 228.0234375 0 l 2
 191.384765625 0 180.0234375 19.0517578125 180.0234375 56 c 2
 180.0234375 413 l 2
 180.0234375 475.43359375 228.947265625 497 265.614257812 497 c 2
 344.020507812 497 l 1
 344.020507812 465 l 1
 269.614257812 465 l 2
 233.555664062 465 217.02734375 445.48828125 217.02734375 403 c 2
 217.0234375 59.80078125 l 2
 217.0234375 40.587890625 220.940429688 32 240.0234375 32 c 2
 405.020507812 32 l 2
 432.155273438 32 441.606445312 37.6572265625 441.606445312 64 c 2
 441.606445312 231.99609375 l 2
 441.606445312 245.99609375 437.166992188 252.99609375 423.020507812 252.99609375 c 2
 376.606445312 252.99609375 l 1
 410.606445312 446 l 2
 416.606445312 480 440.622823043 497 482.606445312 497 c 2
 619.999023438 497 l 25
 620.0234375 465 l 25
116.6015625 465 m 2
 76.890625 465 59 452.739906784 59 412 c 2
 59 0 l 1
 22 0 l 1
 22 424 l 2
 22 476.166015625 58.8512667515 497 105.400390625 497 c 2
 281.614257812 497 l 1
 211.614257812 465 l 1
 116.6015625 465 l 2
EndSplineSet
Refer: 44 -1 N 1 0 0 1 555 0 2
EndChar

StartChar: si_JnyAee
Encoding: 185 -1 2
GlifName: N_ameM_e.560
Width: 1075
VWidth: 1000
Flags: HW
LayerCount: 2
Back
Fore
SplineSet
620.0234375 465 m 25
 487.020507812 465 l 2
 458.514648438 465 448.502929688 454.046875 445.020507812 435 c 2
 417.598632812 285 l 1
 441.606445312 285 l 2
 466.2734375 285 478.606445312 270.666992188 478.606445312 242 c 2
 478.606445312 60 l 2
 478.606445312 12.607421875 459.206054688 0 411.606445312 0 c 2
 228.0234375 0 l 2
 191.384765625 0 180.0234375 19.0517578125 180.0234375 56 c 2
 180.0234375 413 l 2
 180.0234375 475.43359375 228.947265625 497 265.614257812 497 c 2
 344.020507812 497 l 1
 344.020507812 465 l 1
 269.614257812 465 l 2
 233.555664062 465 217.02734375 445.48828125 217.02734375 403 c 2
 217.0234375 59.80078125 l 2
 217.0234375 40.587890625 220.940429688 32 240.0234375 32 c 2
 405.020507812 32 l 2
 432.155273438 32 441.606445312 37.6572265625 441.606445312 64 c 2
 441.606445312 231.99609375 l 2
 441.606445312 245.99609375 437.166992188 252.99609375 423.020507812 252.99609375 c 2
 376.606445312 252.99609375 l 1
 410.606445312 446 l 2
 416.606445312 480 440.622823043 497 482.606445312 497 c 2
 619.999023438 497 l 25
 620.0234375 465 l 25
116.6015625 465 m 2
 76.890625 465 59 452.739906784 59 412 c 2
 59 0 l 1
 22 0 l 1
 22 424 l 2
 22 476.166015625 58.8512667515 497 105.400390625 497 c 2
 281.614257812 497 l 1
 211.614257812 465 l 1
 116.6015625 465 l 2
EndSplineSet
Refer: 43 -1 N 1 0 0 1 556 0 2
EndChar

StartChar: si_NyAa.halant
Encoding: 174 -1 3
GlifName: N_ameM_e.562
Width: 1175
VWidth: 1000
Flags: HW
LayerCount: 2
Back
Fore
SplineSet
480.196289062 307.80859375 m 2
 480.196289062 326.779296875 470.235351562 332.80859375 455.196289062 332.80859375 c 2
 312.202148438 332.809570312 l 1
 220.405273438 256 l 1
 247.186523438 256 l 1
 247.186523438 228.200195312 l 1
 213.1171875 209.637695312 208.186523438 193.123046875 208.186523438 146.013671875 c 2
 208.186523438 56 l 2
 208.186523438 38.6669921875 213.833007812 32 228.5859375 32 c 2
 283 32 l 2
 323.10546875 32 325.399414062 61.5810546875 325.399414062 94 c 2
 325.399414062 188 l 1
 362.600585938 188.002929688 l 1
 362.600585938 94 l 2
 362.600585938 61.568359375 363.104492188 32 401 32 c 2
 454.202148438 32 l 2
 475.791015625 32 480.196289062 46.0009765625 480.196289062 64 c 2
 480.196289062 307.80859375 l 2
591 465 m 1
 551 465 l 2
 531.700195312 465 507.149223758 463.126583216 490 458 c 0
 470.510413742 452.173789601 447.156479589 438.91582914 422.202148438 419.801757812 c 2
 350.407226562 364.809570312 l 1
 470.196289062 364.80859375 l 2
 495.5703125 364.80859375 517.196289062 350.016601562 517.196289062 315.80859375 c 2
 517.196289062 52.9990234375 l 2
 517.196289062 19.49609375 493.775390625 -0.0009765625 466.01171875 -0.0009765625 c 2
 380.19921875 0 l 2
 361.2421875 0 347.866210938 9.6669921875 343.19921875 29.0009765625 c 1
 338.532226562 9.6669921875 321.891601562 0 304.19921875 0 c 2
 216.186523438 0 l 2
 187.677734375 0 171.186523438 19.74609375 171.186523438 46 c 2
 171.186523438 156.010742188 l 2
 171.186523438 198.78125 179.127929688 215.780273438 193.985351562 224.799804688 c 1
 161.202148438 224.799804688 l 1
 161.202148438 252.991210938 l 1
 306.194335938 374.2109375 l 1
 306.033203125 430 l 2
 305.979492188 454.000976562 300.146484375 465 277.202148438 465 c 2
 187.202148438 465 l 1
 187.202148438 497.000976562 l 1
 296.397460938 497 l 2
 324.635742188 497 342.111328125 477.275390625 342.149414062 440.798828125 c 2
 342.197265625 404.206054688 l 1
 408 454 l 2
 434.984006741 474.419214623 455.547392007 483.592857606 471 488.599609375 c 0
 489.380163076 494.554909221 516.087249926 497 538 497 c 2
 591 497 l 1
 591 465 l 1
116.6015625 465 m 2
 76.890625 465 59 452.739906784 59 412 c 2
 59 0 l 1
 22 0 l 1
 22 424 l 2
 22 476.166015625 58.8512667515 497 105.400390625 497 c 2
 281.614257812 497 l 1
 211.614257812 465 l 1
 116.6015625 465 l 2
EndSplineSet
Refer: 42 -1 N 1 0 0 1 566 0 2
EndChar

StartChar: si_NyAe
Encoding: 172 -1 4
GlifName: N_ameM_e.563
Width: 1088
VWidth: 1000
Flags: HW
LayerCount: 2
Back
Fore
SplineSet
480.196289062 307.80859375 m 2
 480.196289062 326.779296875 470.235351562 332.80859375 455.196289062 332.80859375 c 2
 312.202148438 332.809570312 l 1
 220.405273438 256 l 1
 247.186523438 256 l 1
 247.186523438 228.200195312 l 1
 213.1171875 209.637695312 208.186523438 193.123046875 208.186523438 146.013671875 c 2
 208.186523438 56 l 2
 208.186523438 38.6669921875 213.833007812 32 228.5859375 32 c 2
 283 32 l 2
 323.10546875 32 325.399414062 61.5810546875 325.399414062 94 c 2
 325.399414062 188 l 1
 362.600585938 188.002929688 l 1
 362.600585938 94 l 2
 362.600585938 61.568359375 363.104492188 32 401 32 c 2
 454.202148438 32 l 2
 475.791015625 32 480.196289062 46.0009765625 480.196289062 64 c 2
 480.196289062 307.80859375 l 2
591 465 m 1
 551 465 l 2
 531.700195312 465 507.149223758 463.126583216 490 458 c 0
 470.510413742 452.173789601 447.156479589 438.91582914 422.202148438 419.801757812 c 2
 350.407226562 364.809570312 l 1
 470.196289062 364.80859375 l 2
 495.5703125 364.80859375 517.196289062 350.016601562 517.196289062 315.80859375 c 2
 517.196289062 52.9990234375 l 2
 517.196289062 19.49609375 493.775390625 -0.0009765625 466.01171875 -0.0009765625 c 2
 380.19921875 0 l 2
 361.2421875 0 347.866210938 9.6669921875 343.19921875 29.0009765625 c 1
 338.532226562 9.6669921875 321.891601562 0 304.19921875 0 c 2
 216.186523438 0 l 2
 187.677734375 0 171.186523438 19.74609375 171.186523438 46 c 2
 171.186523438 156.010742188 l 2
 171.186523438 198.78125 179.127929688 215.780273438 193.985351562 224.799804688 c 1
 161.202148438 224.799804688 l 1
 161.202148438 252.991210938 l 1
 306.194335938 374.2109375 l 1
 306.033203125 430 l 2
 305.979492188 454.000976562 300.146484375 465 277.202148438 465 c 2
 187.202148438 465 l 1
 187.202148438 497.000976562 l 1
 296.397460938 497 l 2
 324.635742188 497 342.111328125 477.275390625 342.149414062 440.798828125 c 2
 342.197265625 404.206054688 l 1
 408 454 l 2
 434.984006741 474.419214623 455.547392007 483.592857606 471 488.599609375 c 0
 489.380163076 494.554909221 516.087249926 497 538 497 c 2
 591 497 l 1
 591 465 l 1
116.6015625 465 m 2
 76.890625 465 59 452.739906784 59 412 c 2
 59 0 l 1
 22 0 l 1
 22 424 l 2
 22 476.166015625 58.8512667515 497 105.400390625 497 c 2
 281.614257812 497 l 1
 211.614257812 465 l 1
 116.6015625 465 l 2
EndSplineSet
Refer: 44 -1 N 1 0 0 1 567 0 2
EndChar

StartChar: si_NyAee
Encoding: 173 -1 5
GlifName: N_ameM_e.564
Width: 1085
VWidth: 1000
Flags: HW
LayerCount: 2
Back
Fore
SplineSet
480.196289062 307.80859375 m 2
 480.196289062 326.779296875 470.235351562 332.80859375 455.196289062 332.80859375 c 2
 312.202148438 332.809570312 l 1
 220.405273438 256 l 1
 247.186523438 256 l 1
 247.186523438 228.200195312 l 1
 213.1171875 209.637695312 208.186523438 193.123046875 208.186523438 146.013671875 c 2
 208.186523438 56 l 2
 208.186523438 38.6669921875 213.833007812 32 228.5859375 32 c 2
 283 32 l 2
 323.10546875 32 325.399414062 61.5810546875 325.399414062 94 c 2
 325.399414062 188 l 1
 362.600585938 188.002929688 l 1
 362.600585938 94 l 2
 362.600585938 61.568359375 363.104492188 32 401 32 c 2
 454.202148438 32 l 2
 475.791015625 32 480.196289062 46.0009765625 480.196289062 64 c 2
 480.196289062 307.80859375 l 2
591 465 m 1
 551 465 l 2
 531.700195312 465 507.149223758 463.126583216 490 458 c 0
 470.510413742 452.173789601 447.156479589 438.91582914 422.202148438 419.801757812 c 2
 350.407226562 364.809570312 l 1
 470.196289062 364.80859375 l 2
 495.5703125 364.80859375 517.196289062 350.016601562 517.196289062 315.80859375 c 2
 517.196289062 52.9990234375 l 2
 517.196289062 19.49609375 493.775390625 -0.0009765625 466.01171875 -0.0009765625 c 2
 380.19921875 0 l 2
 361.2421875 0 347.866210938 9.6669921875 343.19921875 29.0009765625 c 1
 338.532226562 9.6669921875 321.891601562 0 304.19921875 0 c 2
 216.186523438 0 l 2
 187.677734375 0 171.186523438 19.74609375 171.186523438 46 c 2
 171.186523438 156.010742188 l 2
 171.186523438 198.78125 179.127929688 215.780273438 193.985351562 224.799804688 c 1
 161.202148438 224.799804688 l 1
 161.202148438 252.991210938 l 1
 306.194335938 374.2109375 l 1
 306.033203125 430 l 2
 305.979492188 454.000976562 300.146484375 465 277.202148438 465 c 2
 187.202148438 465 l 1
 187.202148438 497.000976562 l 1
 296.397460938 497 l 2
 324.635742188 497 342.111328125 477.275390625 342.149414062 440.798828125 c 2
 342.197265625 404.206054688 l 1
 408 454 l 2
 434.984006741 474.419214623 455.547392007 483.592857606 471 488.599609375 c 0
 489.380163076 494.554909221 516.087249926 497 538 497 c 2
 591 497 l 1
 591 465 l 1
116.6015625 465 m 2
 76.890625 465 59 452.739906784 59 412 c 2
 59 0 l 1
 22 0 l 1
 22 424 l 2
 22 476.166015625 58.8512667515 497 105.400390625 497 c 2
 281.614257812 497 l 1
 211.614257812 465 l 1
 116.6015625 465 l 2
EndSplineSet
Refer: 43 -1 N 1 0 0 1 565 0 2
EndChar

StartChar: zwj
Encoding: 83 8205 6
GlifName: zwj
Width: 0
VWidth: 0
Flags: HW
LayerCount: 2
Back
Fore
SplineSet
26.7271 655.044 m 257
 151.271 532 l 257
 124.043 505.099 l 257
 19.5 609.642 l 257
 19.5 9.5 l 257
 -19.5 9.5 l 257
 -19.5 609.642 l 257
 -124.043 505.099 l 257
 -151.271 532 l 257
 -26.7271 655.044 l 257
 -151.227 776.544 l 257
 -124.043 803.401 l 257
 -0 679.358 l 257
 124.043 803.401 l 257
 151.227 776.544 l 257
 26.7271 655.044 l 257
EndSplineSet
EndChar

StartChar: zwnj
Encoding: 82 8204 7
GlifName: zwnj
Width: 0
VWidth: 0
Flags: HW
LayerCount: 2
Back
Fore
SplineSet
-19.5 9.25 m 257
 -19.5 760.75 l 257
 19.5 760.75 l 257
 19.5 9.25 l 257
 -19.5 9.25 l 257
EndSplineSet
EndChar

StartChar: si_B.halant
Encoding: 314 -1 8
GlifName: si_B_.halant
Width: 515
VWidth: 1000
Flags: HW
LayerCount: 2
Back
Fore
SplineSet
460 400 m 5
 423 400 l 5
 423 484 l 6
 423 513.545898438 406.061523438 518 387 518 c 6
 14 518 l 5
 14 550 l 5
 82 550 l 5
 52.6669921875 557.333007812 50 582.666992188 50 604 c 6
 50 632 l 6
 50 659.333333333 66.3333333333 673 99 673 c 6
 458 673 l 5
 458 641 l 5
 102.5 641 l 6
 87.53125 641 87 633.667282104 87 616 c 4
 87 573.677734375 97.3973370288 550 168 550 c 6
 391 550 l 6
 446.44140625 550 460 525.686523438 460 469 c 6
 460 400 l 5
215.001953125 54 m 6
 214.001953125 356.5859375 l 6
 213.9453125 376.708984375 206.547851562 385.5859375 188 385.5859375 c 6
 85 385.5859375 l 6
 64.349609375 385.5859375 59 375.7109375 59 356.385742188 c 6
 59 60 l 6
 59 37.8388671875 64.4794921875 32 82 32 c 6
 172 32 l 5
 172 0 l 5
 72 0 l 6
 34.927734375 0 22 16.2734375 22 54 c 6
 22 362.6015625 l 6
 22 399.268554688 40.6669921875 417.6015625 78 417.6015625 c 6
 196.602539062 417.6015625 l 6
 228.73046875 417.6015625 251.602539062 403.388671875 251.602539062 364 c 6
 251.602539062 62 l 6
 251.602539062 41.908203125 255.225585938 32 277 32 c 6
 402 32 l 6
 418.514648438 32 423.00390625 39.3466796875 423.00390625 58 c 6
 423.00390625 415 l 5
 460.000976562 415 l 5
 460.000976562 54 l 6
 460.000976562 16.2705078125 447.076171875 -0 410.000976562 0 c 6
 267.001953125 0 l 6
 230.254882812 0 215.125119787 16.7314999846 215.001953125 54 c 6
EndSplineSet
EndChar

StartChar: si_BI
Encoding: 315 -1 9
GlifName: si_B_I_
Width: 515
VWidth: 1000
Flags: HW
LayerCount: 2
Back
Fore
SplineSet
460 400 m 5
 423 400 l 5
 423 476 l 6
 423 499.380859375 416.126953125 509.5 391 509.5 c 6
 69 509.5 l 6
 37.6669921875 509.5 22 525.5 22 557.5 c 6
 22 620 l 6
 22 653.415199923 36.1038354598 672 72 672 c 6
 458.5 672 l 5
 458.5 640 l 5
 84 640 l 6
 63.0830078125 640 58.875 635.55848028 58.875 611 c 6
 58.875 566 l 6
 58.875 552.489578247 60.4326171875 541.5 83 541.5 c 6
 391 541.5 l 6
 447.814453125 541.5 460 524.084960938 460 466 c 6
 460 400 l 5
215.001953125 54 m 2
 214.001953125 356.5859375 l 2
 213.9453125 376.708984375 206.547851562 385.5859375 188 385.5859375 c 2
 85 385.5859375 l 2
 64.349609375 385.5859375 59 375.7109375 59 356.385742188 c 2
 59 60 l 2
 59 37.8388671875 64.4794921875 32 82 32 c 2
 172 32 l 1
 172 0 l 1
 72 0 l 2
 34.927734375 0 22 16.2734375 22 54 c 2
 22 362.6015625 l 2
 22 399.268554688 40.6669921875 417.6015625 78 417.6015625 c 2
 196.602539062 417.6015625 l 2
 228.73046875 417.6015625 251.602539062 403.388671875 251.602539062 364 c 2
 251.602539062 62 l 2
 251.602539062 41.908203125 255.225585938 32 277 32 c 2
 402 32 l 2
 418.514648438 32 423.00390625 39.3466796875 423.00390625 58 c 2
 423.00390625 415 l 1
 460.000976562 415 l 1
 460.000976562 54 l 2
 460.000976562 16.2705078125 447.076171875 -0 410.000976562 0 c 2
 267.001953125 0 l 2
 230.254882812 0 215.125119787 16.7314999846 215.001953125 54 c 2
EndSplineSet
EndChar

StartChar: si_BIi
Encoding: 316 -1 10
GlifName: si_B_I_i
Width: 515
VWidth: 1000
Flags: HW
LayerCount: 2
Back
Fore
SplineSet
423 405 m 5
 423 479.5 l 6
 423 497.690429688 405.682617188 509.5 387 509.5 c 6
 65 509.5 l 6
 35.1572265625 509.5 22 518.271484375 22 550.5 c 6
 22 618 l 6
 22 654.859629233 35.4108204097 672 72 672 c 6
 410 672 l 6
 446.587890625 672 460 654.858398438 460 618 c 6
 460 570 l 6
 460 547.837890625 450.686523438 532.870117188 433 528 c 5
 454.911132812 521.15234375 460 504.274414062 460 475 c 6
 460 405 l 5
 423 405 l 5
272 539 m 21
 260.918198095 542.511433308 254 550.291992188 254 567 c 6
 254 621 l 6
 254 633.107421875 260.500976562 638.25 264 640 c 5
 263.852539062 640 75.875 640 75.875 640 c 6
 64.5419921875 640 58.875 635.333007812 58.875 626 c 6
 58.875 554 l 6
 58.875 544 64.2080078125 539 74.875 539 c 6
 272 539 l 21
315 640 m 6
 299.450195312 640 291 630.698242188 291 616 c 6
 291 570.5 l 6
 291 551.6015625 307.266601562 545.5 324.5 545.5 c 6
 387 545.5 l 6
 403.344726562 545.5 423 550.392578125 423 577 c 6
 423 627.5 l 6
 423 636.697265625 415.693359375 640 408.5 640 c 6
 315 640 l 6
215.001953125 54 m 2
 214.001953125 356.5859375 l 2
 213.9453125 376.708984375 206.547851562 385.5859375 188 385.5859375 c 2
 85 385.5859375 l 2
 64.349609375 385.5859375 59 375.7109375 59 356.385742188 c 2
 59 60 l 2
 59 37.8388671875 64.4794921875 32 82 32 c 2
 172 32 l 1
 172 0 l 1
 72 0 l 2
 34.927734375 0 22 16.2734375 22 54 c 2
 22 362.6015625 l 2
 22 399.268554688 40.6669921875 417.6015625 78 417.6015625 c 2
 196.602539062 417.6015625 l 2
 228.73046875 417.6015625 251.602539062 403.388671875 251.602539062 364 c 2
 251.602539062 62 l 2
 251.602539062 41.908203125 255.225585938 32 277 32 c 2
 402 32 l 2
 418.514648438 32 423.00390625 39.3466796875 423.00390625 58 c 2
 423.00390625 415 l 1
 460.000976562 415 l 1
 460.000976562 54 l 2
 460.000976562 16.2705078125 447.076171875 -0 410.000976562 0 c 2
 267.001953125 0 l 2
 230.254882812 0 215.125119787 16.7314999846 215.001953125 54 c 2
EndSplineSet
EndChar

StartChar: si_BRI
Encoding: 321 -1 11
GlifName: si_B_R_I_
Width: 513
VWidth: 0
Flags: HW
LayerCount: 2
Back
Fore
SplineSet
22.1943359375 -21 m 5
 22.1943359375 -105.802734375 l 6
 22.1943359375 -135.796875 39.1103515625 -150 66.1943359375 -150 c 6
 418.805664062 -150 l 6
 444.138671875 -150 459.805664062 -138.565429688 459.805664062 -107 c 6
 459.805664062 -21 l 5
 422.8046875 -21 l 5
 422.8046875 -97 l 6
 422.8046875 -109.877929688 417.639648438 -118.005859375 402.805664062 -118.005859375 c 6
 77.2041015625 -118.005859375 l 6
 64.08984375 -118.005859375 59 -110 59 -98 c 6
 59 -21 l 5
 22.1943359375 -21 l 5
EndSplineSet
Refer: 9 -1 N 1 0 0 1 0 0 2
EndChar

StartChar: si_BRIi
Encoding: 322 -1 12
GlifName: si_B_R_I_i
Width: 514
VWidth: 0
Flags: HW
LayerCount: 2
Back
Fore
SplineSet
22.1943359375 -21 m 5
 22.1943359375 -105.802734375 l 6
 22.1943359375 -135.796875 39.1103515625 -150 66.1943359375 -150 c 6
 418.805664062 -150 l 6
 444.138671875 -150 459.805664062 -138.565429688 459.805664062 -107 c 6
 459.805664062 -21 l 5
 422.8046875 -21 l 5
 422.8046875 -97 l 6
 422.8046875 -109.877929688 417.639648438 -118.005859375 402.805664062 -118.005859375 c 6
 77.2041015625 -118.005859375 l 6
 64.08984375 -118.005859375 59 -110 59 -98 c 6
 59 -21 l 5
 22.1943359375 -21 l 5
EndSplineSet
Refer: 10 -1 N 1 0 0 1 0 0 2
EndChar

StartChar: si_BRa
Encoding: 320 -1 13
GlifName: si_B_R_a
Width: 515
VWidth: 0
Flags: HW
LayerCount: 2
Back
Fore
SplineSet
22.1943359375 -21 m 5
 22.1943359375 -105.802734375 l 6
 22.1943359375 -135.796875 39.1103515625 -150 66.1943359375 -150 c 6
 418.805664062 -150 l 6
 444.138671875 -150 459.805664062 -138.565429688 459.805664062 -107 c 6
 459.805664062 -21 l 5
 422.8046875 -21 l 5
 422.8046875 -97 l 6
 422.8046875 -109.877929688 417.639648438 -118.005859375 402.805664062 -118.005859375 c 6
 77.2041015625 -118.005859375 l 6
 64.08984375 -118.005859375 59 -110 59 -98 c 6
 59 -21 l 5
 22.1943359375 -21 l 5
EndSplineSet
Refer: 466 3510 N 1 0 0 1 0 0 2
EndChar

StartChar: si_Ba.reph
Encoding: 319 -1 16
GlifName: si_B_a.reph
Width: 515
VWidth: 0
Flags: HW
LayerCount: 2
Back
Fore
SplineSet
208.997070312 659.59765625 m 5
 247 659.59765625 l 5
 247 566 l 6
 247 538.822265625 235.508789062 529 216 529 c 6
 116.606445312 529 l 6
 90.142578125 529 76.6064453125 542.895507812 76.6064453125 575 c 6
 76.6064453125 668.20703125 l 6
 76.6064453125 696.944335938 93.85546875 716.20703125 130.606445312 716.20703125 c 6
 322 716.20703125 l 6
 355.4453125 716.20703125 373 699.385742188 373 660.20703125 c 6
 373 533.602539062 l 5
 336.001953125 533.602539062 l 5
 336.001953125 655.805664062 l 6
 336.001953125 675.583007812 329.771484375 684.204101562 316 684.204101562 c 6
 135.606445312 684.204101562 l 6
 123.005859375 684.204101562 113.614257812 677.900390625 113.614257812 662.805664062 c 6
 113.614257812 580.598632812 l 6
 113.614257812 567.92578125 116.859375 560.390625 128.606445312 560.390625 c 6
 196.206054688 560.390625 l 6
 207.470703125 560.390625 208.997070312 565.723632812 208.997070312 576.390625 c 6
 208.997070312 659.59765625 l 5
EndSplineSet
Refer: 466 3510 N 1 0 0 1 0 0 2
EndChar

StartChar: si_C.halant
Encoding: 136 -1 26
GlifName: si_C_.halant
Width: 539
VWidth: 1000
Flags: HW
LayerCount: 2
Back
Fore
SplineSet
-6 309 m 5
 183.99609375 309 l 5
 183.99609375 277 l 5
 -6.001953125 277 l 5
 -6 309 l 5
497 415 m 5
 497 54 l 6
 497 16.2705078125 484.075195312 0 447 0 c 6
 116.997070312 0 l 6
 79.9248046875 0 66.9970703125 16.2744140625 66.9970703125 54 c 6
 66.9970703125 226 l 6
 66.9970703125 253.079101562 79.2978515625 273.443359375 97.99609375 282 c 6
 97.99609375 282 137.93359375 309 156.99609375 309 c 6
 248.090820312 309 l 5
 248.090820312 418 l 6
 248.090820312 435.568359375 233.6640625 438 222.997070312 438 c 6
 66.99609375 438 l 5
 66.99609375 470 l 5
 233.997070312 470 l 6
 269.219726562 470 284.9921875 454.405273438 284.993164062 418 c 6
 284.997070312 277 l 5
 166.998046875 277 l 6
 133.543945312 277 104.000976562 265.318359375 104.000976562 220 c 6
 104.000976562 59 l 6
 104.000976562 39.2084075139 111.292782066 32 128 32 c 6
 436.002929688 32 l 6
 453.915039062 32 460 40.375 460 62 c 6
 460 415 l 5
 497 415 l 5
496.9921875 400 m 5
 459.9921875 400 l 5
 459.9921875 465 l 6
 459.9921875 505.98046875 447.356445312 518 411.9921875 518 c 6
 50.9921875 518 l 5
 50.9921875 550 l 5
 118.9921875 550 l 5
 89.6591796875 557.333007812 86.9921875 582.666992188 86.9921875 604 c 6
 86.9921875 632 l 6
 86.9921875 659.333007812 103.325195312 673 135.9921875 673 c 6
 494.9921875 673 l 5
 494.9921875 641 l 5
 139.4921875 641 l 6
 124.5234375 641 123.9921875 633.666992188 123.9921875 616 c 4
 123.9921875 573.677734375 134.389648438 550 204.9921875 550 c 6
 419.9921875 550 l 6
 480.37109375 550 496.9921875 528.467773438 496.9921875 469 c 6
 496.9921875 400 l 5
EndSplineSet
EndChar

StartChar: si_CI
Encoding: 137 -1 27
GlifName: si_C_I_
Width: 539
VWidth: 1000
Flags: HW
LayerCount: 2
Back
Fore
SplineSet
496.999023438 400 m 1
 459.999023438 400 l 1
 459.999023438 476 l 2
 459.999023438 499.380859375 453.125976562 509.5 427.999023438 509.5 c 2
 105.999023438 509.5 l 2
 74.666015625 509.5 58.9990234375 525.5 58.9990234375 557.5 c 2
 58.9990234375 620 l 2
 58.9990234375 653.415039062 73.1025390625 672 108.999023438 672 c 2
 495.499023438 672 l 1
 495.499023438 640 l 1
 120.999023438 640 l 2
 100.08203125 640 95.8740234375 635.55859375 95.8740234375 611 c 2
 95.8740234375 566 l 2
 95.8740234375 552.489257812 97.431640625 541.5 119.999023438 541.5 c 2
 427.999023438 541.5 l 2
 484.813476562 541.5 496.999023438 524.084960938 496.999023438 466 c 2
 496.999023438 400 l 1
-6 309 m 1
 183.99609375 309 l 1
 183.99609375 277 l 1
 -6.001953125 277 l 1
 -6 309 l 1
497 415 m 1
 497 54 l 2
 497 16.2705078125 484.075195312 0 447 0 c 2
 116.997070312 0 l 2
 79.9248046875 0 66.9970703125 16.2744140625 66.9970703125 54 c 2
 66.9970703125 226 l 2
 66.9970703125 253.079101562 79.2978515625 273.443359375 97.99609375 282 c 2
 97.99609375 282 137.93359375 309 156.99609375 309 c 2
 248.090820312 309 l 1
 248.090820312 418 l 2
 248.090820312 435.568359375 233.6640625 438 222.997070312 438 c 2
 66.99609375 438 l 1
 66.99609375 470 l 1
 233.997070312 470 l 2
 269.219726562 470 284.9921875 454.405273438 284.993164062 418 c 2
 284.997070312 277 l 1
 166.998046875 277 l 2
 133.543945312 277 104.000976562 265.318359375 104.000976562 220 c 2
 104.000976562 59 l 2
 104.000976562 39.2084075139 111.292782066 32 128 32 c 2
 436.002929688 32 l 2
 453.915039062 32 460 40.375 460 62 c 2
 460 415 l 1
 497 415 l 1
EndSplineSet
EndChar

StartChar: si_CIi
Encoding: 138 -1 28
GlifName: si_C_I_i
Width: 539
VWidth: 1000
Flags: HW
LayerCount: 2
Back
Fore
SplineSet
460 405 m 1
 460 479.5 l 2
 460 497.690429688 442.682617188 509.5 424 509.5 c 2
 102 509.5 l 2
 72.1572265625 509.5 59 518.271484375 59 550.5 c 2
 59 618 l 2
 59 654.859375 72.4111328125 672 109 672 c 2
 447 672 l 2
 483.587890625 672 497 654.858398438 497 618 c 2
 497 570 l 2
 497 547.837890625 487.686523438 532.870117188 470 528 c 1
 491.911132812 521.15234375 497 504.274414062 497 475 c 2
 497 405 l 1
 460 405 l 1
309 539 m 17
 297.91796875 542.51171875 291 550.291992188 291 567 c 2
 291 621 l 2
 291 633.107421875 297.500976562 638.25 301 640 c 1
 300.852539062 640 112.875 640 112.875 640 c 2
 101.541992188 640 95.875 635.333007812 95.875 626 c 2
 95.875 554 l 2
 95.875 544 101.208007812 539 111.875 539 c 2
 309 539 l 17
352 640 m 2
 336.450195312 640 328 630.698242188 328 616 c 2
 328 570.5 l 2
 328 551.6015625 344.266601562 545.5 361.5 545.5 c 2
 424 545.5 l 2
 440.344726562 545.5 460 550.392578125 460 577 c 2
 460 627.5 l 2
 460 636.697265625 452.693359375 640 445.5 640 c 2
 352 640 l 2
-6 309 m 1
 183.99609375 309 l 1
 183.99609375 277 l 1
 -6.001953125 277 l 1
 -6 309 l 1
497 415 m 1
 497 54 l 2
 497 16.2705078125 484.075195312 0 447 0 c 2
 116.997070312 0 l 2
 79.9248046875 0 66.9970703125 16.2744140625 66.9970703125 54 c 2
 66.9970703125 226 l 2
 66.9970703125 253.079101562 79.2978515625 273.443359375 97.99609375 282 c 2
 97.99609375 282 137.93359375 309 156.99609375 309 c 2
 248.090820312 309 l 1
 248.090820312 418 l 2
 248.090820312 435.568359375 233.6640625 438 222.997070312 438 c 2
 66.99609375 438 l 1
 66.99609375 470 l 1
 233.997070312 470 l 2
 269.219726562 470 284.9921875 454.405273438 284.993164062 418 c 2
 284.997070312 277 l 1
 166.998046875 277 l 2
 133.543945312 277 104.000976562 265.318359375 104.000976562 220 c 2
 104.000976562 59 l 2
 104.000976562 39.2084075139 111.292782066 32 128 32 c 2
 436.002929688 32 l 2
 453.915039062 32 460 40.375 460 62 c 2
 460 415 l 1
 497 415 l 1
EndSplineSet
EndChar

StartChar: si_CRI
Encoding: 143 -1 29
GlifName: si_C_R_I_
Width: 539
VWidth: 0
Flags: HW
LayerCount: 2
Back
Fore
SplineSet
67.1943359375 -21 m 5
 67.1943359375 -105.802734375 l 6
 67.1943359375 -135.796875 84.1103515625 -150 111.194335938 -150 c 6
 453.202148438 -150 l 6
 478.53515625 -150 494.202148438 -138.565429688 494.202148438 -107 c 6
 494.202148438 -21 l 5
 457.201171875 -21 l 5
 457.201171875 -97 l 6
 457.201171875 -109.877929688 452.036132812 -118.005859375 437.202148438 -118.005859375 c 6
 122.204101562 -118.005859375 l 6
 109.08984375 -118.005859375 104 -110 104 -98 c 6
 104 -21 l 5
 67.1943359375 -21 l 5
EndSplineSet
Refer: 27 -1 N 1 0 0 1 0 0 2
EndChar

StartChar: si_CRIi
Encoding: 144 -1 30
GlifName: si_C_R_I_i
Width: 539
VWidth: 0
Flags: HW
LayerCount: 2
Back
Fore
SplineSet
67.1943359375 -21 m 5
 67.1943359375 -105.802734375 l 6
 67.1943359375 -135.796875 84.1103515625 -150 111.194335938 -150 c 6
 453.202148438 -150 l 6
 478.53515625 -150 494.202148438 -138.565429688 494.202148438 -107 c 6
 494.202148438 -21 l 5
 457.201171875 -21 l 5
 457.201171875 -97 l 6
 457.201171875 -109.877929688 452.036132812 -118.005859375 437.202148438 -118.005859375 c 6
 122.204101562 -118.005859375 l 6
 109.08984375 -118.005859375 104 -110 104 -98 c 6
 104 -21 l 5
 67.1943359375 -21 l 5
EndSplineSet
Refer: 28 -1 N 1 0 0 1 0 0 2
EndChar

StartChar: si_CRa
Encoding: 142 -1 31
GlifName: si_C_R_a
Width: 539
VWidth: 0
Flags: HW
LayerCount: 2
Back
Fore
SplineSet
67.1943359375 -21 m 5
 67.1943359375 -105.802734375 l 6
 67.1943359375 -135.796875 84.1103515625 -150 111.194335938 -150 c 6
 453.202148438 -150 l 6
 478.53515625 -150 494.202148438 -138.565429688 494.202148438 -107 c 6
 494.202148438 -21 l 5
 457.201171875 -21 l 5
 457.201171875 -97 l 6
 457.201171875 -109.877929688 452.036132812 -118.005859375 437.202148438 -118.005859375 c 6
 122.204101562 -118.005859375 l 6
 109.08984375 -118.005859375 104 -110 104 -98 c 6
 104 -21 l 5
 67.1943359375 -21 l 5
EndSplineSet
Refer: 445 3488 N 1 0 0 1 0 0 2
EndChar

StartChar: si_CU
Encoding: 139 -1 32
GlifName: si_C_U_
Width: 539
VWidth: 0
Flags: HW
LayerCount: 2
Back
Fore
SplineSet
496.9921875 -159 m 1
 68 -159 l 5
 68 -126.904296875 l 5
 459.904296875 -126.904296875 l 1
 459.904296875 28 l 1
 464.904296875 28 l 2
 473.366210938 28 491.659179688 38 496.9921875 64 c 1
 496.9921875 -159 l 1
EndSplineSet
Refer: 445 3488 N 1 0 0 1 0 0 2
EndChar

StartChar: si_CUu
Encoding: 140 -1 33
GlifName: si_C_U_u
Width: 539
VWidth: 0
Flags: HW
LayerCount: 2
Back
Fore
SplineSet
496.9921875 -158.999023438 m 1
 466.190429688 -158.999023438 l 1
 460.990234375 -149.727539062 449.522460938 -138.131835938 441.793945312 -132.797851562 c 0
 431.623046875 -125.778320312 413.600585938 -119.993164062 394.790039062 -119.993164062 c 1
 337.986328125 -119.993164062 l 1
 320.328125 -119.993164062 299.826171875 -127.5 287.397460938 -132.598632812 c 1
 239.7890625 -152.40234375 l 1
 224.1171875 -158.381835938 195.303710938 -162.8046875 160.9921875 -162.8046875 c 2
 115.399414062 -162.8046875 l 6
 82.9853515625 -162.8046875 67.3984375 -150.575195312 67.3984375 -122.001953125 c 6
 67.3984375 -29.0029296875 l 5
 104.196289062 -29.0029296875 l 5
 104.196289062 -112.604492188 l 6
 104.196289062 -123.888671875 109.064453125 -130.60546875 121.000976562 -130.60546875 c 6
 166.786132812 -130.60546875 l 2
 187.754882812 -130.60546875 213.58203125 -127.923828125 236.986328125 -119.001953125 c 1
 276.192382812 -103.399414062 l 1
 289.158203125 -98.072265625 313.5859375 -91.595703125 335.782226562 -91.595703125 c 1
 399.000976562 -91.595703125 l 1
 420.693359375 -91.595703125 440.138671875 -97.3720703125 448.400390625 -102.80078125 c 0
 454.354492188 -106.712890625 455.041015625 -107.639648438 459.788085938 -112.400390625 c 1
 459.788085938 35 l 1
 472.986328125 35 l 2
 478.5546875 35 492.9921875 49 496.9921875 77 c 1
 496.9921875 -158.999023438 l 1
EndSplineSet
Refer: 445 3488 N 1 0 0 1 0 0 2
EndChar

StartChar: si_Ca.reph
Encoding: 141 -1 34
GlifName: si_C_a.reph
Width: 539
VWidth: 0
Flags: HW
LayerCount: 2
Back
Fore
SplineSet
248.390625 659.59765625 m 5
 286.393554688 659.59765625 l 5
 286.393554688 566 l 6
 286.393554688 538.822265625 274.90234375 529 255.393554688 529 c 6
 156 529 l 6
 129.536132812 529 116 542.895507812 116 575 c 6
 116 668.20703125 l 6
 116 696.944335938 133.249023438 716.20703125 170 716.20703125 c 6
 361.393554688 716.20703125 l 6
 394.838867188 716.20703125 412.393554688 699.385742188 412.393554688 660.20703125 c 6
 412.393554688 533.602539062 l 5
 375.395507812 533.602539062 l 5
 375.395507812 655.805664062 l 6
 375.395507812 675.583007812 369.165039062 684.204101562 355.393554688 684.204101562 c 6
 175 684.204101562 l 6
 162.399414062 684.204101562 153.0078125 677.900390625 153.0078125 662.805664062 c 6
 153.0078125 580.598632812 l 6
 153.0078125 567.92578125 156.252929688 560.390625 168 560.390625 c 6
 235.599609375 560.390625 l 6
 246.864257812 560.390625 248.390625 565.723632812 248.390625 576.390625 c 6
 248.390625 659.59765625 l 5
EndSplineSet
Refer: 445 3488 N 1 0 0 1 0 0 2
EndChar

StartChar: si_Ch.halant
Encoding: 145 -1 35
GlifName: si_C_h.halant
Width: 513
VWidth: 0
Flags: HW
LayerCount: 2
Back
Fore
SplineSet
218.80859375 477.786132812 m 5
 218.80859375 649 l 5
 255.598632812 649 l 5
 255.598632812 462.797851562 l 5
 249.69284057 468.584293309 228.987539972 477.786132812 218.80859375 477.786132812 c 5
EndSplineSet
Refer: 446 3489 N 1 0 0 1 0 0 2
EndChar

StartChar: si_ChI
Encoding: 146 -1 36
GlifName: si_C_hI_
Width: 513
VWidth: 0
Flags: HW
LayerCount: 2
Back
Fore
SplineSet
40 511.604492188 m 5
 77.001953125 511.604492188 l 5
 77.001953125 581 l 6
 77.001953125 603.366028623 89.4218321175 610.998046875 111 610.998046875 c 6
 366 610.998046875 l 5
 407 642.990234375 l 5
 98.7978515625 642.989257812 l 6
 68.6699218753 642.989162349 40 624.453125 40 590.990234375 c 6
 40 511.604492188 l 5
EndSplineSet
Refer: 446 3489 N 1 0 0 1 0 0 2
EndChar

StartChar: si_ChIi
Encoding: 147 -1 37
GlifName: si_C_hI_i
Width: 513
VWidth: 0
Flags: HW
LayerCount: 2
Back
Fore
SplineSet
211.625976562 601 m 6
 211.625976562 568 l 6
 211.625976562 561.115234375 214.416992188 557.19921875 224.653320312 557.19921875 c 6
 273.653320312 557.19921875 l 6
 286.080078125 557.19921875 286.65234375 562.6953125 286.65234375 570 c 6
 286.65234375 594 l 6
 286.65234375 604.651367188 283.766601562 612.240234375 271.653320312 612.240234375 c 6
 225 612.240234375 l 6
 214.658203125 612.240234375 211.625976562 605.666992188 211.625976562 601 c 6
292 525 m 6
 197.653320312 525 l 6
 184.4609375 525 174.653320312 531.4921875 174.653320312 548 c 6
 174.653320312 605 l 6
 174.653320312 608 175.96484375 611.219726562 177.653320312 613.201171875 c 5
 98 613.201171875 l 6
 83.1412138725 613.201171875 77.001953125 604 77.001953125 592 c 6
 77.001953125 507 l 5
 40 507 l 5
 40 600.791992188 l 6
 40 625.454101562 61.7109375 644.791992188 86 644.791992188 c 6
 279.653320312 644.791992188 l 6
 305.084960938 644.791992188 323.718060943 631.849598502 323.841796875 599 c 6
 324 557 l 14
 324 540 311.090188767 525 292 525 c 6
EndSplineSet
Refer: 446 3489 N 1 0 0 1 0 0 2
EndChar

StartChar: si_DAa
Encoding: 255 -1 41
GlifName: si_D_A_a
Width: 458
VWidth: 1000
Flags: HW
LayerCount: 2
Back
Fore
SplineSet
394.998046875 -36 m 2
 394.998046875 -24.708984375 388.997070312 -20 378.000976562 -20 c 2
 317 -20 l 1
 306.400390625 -40 l 1
 268.603515625 -40 l 1
 363.796875 141 l 1
 402 141 l 1
 334 11.9931640625 l 1
 395.002929688 11.9931640625 l 2
 421.002929688 11.9931640625 432 -1.0068359375 432 -25.0068359375 c 2
 432 -125.399414062 l 2
 432 -159.017578125 408.185606315 -171 380 -171 c 2
 178 -171 l 1
 178 -138.80078125 l 1
 373.998046875 -138.80078125 l 2
 386.965881117 -138.80078125 394.998046875 -133.938476562 394.998046875 -120.80078125 c 130
 394.998046875 -36 l 2
299.001953125 16 m 1
 290.584960938 4.6484375 288.84370596 -6.71641689571e-15 234 0 c 2
 66.2001953125 0 l 2
 32.2001953125 0 22 17.92578125 22 49.599609375 c 2
 22 295.998046875 l 2
 22 336.654296875 43.1064453125 352.998046875 80 352.998046875 c 2
 366.795898438 352.998046875 l 1
 366.794921875 436 l 2
 366.794921875 457.28515625 358.271484375 465 340 465 c 2
 22 465 l 1
 22 497.000976562 l 1
 351 497 l 2
 384.564453125 497 404 480.913085938 404 444 c 2
 404 321.000976562 l 1
 91 321 l 2
 66.6044921875 321 59 311.276367188 59 290 c 2
 59 58.0009765625 l 2
 59 38.1591796875 67.0478515625 32 82.2001953125 32 c 2
 251 32 l 2
 304.960959665 32 323.634765625 69.8837890625 338.3984375 92 c 1
 299.001953125 16 l 1
EndSplineSet
EndChar

StartChar: si_DAa.halant
Encoding: 264 -1 42
GlifName: si_D_A_a.halant
Width: 611
VWidth: 1000
Flags: HW
LayerCount: 2
Back
Fore
SplineSet
518.998046875 -36 m 2
 518.998046875 -24.708984375 512.997070312 -20 502.000976562 -20 c 2
 346.599609375 -20 l 1
 336 -40 l 1
 298.203125 -40 l 1
 393.396484375 141 l 1
 431.599609375 141 l 1
 363.599609375 11.9931640625 l 1
 519.002929688 11.9931640625 l 2
 545.002929688 11.9931640625 556 -1.0068359375 556 -25.0068359375 c 2
 556 -125.399414062 l 2
 556 -159.017578125 532.185546875 -171 504 -171 c 2
 279 -171 l 1
 279 -138.80078125 l 1
 497.998046875 -138.80078125 l 2
 510.965820312 -138.80078125 518.998046875 -133.938476562 518.998046875 -120.80078125 c 130
 518.998046875 -36 l 2
328.6015625 16 m 1
 320.184570312 4.6484375 318.443359375 0 263.599609375 0 c 2
 66.2001953125 0 l 2
 32.2001953125 0 22 17.92578125 22 49.599609375 c 2
 22 295.998046875 l 2
 22 336.654296875 43.1064453125 352.998046875 80 352.998046875 c 2
 366.795898438 352.998046875 l 1
 366.794921875 436 l 2
 366.794921875 457.28515625 358.271484375 465 340 465 c 2
 22 465 l 1
 22 497.000976562 l 1
 351 497 l 2
 384.564453125 497 404 480.913085938 404 444 c 2
 404 321.000976562 l 1
 91 321 l 2
 66.6044921875 321 59 311.276367188 59 290 c 2
 59 58.0009765625 l 2
 59 38.1591796875 67.0478515625 32 82.2001953125 32 c 2
 280.599609375 32 l 2
 334.560546875 32 353.234375 69.8837890625 367.998046875 92 c 1
 328.6015625 16 l 1
519.200195312 4 m 5
 519.200195312 631 l 5
 555.990234375 631 l 5
 555.990234375 -50 l 5
 553.624023438 -44.3251953125 547.200195312 -24.9140625 542.599609375 -16 c 132
 538.599609375 -8.2490234375 527.329101562 4 521.599609375 4 c 6
 519.200195312 4 l 5
EndSplineSet
EndChar

StartChar: si_DAae
Encoding: 257 -1 43
GlifName: si_D_A_ae
Width: 527
VWidth: 1000
Flags: HW
LayerCount: 2
Back
Fore
SplineSet
386.390625 143 m 1
 485.599609375 143 l 1
 485.802734375 116 l 1
 392 52.0009765625 l 1
 452.001953125 52 l 1
 452 25 l 21
 417.431630643 16.6468523887 348.042111764 -7.08408628223 326 -51 c 2
 299.3984375 -104 l 2
 291.852539062 -118.810546875 292.589851967 -130.890734869 296.799804688 -138.600585938 c 0
 300.776640004 -145.883519987 308.44921875 -151.802734375 331 -151.802734375 c 2
 457.999023438 -151.8046875 l 1
 458 -184 l 1
 312 -184 l 1
 275.599239027 -183.993227009 255.000976564 -158.020507812 255.000976562 -134 c 2
 255.000976562 -127 l 2
 255.00097656 -105.34765625 266.228658797 -86.0987330824 272 -75 c 2
 298 -25 l 2
 311.622166247 1.19647355164 368.860351562 26 368.860351562 26 c 1
 325.80859375 26 l 1
 337.590954702 50 l 1
 432 114.999023438 l 1
 371.650390625 115 l 1
 386.390625 143 l 1
316.193359375 143 m 1
 359.19140625 143 l 1
 244.98828125 -72.798828125 l 2
 230.872070312 -99.857421875 228.1953125 -112.267578125 228.1953125 -131.404296875 c 2
 228.1953125 -136 l 2
 228.1953125 -155.280273438 242.03125 -175.099609375 254 -184 c 1
 210.40234375 -184 l 1
 201.41796875 -181.561523438 188.194335938 -158.130859375 188.194335938 -133.793945312 c 2
 188.194335938 -125.201171875 l 2
 188.194335938 -100.756835938 204.375 -66.677734375 210.197265625 -55.599609375 c 2
 316.193359375 143 l 1
252.600585938 16 m 1
 244.18359375 4.6484375 242.442382812 0 187.598632812 0 c 2
 66.2001953125 0 l 2
 32.2001953125 0 22 17.92578125 22 49.599609375 c 2
 22 295.998046875 l 2
 22 336.654296875 43.1064453125 352.998046875 80 352.998046875 c 2
 366.795898438 352.998046875 l 1
 366.794921875 436 l 2
 366.794921875 457.28515625 358.271484375 465 340 465 c 2
 22 465 l 1
 22 497.000976562 l 1
 351 497 l 2
 384.564453125 497 404 480.913085938 404 444 c 2
 404 321.000976562 l 1
 91 321 l 2
 66.6044921875 321 59 311.276367188 59 290 c 2
 59 58.0009765625 l 2
 59 38.1591796875 67.0478515625 32 82.2001953125 32 c 2
 204.598632812 32 l 2
 258.559570312 32 277.233398438 69.8837890625 291.997070312 92 c 1
 252.600585938 16 l 1
EndSplineSet
EndChar

StartChar: si_DAe
Encoding: 256 -1 44
GlifName: si_D_A_e
Width: 525
VWidth: 1000
Flags: HW
LayerCount: 2
Back
Fore
SplineSet
435.983398438 143 m 1
 479.388671875 143 l 1
 359.189453125 -87 l 2
 353.331054688 -98.2099609375 344.151367188 -116.477539062 346.592773438 -131 c 0
 348.610351562 -143.002929688 356.930664062 -151.801757812 373.592773438 -151.801757812 c 2
 447.591796875 -151.803710938 l 1
 447.592773438 -184 l 1
 358.592773438 -184 l 1
 324.8359375 -183.974609375 304.59375 -157.020507812 304.59375 -133 c 2
 304.59375 -127 l 2
 304.59375 -105.34765625 315.77734375 -86.08203125 321.592773438 -75 c 2
 435.983398438 143 l 1
365.786132812 143 m 1
 408.784179688 143 l 1
 294.581054688 -72.798828125 l 2
 280.46484375 -99.857421875 277.788085938 -112.267578125 277.788085938 -131.404296875 c 2
 277.788085938 -136 l 2
 277.788085938 -155.280273438 291.624023438 -175.099609375 303.592773438 -184 c 1
 259.995117188 -184 l 1
 251.010742188 -181.561523438 237.787109375 -158.130859375 237.787109375 -133.793945312 c 2
 237.787109375 -125.201171875 l 2
 237.787109375 -100.756835938 253.967773438 -66.677734375 259.790039062 -55.599609375 c 2
 365.786132812 143 l 1
302.193359375 16 m 1
 293.776367188 4.6484375 292.03515625 0 237.19140625 0 c 2
 66.2001953125 0 l 2
 32.2001953125 0 22 17.92578125 22 49.599609375 c 2
 22 295.998046875 l 2
 22 336.654296875 43.1064453125 352.998046875 80 352.998046875 c 2
 366.795898438 352.998046875 l 1
 366.794921875 436 l 2
 366.794921875 457.28515625 358.271484375 465 340 465 c 2
 22 465 l 1
 22 497.000976562 l 1
 351 497 l 2
 384.564453125 497 404 480.913085938 404 444 c 2
 404 321.000976562 l 1
 91 321 l 2
 66.6044921875 321 59 311.276367188 59 290 c 2
 59 58.0009765625 l 2
 59 38.1591796875 67.0478515625 32 82.2001953125 32 c 2
 254.19140625 32 l 2
 308.15234375 32 326.826171875 69.8837890625 341.58984375 92 c 1
 302.193359375 16 l 1
EndSplineSet
EndChar

StartChar: si_DDdh.halant
Encoding: 487 -1 45
GlifName: si_D_D_dh.halant
Width: 671
VWidth: 0
Flags: HW
LayerCount: 2
Back
Fore
SplineSet
116.6015625 378.001953125 m 2
 76.890625 378.001953125 59 365.7421875 59 325.001953125 c 2
 59 0 l 1
 22 0 l 1
 22 337.001953125 l 2
 22 389.16796875 58.8515625 410.001953125 105.400390625 410.001953125 c 2
 281.614257812 410.001953125 l 1
 211.614257812 378.001953125 l 1
 116.6015625 378.001953125 l 2
EndSplineSet
Refer: 84 -1 N 1 0 0 1 160 0 2
EndChar

StartChar: si_DDhI
Encoding: 488 -1 46
GlifName: si_D_D_hI_
Width: 671
VWidth: 0
Flags: HW
LayerCount: 2
Back
Fore
SplineSet
116.6015625 378.001953125 m 6
 76.890625 378.001953125 59 365.7421875 59 325.001953125 c 6
 59 0 l 5
 22 0 l 5
 22 337.001953125 l 6
 22 389.16796875 58.8515625 410.001953125 105.400390625 410.001953125 c 6
 281.614257812 410.001953125 l 5
 211.614257812 378.001953125 l 5
 116.6015625 378.001953125 l 6
EndSplineSet
Refer: 85 -1 S 1 0 0 1 160 0 2
EndChar

StartChar: si_DDhIi
Encoding: 489 -1 47
GlifName: si_D_D_hI_i
Width: 671
VWidth: 0
Flags: HW
LayerCount: 2
Back
Fore
SplineSet
116.6015625 378.001953125 m 2
 76.890625 378.001953125 59 365.7421875 59 325.001953125 c 2
 59 0 l 1
 22 0 l 1
 22 337.001953125 l 2
 22 389.16796875 58.8515625 410.001953125 105.400390625 410.001953125 c 2
 281.614257812 410.001953125 l 1
 211.614257812 378.001953125 l 1
 116.6015625 378.001953125 l 2
EndSplineSet
Refer: 86 -1 N 1 0 0 1 160 0 2
EndChar

StartChar: si_DDha
Encoding: 438 -1 50
GlifName: si_D_D_ha
Width: 671
VWidth: 0
Flags: HW
LayerCount: 2
Back
Fore
SplineSet
116.6015625 465 m 2
 76.890625 465 59 452.739906784 59 412 c 2
 59 0 l 1
 22 0 l 1
 22 424 l 2
 22 476.166015625 58.8512667515 497 105.400390625 497 c 2
 281.614257812 497 l 1
 211.614257812 465 l 1
 116.6015625 465 l 2
EndSplineSet
Refer: 461 3504 N 1 0 0 1 160 0 2
EndChar

StartChar: si_DI
Encoding: 258 -1 51
GlifName: si_D_I_
Width: 460
VWidth: 0
Flags: HW
LayerCount: 2
Back
Fore
SplineSet
19.1943359375 511 m 5
 19.1943359375 595.802734375 l 6
 19.1943359375 625.796875 36.1103515625 640 63.1943359375 640 c 6
 362 640 l 6
 387.333007812 640 403 628.565429688 403 597 c 6
 403 511 l 5
 365.999023438 511 l 5
 365.999023438 587 l 6
 365.999023438 599.877929688 360.833984375 608.005859375 346 608.005859375 c 6
 74.2041015625 608.005859375 l 6
 61.08984375 608.005859375 56 600 56 588 c 6
 56 511 l 5
 19.1943359375 511 l 5
EndSplineSet
Refer: 460 3503 N 1 0 0 1 0 0 2
EndChar

StartChar: si_DIi
Encoding: 259 -1 52
GlifName: si_D_I_i
Width: 460
VWidth: 0
Flags: HW
LayerCount: 2
Back
Fore
SplineSet
245 608 m 6
 235 608 230 604 230 596 c 6
 230 556 l 6
 230 547.333007812 231.333007812 543 242 543 c 6
 355.807617188 543 l 6
 366.474609375 543 367.807617188 547.666992188 367.807617188 557 c 6
 367.807617188 592.196289062 l 6
 367.807617188 602.60546875 362.140625 608 350.807617188 608 c 6
 245 608 l 6
77.6005859375 608.0078125 m 14
 68 607 59 602 59 590 c 6
 59 511 l 5
 22.1943359375 511 l 5
 22.1943359375 595.802734375 l 6
 22.1943359375 625.796875 39.8056640625 640.010742188 67 640.010742188 c 6
 362.607421875 640.01171875 l 6
 390.407226562 640.01171875 404.806640625 626.66015625 404.806640625 600 c 6
 404.806640625 540.99609375 l 6
 404.806640625 521 394.804687497 510.996347033 374.806640625 510.99609375 c 6
 220.596679688 510.994140625 l 6
 197.321289062 510.994140625 192.796875 521.301757812 192.796875 537 c 6
 192.796875 600 l 6
 192.796875 604.53125 193.614257812 607.008789062 195.196289062 608 c 5
 77.6005859375 608.0078125 l 14
EndSplineSet
Refer: 460 3503 N 1 0 0 1 0 0 2
EndChar

StartChar: si_DRI
Encoding: 267 -1 53
GlifName: si_D_R_I_
Width: 458
VWidth: 1000
Flags: HW
LayerCount: 2
Back
Fore
SplineSet
19.1943359375 511 m 5
 19.1943359375 595.802734375 l 6
 19.1943359375 625.796875 36.1103515625 640 63.1943359375 640 c 6
 362 640 l 6
 387.333007812 640 403 628.565429688 403 597 c 6
 403 511 l 5
 365.999023438 511 l 5
 365.999023438 587 l 6
 365.999023438 599.877929688 360.833984375 608.005859375 346 608.005859375 c 6
 74.2041015625 608.005859375 l 6
 61.08984375 608.005859375 56 600 56 588 c 6
 56 511 l 5
 19.1943359375 511 l 5
EndSplineSet
Refer: 55 -1 N 1 0 0 1 0 0 2
EndChar

StartChar: si_DRIi
Encoding: 268 -1 54
GlifName: si_D_R_I_i
Width: 458
VWidth: 1000
Flags: HW
LayerCount: 2
Back
Fore
SplineSet
245 608 m 6
 235 608 230 604 230 596 c 6
 230 556 l 6
 230 547.333007812 231.333007812 543 242 543 c 6
 355.807617188 543 l 6
 366.474609375 543 367.807617188 547.666992188 367.807617188 557 c 6
 367.807617188 592.196289062 l 6
 367.807617188 602.60546875 362.140625 608 350.807617188 608 c 6
 245 608 l 6
77.6005859375 608.0078125 m 14
 68 607 59 602 59 590 c 6
 59 511 l 5
 22.1943359375 511 l 5
 22.1943359375 595.802734375 l 6
 22.1943359375 625.796875 39.8056640625 640.010742188 67 640.010742188 c 6
 362.607421875 640.01171875 l 6
 390.407226562 640.01171875 404.806640625 626.66015625 404.806640625 600 c 6
 404.806640625 540.99609375 l 6
 404.806640625 521 394.804687497 510.996347033 374.806640625 510.99609375 c 6
 220.596679688 510.994140625 l 6
 197.321289062 510.994140625 192.796875 521.301757812 192.796875 537 c 6
 192.796875 600 l 6
 192.796875 604.53125 193.614257812 607.008789062 195.196289062 608 c 5
 77.6005859375 608.0078125 l 14
EndSplineSet
Refer: 55 -1 N 1 0 0 1 0 0 2
EndChar

StartChar: si_DRa
Encoding: 266 -1 55
GlifName: si_D_R_a
Width: 458
VWidth: 1000
Flags: HW
LayerCount: 2
Back
Fore
SplineSet
22.1943359375 -21 m 1
 59 -21 l 1
 59 -98 l 2
 59 -110 64.08984375 -118.005859375 77.2041015625 -118.005859375 c 2
 351.002929688 -118.005859375 l 2
 365.836914062 -118.005859375 371.001953125 -109.876953125 371.001953125 -97 c 2
 371.001953125 5 l 1
 408.002929688 5 l 1
 408.002929688 -107 l 2
 408.002929688 -138.563476562 392.3359375 -150 367.002929688 -150 c 2
 66.1943359375 -150 l 2
 39.1103515625 -150 22.1943359375 -135.796875 22.1943359375 -105.802734375 c 2
 22.1943359375 -21 l 1
408 0.0009765625 m 1
 66.2001953125 0 l 2
 32.2001953125 -0 22 17.92578125 22 49.599609375 c 2
 22 295.998046875 l 2
 22 336.654296875 43.1064453125 352.998046875 80 352.998046875 c 2
 366.795898438 352.998046875 l 1
 366.794921875 436 l 2
 366.794921875 457.28515625 358.271484375 465 340 465 c 2
 22 465 l 1
 22 497.000976562 l 1
 351 497 l 2
 384.564453125 497 404 480.913085938 404 444 c 2
 404 321.000976562 l 1
 91 321 l 2
 66.6044921875 321 59 311.276367188 59 290 c 2
 59 58.0009765625 l 2
 59 38.1591796875 67.0478515625 32 82.2001953125 32 c 2
 408 32.0009765625 l 1
 408 0.0009765625 l 1
EndSplineSet
EndChar

StartChar: si_DU
Encoding: 260 -1 56
GlifName: si_D_U_
Width: 458
VWidth: 1000
Flags: HW
LayerCount: 2
Back
Fore
SplineSet
408.001953125 -159.000976562 m 29
 22.001953125 -159.000976562 l 29
 22.0009765625 -126.810546875 l 29
 371.008789062 -126.810546875 l 29
 371.008789062 10 l 29
 408.001953125 10 l 29
 408.001953125 -159.000976562 l 29
408 0.0009765625 m 5
 66.2001953125 0 l 6
 32.2001953125 -0 22 17.92578125 22 49.599609375 c 6
 22 295.998046875 l 6
 22 336.654296875 43.1064453125 352.998046875 80 352.998046875 c 6
 366.795898438 352.998046875 l 5
 366.794921875 436 l 6
 366.794921875 457.28515625 358.271484375 465 340 465 c 6
 22 465 l 5
 22 497.000976562 l 5
 351 497 l 6
 384.564453125 497 404 480.913085938 404 444 c 6
 404 321.000976562 l 5
 91 321 l 6
 66.6044921875 321 59 311.276367188 59 290 c 6
 59 58.0009765625 l 6
 59 38.1591796875 67.0478515625 32 82.2001953125 32 c 6
 408 32.0009765625 l 5
 408 0.0009765625 l 5
EndSplineSet
EndChar

StartChar: si_DUu
Encoding: 261 -1 57
GlifName: si_D_U_u
Width: 458
VWidth: 1000
Flags: HW
LayerCount: 2
Back
Fore
SplineSet
408.004882812 -158.999023438 m 1
 377.203125 -158.999023438 l 1
 372.002929688 -149.727539062 360.53515625 -138.131835938 352.806640625 -132.797851562 c 0
 342.635742188 -125.778320312 324.61328125 -119.993164062 305.802734375 -119.993164062 c 1
 279 -119.993164062 l 1
 261.341796875 -119.993164062 240.83984375 -127.5 228.411132812 -132.598632812 c 1
 180.802734375 -152.40234375 l 1
 165.130859375 -158.381835938 136.317382812 -162.8046875 102.005859375 -162.8046875 c 2
 70 -162.8046875 l 2
 37.5859375 -162.8046875 21.9990234375 -150.575195312 21.9990234375 -122.001953125 c 2
 21.9990234375 -29.0029296875 l 1
 58.796875 -29.0029296875 l 1
 58.796875 -112.604492188 l 2
 58.796875 -123.888671875 63.6650390625 -130.60546875 75.6015625 -130.60546875 c 2
 107.799804688 -130.60546875 l 2
 128.768554688 -130.60546875 154.595703125 -127.923828125 178 -119.001953125 c 1
 217.206054688 -103.399414062 l 1
 230.171875 -98.072265625 254.599609375 -91.595703125 276.795898438 -91.595703125 c 1
 310.013671875 -91.595703125 l 1
 331.706054688 -91.595703125 351.151367188 -97.3720703125 359.413085938 -102.80078125 c 0
 365.3671875 -106.712890625 366.053710938 -107.639648438 370.80078125 -112.400390625 c 1
 370.80078125 4 l 1
 383.999023438 4 l 2
 389.567382812 4 403.107421875 4.5947265625 408.004882812 17 c 1
 408.004882812 -158.999023438 l 1
408 0.0009765625 m 1
 66.2001953125 0 l 2
 32.2001953125 -0 22 17.92578125 22 49.599609375 c 2
 22 295.998046875 l 2
 22 336.654296875 43.1064453125 352.998046875 80 352.998046875 c 2
 366.795898438 352.998046875 l 1
 366.794921875 436 l 2
 366.794921875 457.28515625 358.271484375 465 340 465 c 2
 22 465 l 1
 22 497.000976562 l 1
 351 497 l 2
 384.564453125 497 404 480.913085938 404 444 c 2
 404 321.000976562 l 1
 91 321 l 2
 66.6044921875 321 59 311.276367188 59 290 c 2
 59 58.0009765625 l 2
 59 38.1591796875 67.0478515625 32 82.2001953125 32 c 2
 408 32.0009765625 l 1
 408 0.0009765625 l 1
EndSplineSet
EndChar

StartChar: si_DV.halant
Encoding: 492 -1 58
GlifName: si_D_V_.halant
Width: 675
VWidth: 0
Flags: HW
LayerCount: 2
Back
Fore
SplineSet
116.6015625 379.998046875 m 6
 76.890625 379.998046875 59 367.73828125 59 326.998046875 c 6
 59 0 l 5
 22 0 l 5
 22 338.998046875 l 6
 22 391.1640625 58.8515625 411.998046875 105.400390625 411.998046875 c 6
 281.614257812 411.998046875 l 5
 211.614257812 379.998046875 l 5
 116.6015625 379.998046875 l 6
EndSplineSet
Refer: 396 -1 S 1 0 0 1 166 0 2
EndChar

StartChar: si_DVI
Encoding: 493 -1 59
GlifName: si_D_V_I_
Width: 675
VWidth: 0
Flags: HW
LayerCount: 2
Back
Fore
SplineSet
116.6015625 379.998046875 m 2
 76.890625 379.998046875 59 367.73828125 59 326.998046875 c 2
 59 0 l 1
 22 0 l 1
 22 338.998046875 l 2
 22 391.1640625 58.8515625 411.998046875 105.400390625 411.998046875 c 2
 281.614257812 411.998046875 l 1
 211.614257812 379.998046875 l 1
 116.6015625 379.998046875 l 2
EndSplineSet
Refer: 397 -1 N 1 0 0 1 166 0 2
EndChar

StartChar: si_DVIi
Encoding: 494 -1 60
GlifName: si_D_V_I_i
Width: 675
VWidth: 0
Flags: HW
LayerCount: 2
Back
Fore
SplineSet
116.6015625 379.998046875 m 2
 76.890625 379.998046875 59 367.73828125 59 326.998046875 c 2
 59 0 l 1
 22 0 l 1
 22 338.998046875 l 2
 22 391.1640625 58.8515625 411.998046875 105.400390625 411.998046875 c 2
 281.614257812 411.998046875 l 1
 211.614257812 379.998046875 l 1
 116.6015625 379.998046875 l 2
EndSplineSet
Refer: 398 -1 N 1 0 0 1 166 0 2
EndChar

StartChar: si_DVa
Encoding: 439 -1 63
GlifName: si_D_V_a
Width: 675
VWidth: 0
Flags: HW
LayerCount: 2
Back
Fore
SplineSet
116.6015625 465 m 2
 76.890625 465 59 452.739906784 59 412 c 2
 59 0 l 1
 22 0 l 1
 22 424 l 2
 22 476.166015625 58.8512667515 497 105.400390625 497 c 2
 281.614257812 497 l 1
 211.614257812 465 l 1
 116.6015625 465 l 2
EndSplineSet
Refer: 473 3520 N 1 0 0 1 166 0 2
EndChar

StartChar: si_DYAa.post
Encoding: 270 -1 64
GlifName: si_D_Y_A_a.post
Width: 816
VWidth: 1000
Flags: HW
LayerCount: 2
Back
Fore
SplineSet
617 31.9970703125 m 1
 726 31.9970703125 l 2
 755.994140625 31.9970703125 767 17.083984375 767 -10 c 2
 767 -149.19921875 l 2
 767 -174.532226562 753.333007812 -187.19921875 726 -187.19921875 c 2
 617 -187.19921875 l 1
 617 -155.196289062 l 1
 714.000976562 -155.196289062 l 2
 726.87890625 -155.196289062 730 -148.87890625 730 -135.999023438 c 2
 730 -16.0029296875 l 2
 730 -4.669921875 725.6015625 0.9970703125 713.6015625 0.9970703125 c 2
 617 0.9970703125 l 1
 617 31.9970703125 l 1
415.211914062 -68.595703125 m 1
 415.213867188 -39.396484375 l 2
 415.21484375 14.576171875 442.431640625 32.0009765625 492.01171875 32 c 2
 588.193359375 31.9990234375 l 1
 588.193359375 0 l 1
 500.211914062 0 l 2
 460 0 452.197265625 -15.9654432823 452.197265625 -30 c 2
 452.197265625 -36.396484375 l 1
 516.193359375 -36.396484375 l 2
 570.984375 -36.396484375 588.211914062 -47.2607421875 588.211914062 -94 c 2
 588.211914062 -118 l 2
 588.211914062 -165.16015625 565.688476562 -187.999023438 521.211914062 -187.999023438 c 2
 433.814453125 -188 l 2
 396.842773438 -188 371.821289062 -186.555664062 336 -168 c 2
 291.201171875 -146 l 1
 258 -188 l 1
 218.997070312 -188 l 1
 325 -48 l 2
 339.107437852 -29.3680498727 338.989257812 -19.9658203125 338.989257812 -16.3984375 c 3
 338.989257812 -5.7548828125 332.255859375 0 321.58984375 0 c 2
 227.396484375 0 l 1
 227.396484375 31.9990234375 l 1
 323.989257812 32 l 2
 365.943359375 32 375.788085938 13.3935546875 375.788085938 -14 c 3
 375.788085938 -27.7265625 364.701453797 -48.3980616041 353 -64 c 2
 314 -116 l 1
 351 -136 l 2
 380.801499663 -152.108918737 404.713867188 -156 441.416015625 -156 c 2
 513.193359375 -156 l 2
 542.548828125 -156 551.198242188 -138.620117188 551.198242188 -112 c 2
 551.198242188 -100 l 2
 551.198242188 -67.2880859375 540.010742188 -68.595703125 510.193359375 -68.595703125 c 2
 415.211914062 -68.595703125 l 1
237 0 m 1
 180 0 123 -0 66 0 c 0
 32 0 22 17.9256114795 22 49.599609375 c 2
 22 295.998046875 l 2
 22 336.654296875 43.1064453125 352.998046875 80 352.998046875 c 2
 366.795898438 352.998046875 l 1
 366.794921875 436 l 2
 366.794921875 457.28515625 358.271484375 465 340 465 c 2
 22 465 l 1
 22 497.000976562 l 1
 351 497 l 2
 384.564453125 497 404 480.913085938 404 444 c 2
 404 321.000976562 l 1
 91 321 l 2
 66.6040831691 320.999923885 59 311.275979821 59 290 c 2
 59 58.0009765625 l 2
 59 38.1591796875 67.0478515625 32 82.2001953125 32 c 2
 237 32 l 1
 237 0 l 1
EndSplineSet
EndChar

StartChar: si_DYOo.post
Encoding: 273 -1 65
GlifName: si_D_Y_O_o.post
Width: 816
VWidth: 1000
Flags: HW
LayerCount: 2
Back
Fore
SplineSet
730.2109375 4 m 1
 730.2109375 631 l 1
 767.000976562 631 l 1
 767.000976562 -50 l 1
 764.634765625 -44.3251953125 758.2109375 -24.9140625 753.610351562 -16 c 128
 749.610351562 -8.2490234375 738.33984375 4 732.610351562 4 c 2
 730.2109375 4 l 1
617 31.9970703125 m 1
 726 31.9970703125 l 2
 755.994140625 31.9970703125 767 17.083984375 767 -10 c 2
 767 -149.19921875 l 2
 767 -174.532226562 753.333007812 -187.19921875 726 -187.19921875 c 2
 617 -187.19921875 l 1
 617 -155.196289062 l 1
 714.000976562 -155.196289062 l 2
 726.87890625 -155.196289062 730 -148.87890625 730 -135.999023438 c 2
 730 -16.0029296875 l 2
 730 -4.669921875 725.6015625 0.9970703125 713.6015625 0.9970703125 c 2
 617 0.9970703125 l 1
 617 31.9970703125 l 1
415.211914062 -68.595703125 m 1
 415.213867188 -39.396484375 l 2
 415.21484375 14.576171875 442.431640625 32.0009765625 492.01171875 32 c 2
 588.193359375 31.9990234375 l 1
 588.193359375 0 l 1
 500.211914062 0 l 2
 460 0 452.197265625 -15.9654432823 452.197265625 -30 c 2
 452.197265625 -36.396484375 l 1
 516.193359375 -36.396484375 l 2
 570.984375 -36.396484375 588.211914062 -47.2607421875 588.211914062 -94 c 2
 588.211914062 -118 l 2
 588.211914062 -165.16015625 565.688476562 -187.999023438 521.211914062 -187.999023438 c 2
 433.814453125 -188 l 2
 396.842773438 -188 371.821289062 -186.555664062 336 -168 c 2
 291.201171875 -146 l 1
 258 -188 l 1
 218.997070312 -188 l 1
 325 -48 l 2
 339.107437852 -29.3680498727 338.989257812 -19.9658203125 338.989257812 -16.3984375 c 3
 338.989257812 -5.7548828125 332.255859375 0 321.58984375 0 c 2
 227.396484375 0 l 1
 227.396484375 31.9990234375 l 1
 323.989257812 32 l 2
 365.943359375 32 375.788085938 13.3935546875 375.788085938 -14 c 3
 375.788085938 -27.7265625 364.701453797 -48.3980616041 353 -64 c 2
 314 -116 l 1
 351 -136 l 2
 380.801499663 -152.108918737 404.713867188 -156 441.416015625 -156 c 2
 513.193359375 -156 l 2
 542.548828125 -156 551.198242188 -138.620117188 551.198242188 -112 c 2
 551.198242188 -100 l 2
 551.198242188 -67.2880859375 540.010742188 -68.595703125 510.193359375 -68.595703125 c 2
 415.211914062 -68.595703125 l 1
237 0 m 1
 180 0 123 -0 66 0 c 0
 32 0 22 17.9256114795 22 49.599609375 c 2
 22 295.998046875 l 2
 22 336.654296875 43.1064453125 352.998046875 80 352.998046875 c 2
 366.795898438 352.998046875 l 1
 366.794921875 436 l 2
 366.794921875 457.28515625 358.271484375 465 340 465 c 2
 22 465 l 1
 22 497.000976562 l 1
 351 497 l 2
 384.564453125 497 404 480.913085938 404 444 c 2
 404 321.000976562 l 1
 91 321 l 2
 66.6040831691 320.999923885 59 311.275979821 59 290 c 2
 59 58.0009765625 l 2
 59 38.1591796875 67.0478515625 32 82.2001953125 32 c 2
 237 32 l 1
 237 0 l 1
EndSplineSet
EndChar

StartChar: si_DYUu.post
Encoding: 272 -1 66
GlifName: si_D_Y_U_u.post
Width: 614
VWidth: 1000
Flags: HW
LayerCount: 2
Back
Fore
SplineSet
588.19921875 -276 m 1
 557.397460938 -276 l 1
 552.197265625 -266.728515625 540.729492188 -255.1328125 533.000976562 -249.798828125 c 0
 522.830078125 -242.779296875 504.807617188 -236.994140625 485.997070312 -236.994140625 c 1
 468 -236.994140625 l 1
 450.341796875 -236.994140625 429.83984375 -244.500976562 417.411132812 -249.599609375 c 1
 369.802734375 -269.403320312 l 1
 354.130859375 -275.3828125 325.317382812 -279.805664062 291.005859375 -279.805664062 c 2
 267.203125 -279.805664062 l 6
 234.7890625 -279.805664062 219.202148438 -267.576171875 219.202148438 -239.002929688 c 6
 219.202148438 -208.599609375 l 5
 256 -208.599609375 l 5
 256 -229.60546875 l 6
 256 -240.889648438 260.868164062 -247.606445312 272.8046875 -247.606445312 c 6
 296.799804688 -247.606445312 l 2
 317.768554688 -247.606445312 343.595703125 -244.924804688 367 -236.002929688 c 1
 406.206054688 -219.799804688 l 1
 419.171875 -214.47265625 443.599609375 -204.993164062 465.795898438 -204.993164062 c 1
 490.208007812 -204.993164062 l 1
 513.8984375 -205 531.345703125 -212.772460938 539.607421875 -218.200195312 c 0
 545.561523438 -222.112304688 546.248046875 -222.23828125 550.995117188 -226.999023438 c 1
 550.995117188 -144.596679688 l 1
 564.193359375 -144.596679688 l 2
 569.76171875 -144.596679688 584.19921875 -130.596679688 588.19921875 -102.596679688 c 1
 588.19921875 -276 l 1
415.211914062 -68.595703125 m 1
 415.213867188 -39.396484375 l 2
 415.21484375 14.576171875 442.431640625 32.0009765625 492.01171875 32 c 2
 588.193359375 31.9990234375 l 1
 588.193359375 0 l 1
 500.211914062 0 l 2
 460 0 452.197265625 -15.9654432823 452.197265625 -30 c 2
 452.197265625 -36.396484375 l 1
 516.193359375 -36.396484375 l 2
 570.984375 -36.396484375 588.211914062 -47.2607421875 588.211914062 -94 c 2
 588.211914062 -118 l 2
 588.211914062 -165.16015625 565.688476562 -187.999023438 521.211914062 -187.999023438 c 2
 433.814453125 -188 l 2
 396.842773438 -188 371.821289062 -186.555664062 336 -168 c 2
 291.201171875 -146 l 1
 258 -188 l 1
 218.997070312 -188 l 1
 325 -48 l 2
 339.107437852 -29.3680498727 338.989257812 -19.9658203125 338.989257812 -16.3984375 c 3
 338.989257812 -5.7548828125 332.255859375 0 321.58984375 0 c 2
 227.396484375 0 l 1
 227.396484375 31.9990234375 l 1
 323.989257812 32 l 2
 365.943359375 32 375.788085938 13.3935546875 375.788085938 -14 c 3
 375.788085938 -27.7265625 364.701453797 -48.3980616041 353 -64 c 2
 314 -116 l 1
 351 -136 l 2
 380.801499663 -152.108918737 404.713867188 -156 441.416015625 -156 c 2
 513.193359375 -156 l 2
 542.548828125 -156 551.198242188 -138.620117188 551.198242188 -112 c 2
 551.198242188 -100 l 2
 551.198242188 -67.2880859375 540.010742188 -68.595703125 510.193359375 -68.595703125 c 2
 415.211914062 -68.595703125 l 1
237 0 m 1
 180 0 123 -0 66 0 c 0
 32 0 22 17.9256114795 22 49.599609375 c 2
 22 295.998046875 l 2
 22 336.654296875 43.1064453125 352.998046875 80 352.998046875 c 2
 366.795898438 352.998046875 l 1
 366.794921875 436 l 2
 366.794921875 457.28515625 358.271484375 465 340 465 c 2
 22 465 l 1
 22 497.000976562 l 1
 351 497 l 2
 384.564453125 497 404 480.913085938 404 444 c 2
 404 321.000976562 l 1
 91 321 l 2
 66.6040831691 320.999923885 59 311.275979821 59 290 c 2
 59 58.0009765625 l 2
 59 38.1591796875 67.0478515625 32 82.2001953125 32 c 2
 237 32 l 1
 237 0 l 1
EndSplineSet
EndChar

StartChar: si_DYa.post
Encoding: 269 -1 67
GlifName: si_D_Y_a.post
Width: 614
VWidth: 1000
Flags: HW
LayerCount: 2
Back
Fore
SplineSet
415.211914062 -68.595703125 m 1
 415.213867188 -39.396484375 l 2
 415.21484375 14.576171875 442.431640625 32.0009765625 492.01171875 32 c 2
 588.193359375 31.9990234375 l 1
 588.193359375 0 l 1
 500.211914062 0 l 2
 460 0 452.197265625 -15.9654432823 452.197265625 -30 c 2
 452.197265625 -36.396484375 l 1
 516.193359375 -36.396484375 l 2
 570.984375 -36.396484375 588.211914062 -47.2607421875 588.211914062 -94 c 2
 588.211914062 -118 l 2
 588.211914062 -165.16015625 565.688476562 -187.999023438 521.211914062 -187.999023438 c 2
 433.814453125 -188 l 2
 396.842773438 -188 371.821289062 -186.555664062 336 -168 c 2
 291.201171875 -146 l 1
 258 -188 l 1
 218.997070312 -188 l 1
 325 -48 l 2
 339.107437852 -29.3680498727 338.989257812 -19.9658203125 338.989257812 -16.3984375 c 3
 338.989257812 -5.7548828125 332.255859375 0 321.58984375 0 c 2
 227.396484375 0 l 1
 227.396484375 31.9990234375 l 1
 323.989257812 32 l 2
 365.943359375 32 375.788085938 13.3935546875 375.788085938 -14 c 3
 375.788085938 -27.7265625 364.701453797 -48.3980616041 353 -64 c 2
 314 -116 l 1
 351 -136 l 2
 380.801499663 -152.108918737 404.713867188 -156 441.416015625 -156 c 2
 513.193359375 -156 l 2
 542.548828125 -156 551.198242188 -138.620117188 551.198242188 -112 c 2
 551.198242188 -100 l 2
 551.198242188 -67.2880859375 540.010742188 -68.595703125 510.193359375 -68.595703125 c 2
 415.211914062 -68.595703125 l 1
237 0 m 1
 180 0 123 -0 66 0 c 0
 32 0 22 17.9256114795 22 49.599609375 c 2
 22 295.998046875 l 2
 22 336.654296875 43.1064453125 352.998046875 80 352.998046875 c 2
 366.795898438 352.998046875 l 1
 366.794921875 436 l 2
 366.794921875 457.28515625 358.271484375 465 340 465 c 2
 22 465 l 1
 22 497.000976562 l 1
 351 497 l 2
 384.564453125 497 404 480.913085938 404 444 c 2
 404 321.000976562 l 1
 91 321 l 2
 66.6040831691 320.999923885 59 311.275979821 59 290 c 2
 59 58.0009765625 l 2
 59 38.1591796875 67.0478515625 32 82.2001953125 32 c 2
 237 32 l 1
 237 0 l 1
EndSplineSet
EndChar

StartChar: si_DYu.post
Encoding: 271 -1 68
GlifName: si_D_Y_u.post
Width: 614
VWidth: 1000
Flags: HW
LayerCount: 2
Back
Fore
SplineSet
588.203125 -254 m 1
 232 -254 l 5
 232 -221.904296875 l 5
 551.115234375 -221.904296875 l 1
 551.115234375 -138.395507812 l 1
 556.115234375 -138.395507812 l 2
 564.577148438 -138.395507812 583.180664062 -135.98046875 588.203125 -119.395507812 c 1
 588.203125 -254 l 1
415.211914062 -68.595703125 m 1
 415.213867188 -39.396484375 l 2
 415.21484375 14.576171875 442.431640625 32.0009765625 492.01171875 32 c 2
 588.193359375 31.9990234375 l 1
 588.193359375 0 l 1
 500.211914062 0 l 2
 460 0 452.197265625 -15.9654432823 452.197265625 -30 c 2
 452.197265625 -36.396484375 l 1
 516.193359375 -36.396484375 l 2
 570.984375 -36.396484375 588.211914062 -47.2607421875 588.211914062 -94 c 2
 588.211914062 -118 l 2
 588.211914062 -165.16015625 565.688476562 -187.999023438 521.211914062 -187.999023438 c 2
 433.814453125 -188 l 2
 396.842773438 -188 371.821289062 -186.555664062 336 -168 c 2
 291.201171875 -146 l 1
 258 -188 l 1
 218.997070312 -188 l 1
 325 -48 l 2
 339.107437852 -29.3680498727 338.989257812 -19.9658203125 338.989257812 -16.3984375 c 3
 338.989257812 -5.7548828125 332.255859375 0 321.58984375 0 c 2
 227.396484375 0 l 1
 227.396484375 31.9990234375 l 1
 323.989257812 32 l 2
 365.943359375 32 375.788085938 13.3935546875 375.788085938 -14 c 3
 375.788085938 -27.7265625 364.701453797 -48.3980616041 353 -64 c 2
 314 -116 l 1
 351 -136 l 2
 380.801499663 -152.108918737 404.713867188 -156 441.416015625 -156 c 2
 513.193359375 -156 l 2
 542.548828125 -156 551.198242188 -138.620117188 551.198242188 -112 c 2
 551.198242188 -100 l 2
 551.198242188 -67.2880859375 540.010742188 -68.595703125 510.193359375 -68.595703125 c 2
 415.211914062 -68.595703125 l 1
237 0 m 1
 180 0 123 -0 66 0 c 0
 32 0 22 17.9256114795 22 49.599609375 c 2
 22 295.998046875 l 2
 22 336.654296875 43.1064453125 352.998046875 80 352.998046875 c 2
 366.795898438 352.998046875 l 1
 366.794921875 436 l 2
 366.794921875 457.28515625 358.271484375 465 340 465 c 2
 22 465 l 1
 22 497.000976562 l 1
 351 497 l 2
 384.564453125 497 404 480.913085938 404 444 c 2
 404 321.000976562 l 1
 91 321 l 2
 66.6040831691 320.999923885 59 311.275979821 59 290 c 2
 59 58.0009765625 l 2
 59 38.1591796875 67.0478515625 32 82.2001953125 32 c 2
 237 32 l 1
 237 0 l 1
EndSplineSet
EndChar

StartChar: si_Dd.halant
Encoding: 214 -1 70
GlifName: si_D_d.halant
Width: 513
VWidth: 0
Flags: HW
LayerCount: 2
Back
Fore
SplineSet
460 400 m 5
 422.799804688 400 l 5
 422.799804688 465 l 6
 422.799804688 505.98046875 410.364053106 518 375 518 c 6
 14 518 l 5
 14 550 l 5
 82 550 l 5
 52.6669921875 557.333007812 50 582.666992188 50 604 c 6
 50 632 l 6
 50 659.333333333 66.3333333333 673 99 673 c 6
 458 673 l 5
 458 641 l 5
 102.5 641 l 6
 87.53125 641 87 633.667282104 87 616 c 4
 87 573.677734375 97.3973370288 550 168 550 c 6
 383 550 l 6
 443.379036403 550 460 528.467891223 460 469 c 6
 460 400 l 5
-6 307.53515625 m 5
 130.57421875 307.53515625 l 5
 130.57421875 275.59765625 l 5
 -6 275.59765625 l 5
 -6 307.53515625 l 5
459.99609375 408 m 29
 459.99609375 50 l 6
 459.99609375 19.6376953125 446.39453125 0 412.998046875 0 c 6
 290.202148438 0 l 6
 264.2109375 0 246.166015625 8.126953125 241.202148438 28 c 5
 236.973632812 9.8193359375 217 0 194.202148438 0 c 6
 69.998046875 0 l 6
 33 0 22 16.2734375 22 54 c 6
 22 220.59765625 l 6
 22 241.432617188 29.91796875 264.532226562 51 276.59765625 c 5
 60.1591796875 290.213867188 61.9033203125 307.59765625 78 307.59765625 c 6
 207.374023438 307.59765625 l 5
 207.374023438 389.59765625 l 6
 207.374023438 412.577148438 194.637695312 419.59765625 171.374023438 419.59765625 c 6
 23 419.59765625 l 5
 23 451.59765625 l 5
 181.374023438 451.59765625 l 6
 222.70703125 451.59765625 243.374023438 432.59765625 243.374023438 394.59765625 c 6
 243.374023438 275.59765625 l 5
 126.57421875 275.59765625 l 6
 72.2763671875 275.59765625 59 242.59765625 58.875 206.59765625 c 22
 59 55.892578125 l 6
 59.0130045203 39.9638695529 65.7998046875 32 79.193359375 32 c 6
 182.399414062 32 l 6
 206 32 222.401367188 38.9306640625 222.401367188 78 c 6
 222.401367188 176.1953125 l 5
 259.3984375 176.1953125 l 5
 259.3984375 78.001953125 l 6
 259.3984375 39.5283203125 276.04296875 32 301.400390625 32 c 6
 395.3984375 32 l 6
 417.689453125 32 422.797851562 42.2314453125 422.797851562 62 c 6
 422.797851562 408.000976562 l 29
 459.99609375 408 l 29
EndSplineSet
EndChar

StartChar: si_DdI
Encoding: 215 -1 71
GlifName: si_D_dI_
Width: 513
VWidth: 0
Flags: HW
LayerCount: 2
Back
Fore
SplineSet
460 400 m 5
 422.799804688 400 l 5
 422.799804688 476 l 6
 422.799804688 499.380859375 416.126953125 509.5 391 509.5 c 6
 69 509.5 l 6
 37.6669921875 509.5 22 525.5 22 557.5 c 6
 22 620 l 6
 22 653.415199923 36.1038354598 672 72 672 c 6
 458.5 672 l 5
 458.5 640 l 5
 84 640 l 6
 63.0830078125 640 58.875 635.55848028 58.875 611 c 6
 58.875 566 l 6
 58.875 552.489578247 60.4326171875 541.5 83 541.5 c 6
 391 541.5 l 6
 447.814453125 541.5 460 524.084960938 460 466 c 6
 460 400 l 5
-6 307.53515625 m 5
 130.57421875 307.53515625 l 5
 130.57421875 275.59765625 l 5
 -6 275.59765625 l 5
 -6 307.53515625 l 5
459.99609375 408 m 29
 459.99609375 50 l 6
 459.99609375 19.6376953125 446.39453125 0 412.998046875 0 c 6
 290.202148438 0 l 6
 264.2109375 0 246.166015625 8.126953125 241.202148438 28 c 5
 236.973632812 9.8193359375 217 0 194.202148438 0 c 6
 69.998046875 0 l 6
 33 0 22 16.2734375 22 54 c 6
 22 220.59765625 l 6
 22 241.432617188 29.91796875 264.532226562 51 276.59765625 c 5
 60.1591796875 290.213867188 61.9033203125 307.59765625 78 307.59765625 c 6
 207.374023438 307.59765625 l 5
 207.374023438 389.59765625 l 6
 207.374023438 412.577148438 194.637695312 419.59765625 171.374023438 419.59765625 c 6
 23 419.59765625 l 5
 23 451.59765625 l 5
 181.374023438 451.59765625 l 6
 222.70703125 451.59765625 243.374023438 432.59765625 243.374023438 394.59765625 c 6
 243.374023438 275.59765625 l 5
 126.57421875 275.59765625 l 6
 72.2763671875 275.59765625 59 242.59765625 58.875 206.59765625 c 22
 59 55.892578125 l 6
 59.0130045203 39.9638695529 65.7998046875 32 79.193359375 32 c 6
 182.399414062 32 l 6
 206 32 222.401367188 38.9306640625 222.401367188 78 c 6
 222.401367188 176.1953125 l 5
 259.3984375 176.1953125 l 5
 259.3984375 78.001953125 l 6
 259.3984375 39.5283203125 276.04296875 32 301.400390625 32 c 6
 395.3984375 32 l 6
 417.689453125 32 422.797851562 42.2314453125 422.797851562 62 c 6
 422.797851562 408.000976562 l 29
 459.99609375 408 l 29
EndSplineSet
EndChar

StartChar: si_DdIi
Encoding: 216 -1 72
GlifName: si_D_dI_i
Width: 513
VWidth: 0
Flags: HW
LayerCount: 2
Back
Fore
SplineSet
422.799804688 405 m 5
 422.799804688 479.5 l 6
 422.799804688 497.690429688 405.682617188 509.5 387 509.5 c 2
 65 509.5 l 2
 35.1572265625 509.5 22 518.271484375 22 550.5 c 2
 22 618 l 2
 22 654.859629233 35.4108204097 672 72 672 c 2
 410 672 l 2
 446.587890625 672 460 654.858398438 460 618 c 2
 460 570 l 2
 460 547.837890625 450.686523438 532.870117188 433 528 c 1
 454.911132812 521.15234375 460 504.274414062 460 475 c 2
 460 405 l 1
 422.799804688 405 l 5
272 539 m 17
 260.918198095 542.511433308 254 550.291992188 254 567 c 2
 254 621 l 2
 254 633.107421875 260.500976562 638.25 264 640 c 1
 263.852539062 640 75.875 640 75.875 640 c 2
 64.5419921875 640 58.875 635.333007812 58.875 626 c 2
 58.875 554 l 2
 58.875 544 64.2080078125 539 74.875 539 c 2
 272 539 l 17
315 640 m 2
 299.450195312 640 291 630.698242188 291 616 c 2
 291 570.5 l 2
 291 551.6015625 307.266601562 545.5 324.5 545.5 c 2
 387 545.5 l 2
 403.344726562 545.5 423 550.392578125 423 577 c 2
 423 627.5 l 2
 423 636.697265625 415.693359375 640 408.5 640 c 2
 315 640 l 2
-6 307.53515625 m 1
 130.57421875 307.53515625 l 1
 130.57421875 275.59765625 l 1
 -6 275.59765625 l 1
 -6 307.53515625 l 1
459.99609375 408 m 25
 459.99609375 50 l 2
 459.99609375 19.6376953125 446.39453125 0 412.998046875 0 c 2
 290.202148438 0 l 2
 264.2109375 0 246.166015625 8.126953125 241.202148438 28 c 1
 236.973632812 9.8193359375 217 0 194.202148438 0 c 2
 69.998046875 0 l 2
 33 0 22 16.2734375 22 54 c 2
 22 220.59765625 l 2
 22 241.432617188 29.91796875 264.532226562 51 276.59765625 c 1
 60.1591796875 290.213867188 61.9033203125 307.59765625 78 307.59765625 c 2
 207.374023438 307.59765625 l 1
 207.374023438 389.59765625 l 2
 207.374023438 412.577148438 194.637695312 419.59765625 171.374023438 419.59765625 c 2
 23 419.59765625 l 1
 23 451.59765625 l 1
 181.374023438 451.59765625 l 2
 222.70703125 451.59765625 243.374023438 432.59765625 243.374023438 394.59765625 c 2
 243.374023438 275.59765625 l 1
 126.57421875 275.59765625 l 2
 72.2763671875 275.59765625 59 242.59765625 58.875 206.59765625 c 18
 59 55.892578125 l 2
 59.0130045203 39.9638695529 65.7998046875 32 79.193359375 32 c 2
 182.399414062 32 l 2
 206 32 222.401367188 38.9306640625 222.401367188 78 c 2
 222.401367188 176.1953125 l 1
 259.3984375 176.1953125 l 1
 259.3984375 78.001953125 l 2
 259.3984375 39.5283203125 276.04296875 32 301.400390625 32 c 2
 395.3984375 32 l 2
 417.689453125 32 422.797851562 42.2314453125 422.797851562 62 c 2
 422.797851562 408.000976562 l 25
 459.99609375 408 l 25
EndSplineSet
EndChar

StartChar: si_DdRI
Encoding: 221 -1 73
GlifName: si_D_dR_I_
Width: 513
VWidth: 0
Flags: HW
LayerCount: 2
Back
Fore
SplineSet
22.1943359375 -21 m 5
 22.1943359375 -105.802734375 l 6
 22.1943359375 -135.796875 39.1103515625 -150 66.1943359375 -150 c 6
 418.805664062 -150 l 6
 444.138671875 -150 459.805664062 -138.565429688 459.805664062 -107 c 6
 459.805664062 -21 l 5
 422.8046875 -21 l 5
 422.8046875 -97 l 6
 422.8046875 -109.877929688 417.639648438 -118.005859375 402.805664062 -118.005859375 c 6
 77.2041015625 -118.005859375 l 6
 64.08984375 -118.005859375 59 -110 59 -98 c 6
 59 -21 l 5
 22.1943359375 -21 l 5
EndSplineSet
Refer: 71 -1 N 1 0 0 1 0 0 2
EndChar

StartChar: si_DdRIi
Encoding: 222 -1 74
GlifName: si_D_dR_I_i
Width: 513
VWidth: 0
Flags: HW
LayerCount: 2
Back
Fore
SplineSet
22.1943359375 -21 m 1
 22.1943359375 -105.802734375 l 2
 22.1943359375 -135.796875 39.1103515625 -150 66.1943359375 -150 c 2
 418.805664062 -150 l 2
 444.138671875 -150 459.805664062 -138.565429688 459.805664062 -107 c 2
 459.805664062 -21 l 1
 422.8046875 -21 l 1
 422.8046875 -97 l 2
 422.8046875 -109.877929688 417.639648438 -118.005859375 402.805664062 -118.005859375 c 2
 77.2041015625 -118.005859375 l 2
 64.08984375 -118.005859375 59 -110 59 -98 c 2
 59 -21 l 1
 22.1943359375 -21 l 1
EndSplineSet
Refer: 72 -1 N 1 0 0 1 0 0 2
EndChar

StartChar: si_DdRa
Encoding: 220 -1 75
GlifName: si_D_dR_a
Width: 513
VWidth: 0
Flags: HW
LayerCount: 2
Back
Fore
SplineSet
22.1943359375 -21 m 5
 22.1943359375 -105.802734375 l 6
 22.1943359375 -135.796875 39.1103515625 -150 66.1943359375 -150 c 6
 418.805664062 -150 l 6
 444.138671875 -150 459.805664062 -138.565429688 459.805664062 -107 c 6
 459.805664062 -21 l 5
 422.8046875 -21 l 5
 422.8046875 -97 l 6
 422.8046875 -109.877929688 417.639648438 -118.005859375 402.805664062 -118.005859375 c 6
 77.2041015625 -118.005859375 l 6
 64.08984375 -118.005859375 59 -110 59 -98 c 6
 59 -21 l 5
 22.1943359375 -21 l 5
EndSplineSet
Refer: 454 3497 N 1 0 0 1 0 0 2
EndChar

StartChar: si_Dda.reph
Encoding: 219 -1 78
GlifName: si_D_da.reph
Width: 513
VWidth: 0
Flags: HW
LayerCount: 2
Back
Fore
SplineSet
208.997070312 659.59765625 m 5
 247 659.59765625 l 5
 247 566 l 6
 247 538.822265625 235.508789062 529 216 529 c 6
 116.606445312 529 l 6
 90.142578125 529 76.6064453125 542.895507812 76.6064453125 575 c 6
 76.6064453125 668.20703125 l 6
 76.6064453125 696.944335938 93.85546875 716.20703125 130.606445312 716.20703125 c 6
 322 716.20703125 l 6
 355.4453125 716.20703125 373 699.385742188 373 660.20703125 c 6
 373 533.602539062 l 5
 336.001953125 533.602539062 l 5
 336.001953125 655.805664062 l 6
 336.001953125 675.583007812 329.771484375 684.204101562 316 684.204101562 c 6
 135.606445312 684.204101562 l 6
 123.005859375 684.204101562 113.614257812 677.900390625 113.614257812 662.805664062 c 6
 113.614257812 580.598632812 l 6
 113.614257812 567.92578125 116.859375 560.390625 128.606445312 560.390625 c 6
 196.206054688 560.390625 l 6
 207.470703125 560.390625 208.997070312 565.723632812 208.997070312 576.390625 c 6
 208.997070312 659.59765625 l 5
EndSplineSet
Refer: 454 3497 N 1 0 0 1 0 0 2
EndChar

StartChar: si_Ddh.halant
Encoding: 223 -1 79
GlifName: si_D_dh.halant
Width: 513
VWidth: 1000
Flags: HW
LayerCount: 2
Back
Fore
SplineSet
423.196289062 708 m 1
 460.198242188 708 l 1
 460.198242188 480 l 1
 423.197265625 480 l 1
 423.196289062 708 l 1
165.3984375 631.999023438 m 1
 165.3984375 510.600585938 l 2
 165.3984375 490.330078125 171.32421875 488.216796875 191.197265625 488.216796875 c 2
 423.000976562 488.216796875 l 1
 423.000976562 494.198242188 l 2
 423.000976562 527.53125 400.630859375 538.494140625 377.197265625 550.399414062 c 2
 239.796875 621.801757812 l 2
 222.092773438 630.91796875 199.423828125 631.928710938 179.197265625 631.970703125 c 2
 165.3984375 631.999023438 l 1
459.999023438 456.21484375 m 1
 174.197265625 456.21484375 l 2
 140.908203125 456.21484375 128.4140625 467.186523438 128.4140625 503.600585938 c 2
 128.4140625 631.998046875 l 1
 59.615234375 631.998046875 l 1
 59.615234375 664 l 1
 180.997070312 664 l 2
 212.1875 664 230.674804688 663.333984375 266.197265625 645 c 2
 266.673828125 644.893554688 390.197265625 581 390.197265625 581 c 2
 426.604492188 565.041015625 459.999023438 546 460.197265625 494 c 2
 459.999023438 456.21484375 l 1
-6 274.7421875 m 1
 130.57421875 274.7421875 l 1
 130.57421875 242.8046875 l 1
 -6 242.8046875 l 1
 -6 274.7421875 l 1
422.797851562 461 m 25
 459.99609375 461 l 25
 459.99609375 50 l 2
 459.99609375 19.637880754 446.39453125 -4.08988976926e-15 412.998046875 0 c 2
 290.202148438 0 l 2
 264.2109375 0 246.166015625 8.126953125 241.202148438 28 c 1
 236.973632812 9.8193359375 217 0 194.202148438 0 c 2
 69.998046875 0 l 2
 33 0 22 16.2730356715 22 54 c 2
 22 187.8046875 l 2
 22 208.639648438 29.91796875 231.739257812 51 243.8046875 c 1
 60.1591796875 257.420898438 61.9033203125 274.8046875 78 274.8046875 c 2
 207.374023438 274.8046875 l 1
 207.374023438 356.8046875 l 2
 207.374023438 379.784179688 194.637695312 386.8046875 171.374023438 386.8046875 c 2
 23 386.8046875 l 1
 23 418.8046875 l 1
 181.374023438 418.8046875 l 2
 222.70703125 418.8046875 243.374023438 399.8046875 243.374023438 361.8046875 c 2
 243.374023438 242.8046875 l 1
 126.57421875 242.8046875 l 2
 72.2763671875 242.8046875 59 209.8046875 58.875 173.8046875 c 18
 59 55.892578125 l 2
 59.016885855 39.964203858 65.7998046875 32 79.193359375 32 c 2
 182.399414062 32 l 2
 206 32 222.401367188 38.9306640625 222.401367188 78 c 2
 222.401367188 147 l 1
 259.3984375 147 l 1
 259.3984375 78.001953125 l 2
 259.3984375 39.5283203125 276.04296875 32 301.400390625 32 c 2
 395.3984375 32 l 2
 417.689453125 32 422.797851562 42.2315735138 422.797851562 62 c 2
 422.797851562 461 l 25
EndSplineSet
EndChar

StartChar: si_DdhI
Encoding: 224 -1 80
GlifName: si_D_dhI_
Width: 513
VWidth: 1000
Flags: HW
LayerCount: 2
Back
Fore
SplineSet
232 454.005859375 m 5
 74 454.005859375 l 6
 36.62890625 454.005859375 22.001953125 473.567382812 22 505.392578125 c 6
 21.9912109375 614 l 6
 21.9887162856 646.531370013 41.085347748 672.004882812 87 672.004882812 c 6
 460.204101562 672.004882812 l 5
 460.204101562 640 l 5
 93 640 l 6
 70.5087615781 640 58.998046875 630.249921893 58.998046875 608 c 6
 58.998046875 514.997070312 l 6
 58.998046875 493.8359375 65.9365234375 486.000976562 83 486.000976562 c 6
 232.000976562 486.000976562 l 5
 232 454.005859375 l 5
261.430664062 555.984375 m 5
 261.430664062 466.182617188 l 6
 261.430664062 444.826171875 267.490234375 443.38671875 284 443.38671875 c 6
 423.002929688 443.38671875 l 5
 423.00390625 519.984375 l 6
 423.00390625 544.91015625 417.458984375 555.984375 386.001953125 555.984375 c 6
 261.430664062 555.984375 l 5
460 377.984375 m 5
 422.80078125 377.984375 l 5
 422.80078125 410.999023438 l 5
 269.997070312 410.999023438 l 6
 236.705078125 410.999023438 224.213867188 421.970703125 224.213867188 458.384765625 c 6
 224.213867188 556.984375 l 5
 158.596679688 556.984375 l 5
 158.596679688 587.984375 l 29
 393.999023438 587.984375 l 6
 441.55859375 587.984375 460 572.551757812 460 520.984375 c 6
 460 377.984375 l 5
-6 258.7265625 m 5
 130.57421875 258.7265625 l 5
 130.57421875 226.7890625 l 5
 -6 226.7890625 l 5
 -6 258.7265625 l 5
422.797851562 393.984375 m 29
 459.99609375 393.984375 l 29
 459.99609375 50 l 6
 459.99609375 19.6376953125 446.39453125 -0 412.998046875 0 c 6
 290.202148438 0 l 6
 264.2109375 0 246.166015625 8.126953125 241.202148438 28 c 5
 236.973632812 9.8193359375 217 0 194.202148438 0 c 6
 69.998046875 0 l 6
 33 0 22 16.2734375 22 54 c 6
 22 171.7890625 l 6
 22 192.624023438 29.91796875 215.723632812 51 227.7890625 c 5
 60.1591796875 241.405273438 61.9033203125 258.7890625 78 258.7890625 c 6
 207.374023438 258.7890625 l 5
 207.374023438 340.7890625 l 6
 207.374023438 363.768554688 194.637695312 370.7890625 171.374023438 370.7890625 c 6
 23 370.7890625 l 5
 23 402.7890625 l 5
 181.374023438 402.7890625 l 6
 222.70703125 402.7890625 243.374023438 383.7890625 243.374023438 345.7890625 c 6
 243.374023438 226.7890625 l 5
 126.57421875 226.7890625 l 6
 72.2763671875 226.7890625 59 193.7890625 58.875 157.7890625 c 22
 59 55.892578125 l 6
 59.0166015625 39.9638671875 65.7998046875 32 79.193359375 32 c 6
 182.399414062 32 l 6
 206 32 222.401367188 38.9306640625 222.401367188 78 c 6
 222.401367188 147 l 5
 259.3984375 147 l 5
 259.3984375 78.001953125 l 6
 259.3984375 39.5283203125 276.04296875 32 301.400390625 32 c 6
 395.3984375 32 l 6
 417.689453125 32 422.797851562 42.2314453125 422.797851562 62 c 6
 422.797851562 393.984375 l 29
EndSplineSet
EndChar

StartChar: si_DdhIi
Encoding: 225 -1 81
GlifName: si_D_dhI_i
Width: 513
VWidth: 1000
Flags: HW
LayerCount: 2
Back
Fore
SplineSet
282.002929688 640.00390625 m 6
 272.002929688 640.00390625 267.002929688 634 267.002929688 626 c 6
 267.002929688 607.587890625 l 6
 267.002929688 598.943969236 272.3359375 594.587890625 283.002929688 594.587890625 c 6
 406.796875 594.587890625 l 6
 417.463867188 594.587890625 422.796875 599.254882812 422.796875 608.587890625 c 6
 422.796875 628.00390625 l 6
 422.796875 636.00390625 417.129882812 640.00390625 405.796875 640.00390625 c 6
 282.002929688 640.00390625 l 6
232 421.982421875 m 5
 82 421.982421875 l 6
 45.353515625 421.982421875 32 442.982421875 32 472.982421875 c 6
 32 614 l 6
 32 648.254882812 50.5791015625 672 95 672 c 6
 417.3984375 672 l 6
 444.029296875 672 460.3984375 661.561523438 460.3984375 635 c 6
 460.3984375 599.588867188 l 6
 460.3984375 572.890625 446.689453125 562.588867188 416.3984375 562.588867188 c 6
 260 562.586914062 l 6
 239.514648438 562.586914062 230 571.303710938 230 587.588867188 c 6
 230 628 l 6
 230 634.507481522 231.583567373 637.821469237 234 640.001953125 c 5
 103 640.001953125 l 6
 81.493660655 640.001953125 69 631.435102715 69 611 c 6
 69 479.982421875 l 6
 69 459.985351562 75.8720703125 453.987304688 91 453.987304688 c 6
 232.001953125 453.987304688 l 5
 232 421.982421875 l 5
261.430664062 505.767578125 m 1
 261.430664062 432.950195312 l 2
 261.430664062 411.59375 267.490234375 410.154296875 284 410.154296875 c 2
 423.002929688 410.154296875 l 1
 423.00390625 469.767578125 l 2
 423.00390625 494.693359375 417.458984375 505.767578125 386.001953125 505.767578125 c 2
 261.430664062 505.767578125 l 1
460 344.751953125 m 1
 422.80078125 344.751953125 l 1
 422.80078125 377.766601562 l 1
 269.997070312 377.766601562 l 2
 236.705078125 377.766601562 224.213867188 388.73828125 224.213867188 425.15234375 c 2
 224.213867188 506.767578125 l 1
 158.596679688 506.767578125 l 1
 158.596679688 537.767578125 l 25
 393.999023438 537.767578125 l 2
 441.55859375 537.767578125 460 522.334960938 460 470.767578125 c 2
 460 344.751953125 l 1
-6 242.7109375 m 1
 130.57421875 242.7109375 l 1
 130.57421875 210.7734375 l 1
 -6 210.7734375 l 1
 -6 242.7109375 l 1
422.797851562 360.751953125 m 25
 459.99609375 360.751953125 l 25
 459.99609375 50 l 2
 459.99609375 19.6376953125 446.39453125 -0 412.998046875 0 c 2
 290.202148438 0 l 2
 264.2109375 0 246.166015625 8.126953125 241.202148438 28 c 1
 236.973632812 9.8193359375 217 0 194.202148438 0 c 2
 69.998046875 0 l 2
 33 0 22 16.2734375 22 54 c 2
 22 155.7734375 l 2
 22 176.608398438 29.91796875 199.708007812 51 211.7734375 c 1
 60.1591796875 225.389648438 61.9033203125 242.7734375 78 242.7734375 c 2
 207.374023438 242.7734375 l 1
 207.374023438 307.556640625 l 2
 207.374023438 330.536132812 194.637695312 337.556640625 171.374023438 337.556640625 c 2
 23 337.556640625 l 1
 23 369.556640625 l 1
 181.374023438 369.556640625 l 2
 222.70703125 369.556640625 243.374023438 350.556640625 243.374023438 312.556640625 c 2
 243.374023438 210.7734375 l 1
 126.57421875 210.7734375 l 2
 72.2763671875 210.7734375 59 177.7734375 58.875 141.7734375 c 18
 59 55.892578125 l 2
 59.0166015625 39.9638671875 65.7998046875 32 79.193359375 32 c 2
 182.399414062 32 l 2
 206 32 222.401367188 38.9306640625 222.401367188 78 c 2
 222.401367188 134.788085938 l 1
 259.3984375 134.788085938 l 1
 259.3984375 78.001953125 l 2
 259.3984375 39.5283203125 276.04296875 32 301.400390625 32 c 2
 395.3984375 32 l 2
 417.689453125 32 422.797851562 42.2314453125 422.797851562 62 c 2
 422.797851562 360.751953125 l 25
EndSplineSet
EndChar

StartChar: si_Dh.halant
Encoding: 274 -1 84
GlifName: si_D_h.halant
Width: 515
VWidth: 1000
Flags: HW
LayerCount: 2
Back
Fore
SplineSet
461.000976562 400 m 5
 423.600585938 400 l 5
 423.600585938 465 l 6
 423.600585938 505.98046875 411.365234375 518 376.000976562 518 c 6
 15.0009765625 518 l 5
 15.0009765625 550 l 5
 83.0009765625 550 l 5
 53.66796875 557.333007812 51.0009765625 582.666992188 51.0009765625 604 c 6
 51.0009765625 632 l 6
 51.0009765625 659.333007812 67.333984375 673 100.000976562 673 c 6
 459.000976562 673 l 5
 459.000976562 641 l 5
 103.500976562 641 l 6
 88.5322265625 641 88.0009765625 633.666992188 88.0009765625 616 c 4
 88.0009765625 573.677734375 98.3984375 550 169.000976562 550 c 6
 384.000976562 550 l 6
 444.379882812 550 461.000976562 528.467773438 461.000976562 469 c 6
 461.000976562 400 l 5
460.974609375 428 m 25
 460.974609375 50 l 2
 460.974609375 19.6376953125 447.373046875 0 413.9765625 0 c 2
 289.791015625 0 l 2
 263.791015625 0 247.45703125 12.3330078125 240.791015625 37 c 1
 237.6171875 16.3779296875 217.060546875 0 193.791015625 0 c 2
 69 0 l 2
 37.6095578425 0 22 15.0175781255 22 48 c 2
 22 345.002929688 l 2
 22 383.557617188 40.0205078125 410.002929688 81 410.002929688 c 2
 247.185546875 410.002929688 l 1
 247.186523438 377.8046875 l 1
 93 377.8046875 l 2
 66.38671875 377.8046875 59 363.440429688 59 342.002929688 c 2
 59 58 l 2
 59 42.2284315138 62.9557877295 32 82 32 c 2
 175.98828125 32 l 2
 215.1171875 32 221.98828125 65.5213582712 221.98828125 100.801757812 c 2
 221.98828125 229 l 1
 259.1875 229 l 1
 259.1875 101 l 2
 259.1875 66.1648564209 268.266601562 32 309.98828125 32 c 2
 401.9765625 32 l 2
 418.903320312 32 423.58203125 43.689453125 423.58203125 60 c 2
 423.58203125 428 l 25
 460.974609375 428 l 25
EndSplineSet
EndChar

StartChar: si_DhI
Encoding: 275 -1 85
GlifName: si_D_hI_
Width: 515
VWidth: 1000
Flags: HW
LayerCount: 2
Back
Fore
SplineSet
461.000976562 400 m 5
 423.600585938 400 l 5
 423.600585938 476 l 6
 423.600585938 499.380859375 417.127929688 509.5 392.000976562 509.5 c 6
 70.0009765625 509.5 l 6
 38.66796875 509.5 23.0009765625 525.5 23.0009765625 557.5 c 6
 23.0009765625 620 l 6
 23.0009765625 653.415039062 37.1044921875 672 73.0009765625 672 c 6
 459.500976562 672 l 5
 459.500976562 640 l 5
 85.0009765625 640 l 6
 64.083984375 640 59.8759765625 635.55859375 59.8759765625 611 c 6
 59.8759765625 566 l 6
 59.8759765625 552.489257812 61.43359375 541.5 84.0009765625 541.5 c 6
 392.000976562 541.5 l 6
 448.815429688 541.5 461.000976562 524.084960938 461.000976562 466 c 6
 461.000976562 400 l 5
460.974609375 428 m 25
 460.974609375 50 l 2
 460.974609375 19.6376953125 447.373046875 0 413.9765625 0 c 2
 289.791015625 0 l 2
 263.791015625 0 247.45703125 12.3330078125 240.791015625 37 c 1
 237.6171875 16.3779296875 217.060546875 0 193.791015625 0 c 2
 69 0 l 2
 37.6095578425 0 22 15.0175781255 22 48 c 2
 22 345.002929688 l 2
 22 383.557617188 40.0205078125 410.002929688 81 410.002929688 c 2
 247.185546875 410.002929688 l 1
 247.186523438 377.8046875 l 1
 93 377.8046875 l 2
 66.38671875 377.8046875 59 363.440429688 59 342.002929688 c 2
 59 58 l 2
 59 42.2284315138 62.9557877295 32 82 32 c 2
 175.98828125 32 l 2
 215.1171875 32 221.98828125 65.5213582712 221.98828125 100.801757812 c 2
 221.98828125 229 l 1
 259.1875 229 l 1
 259.1875 101 l 2
 259.1875 66.1648564209 268.266601562 32 309.98828125 32 c 2
 401.9765625 32 l 2
 418.903320312 32 423.58203125 43.689453125 423.58203125 60 c 2
 423.58203125 428 l 25
 460.974609375 428 l 25
EndSplineSet
EndChar

StartChar: si_DhIi
Encoding: 276 -1 86
GlifName: si_D_hI_i
Width: 515
VWidth: 1000
Flags: HW
LayerCount: 2
Back
Fore
SplineSet
423.600585938 405 m 5
 423.600585938 479.5 l 6
 423.600585938 497.690429688 406.68359375 509.5 388.000976562 509.5 c 6
 66.0009765625 509.5 l 6
 36.158203125 509.5 23.0009765625 518.271484375 23.0009765625 550.5 c 6
 23.0009765625 618 l 6
 23.0009765625 654.859375 36.4111328125 672 73.0009765625 672 c 6
 411.000976562 672 l 6
 447.588867188 672 461.000976562 654.858398438 461.000976562 618 c 6
 461.000976562 570 l 6
 461.000976562 547.837890625 451.6875 532.870117188 434.000976562 528 c 5
 455.912109375 521.15234375 461.000976562 504.274414062 461.000976562 475 c 6
 461.000976562 405 l 5
 423.600585938 405 l 5
273.000976562 539 m 21
 261.918945312 542.51171875 255.000976562 550.291992188 255.000976562 567 c 6
 255.000976562 621 l 6
 255.000976562 633.107421875 261.501953125 638.25 265.000976562 640 c 5
 264.853515625 640 76.8759765625 640 76.8759765625 640 c 6
 65.54296875 640 59.8759765625 635.333007812 59.8759765625 626 c 6
 59.8759765625 554 l 6
 59.8759765625 544 65.208984375 539 75.8759765625 539 c 6
 273.000976562 539 l 21
316.000976562 640 m 6
 300.451171875 640 292.000976562 630.698242188 292.000976562 616 c 6
 292.000976562 570.5 l 6
 292.000976562 551.6015625 308.267578125 545.5 325.500976562 545.5 c 6
 388.000976562 545.5 l 6
 404.345703125 545.5 424.000976562 550.392578125 424.000976562 577 c 6
 424.000976562 627.5 l 6
 424.000976562 636.697265625 416.694335938 640 409.500976562 640 c 6
 316.000976562 640 l 6
460.974609375 428 m 25
 460.974609375 50 l 2
 460.974609375 19.6376953125 447.373046875 0 413.9765625 0 c 2
 289.791015625 0 l 2
 263.791015625 0 247.45703125 12.3330078125 240.791015625 37 c 1
 237.6171875 16.3779296875 217.060546875 0 193.791015625 0 c 2
 69 0 l 2
 37.6095578425 0 22 15.0175781255 22 48 c 2
 22 345.002929688 l 2
 22 383.557617188 40.0205078125 410.002929688 81 410.002929688 c 2
 247.185546875 410.002929688 l 1
 247.186523438 377.8046875 l 1
 93 377.8046875 l 2
 66.38671875 377.8046875 59 363.440429688 59 342.002929688 c 2
 59 58 l 2
 59 42.2284315138 62.9557877295 32 82 32 c 2
 175.98828125 32 l 2
 215.1171875 32 221.98828125 65.5213582712 221.98828125 100.801757812 c 2
 221.98828125 229 l 1
 259.1875 229 l 1
 259.1875 101 l 2
 259.1875 66.1648564209 268.266601562 32 309.98828125 32 c 2
 401.9765625 32 l 2
 418.903320312 32 423.58203125 43.689453125 423.58203125 60 c 2
 423.58203125 428 l 25
 460.974609375 428 l 25
EndSplineSet
EndChar

StartChar: si_DhRI
Encoding: 281 -1 87
GlifName: si_D_hR_I_
Width: 512
VWidth: 0
Flags: HW
LayerCount: 2
Back
Fore
SplineSet
22.1943359375 -21 m 1
 22.1943359375 -105.802734375 l 2
 22.1943359375 -135.796875 39.1103515625 -150 66.1943359375 -150 c 2
 418.805664062 -150 l 2
 444.138671875 -150 459.805664062 -138.565429688 459.805664062 -107 c 2
 459.805664062 -21 l 1
 422.8046875 -21 l 1
 422.8046875 -97 l 2
 422.8046875 -109.877929688 417.639648438 -118.005859375 402.805664062 -118.005859375 c 2
 77.2041015625 -118.005859375 l 2
 64.08984375 -118.005859375 59 -110 59 -98 c 2
 59 -21 l 1
 22.1943359375 -21 l 1
EndSplineSet
Refer: 85 -1 N 1 0 0 1 0 0 2
EndChar

StartChar: si_DhRIi
Encoding: 282 -1 88
GlifName: si_D_hR_I_i
Width: 514
VWidth: 0
Flags: HW
LayerCount: 2
Back
Fore
SplineSet
22.1943359375 -21 m 1
 22.1943359375 -105.802734375 l 2
 22.1943359375 -135.796875 39.1103515625 -150 66.1943359375 -150 c 2
 418.805664062 -150 l 2
 444.138671875 -150 459.805664062 -138.565429688 459.805664062 -107 c 2
 459.805664062 -21 l 1
 422.8046875 -21 l 1
 422.8046875 -97 l 2
 422.8046875 -109.877929688 417.639648438 -118.005859375 402.805664062 -118.005859375 c 2
 77.2041015625 -118.005859375 l 2
 64.08984375 -118.005859375 59 -110 59 -98 c 2
 59 -21 l 1
 22.1943359375 -21 l 1
EndSplineSet
Refer: 86 -1 N 1 0 0 1 0 0 2
EndChar

StartChar: si_DhRa
Encoding: 280 -1 89
GlifName: si_D_hR_a
Width: 515
VWidth: 0
Flags: HW
LayerCount: 2
Back
Fore
SplineSet
22.1943359375 -21 m 5
 22.1943359375 -105.802734375 l 6
 22.1943359375 -135.796875 39.1103515625 -150 66.1943359375 -150 c 6
 418.805664062 -150 l 6
 444.138671875 -150 459.805664062 -138.565429688 459.805664062 -107 c 6
 459.805664062 -21 l 5
 422.8046875 -21 l 5
 422.8046875 -97 l 6
 422.8046875 -109.877929688 417.639648438 -118.005859375 402.805664062 -118.005859375 c 6
 77.2041015625 -118.005859375 l 6
 64.08984375 -118.005859375 59 -110 59 -98 c 6
 59 -21 l 5
 22.1943359375 -21 l 5
EndSplineSet
Refer: 461 3504 N 1 0 0 1 0 0 2
EndChar

StartChar: si_Dha.reph
Encoding: 279 -1 92
GlifName: si_D_ha.reph
Width: 515
VWidth: 0
Flags: HW
LayerCount: 2
Back
Fore
SplineSet
208.997070312 659.59765625 m 5
 247 659.59765625 l 5
 247 566 l 6
 247 538.822265625 235.508789062 529 216 529 c 6
 116.606445312 529 l 6
 90.142578125 529 76.6064453125 542.895507812 76.6064453125 575 c 6
 76.6064453125 668.20703125 l 6
 76.6064453125 696.944335938 93.85546875 716.20703125 130.606445312 716.20703125 c 6
 322 716.20703125 l 6
 355.4453125 716.20703125 373 699.385742188 373 660.20703125 c 6
 373 533.602539062 l 5
 336.001953125 533.602539062 l 5
 336.001953125 655.805664062 l 6
 336.001953125 675.583007812 329.771484375 684.204101562 316 684.204101562 c 6
 135.606445312 684.204101562 l 6
 123.005859375 684.204101562 113.614257812 677.900390625 113.614257812 662.805664062 c 6
 113.614257812 580.598632812 l 6
 113.614257812 567.92578125 116.859375 560.390625 128.606445312 560.390625 c 6
 196.206054688 560.390625 l 6
 207.470703125 560.390625 208.997070312 565.723632812 208.997070312 576.390625 c 6
 208.997070312 659.59765625 l 5
EndSplineSet
Refer: 461 3504 N 1 0 0 1 0 0 2
EndChar

StartChar: si_FI
Encoding: 421 -1 96
GlifName: si_F_I_
Width: 564
VWidth: 0
Flags: HW
LayerCount: 2
Back
Fore
SplineSet
22.1943359375 511 m 1
 22.1943359375 595.802734375 l 2
 22.1943359375 625.796875 39.1103515625 640 66.1943359375 640 c 2
 468.997070312 640 l 2
 494.330078125 640 509.997070312 628.565429688 509.997070312 597 c 2
 509.997070312 511 l 1
 472.99609375 511 l 1
 472.99609375 587 l 2
 472.99609375 599.877929688 467.831054688 608.005859375 452.997070312 608.005859375 c 2
 77.2041015625 608.005859375 l 2
 64.08984375 608.005859375 59 600 59 588 c 2
 59 511 l 1
 22.1943359375 511 l 1
EndSplineSet
Refer: 479 3526 N 1 0 0 1 0 0 2
EndChar

StartChar: si_FIi
Encoding: 422 -1 97
GlifName: si_F_I_i
Width: 564
VWidth: 0
Flags: HW
LayerCount: 2
Back
Fore
SplineSet
324.000976562 608 m 2
 314.000976562 608 309.000976562 604 309.000976562 596 c 2
 309.000976562 567.008789062 l 2
 309.000976562 558.341796875 310.333984375 554.008789062 321.000976562 554.008789062 c 2
 459.000976562 554.008789062 l 2
 469.66796875 554.008789062 471.000976562 558.67578125 471.000976562 568.008789062 c 2
 471.000976562 592.196289062 l 2
 471.000976562 602.60546875 465.333984375 608 454.000976562 608 c 2
 324.000976562 608 l 2
79.4072265625 608.0078125 m 2
 67.9599609375 608.0078125 60.005859375 602 60.005859375 590 c 2
 60.005859375 511 l 1
 23.2001953125 511 l 1
 23.2001953125 595.802734375 l 2
 23.2001953125 625.796875 40.8115234377 640.010675461 68.005859375 640.010742188 c 2
 466.000976562 640.01171875 l 2
 493.80078125 640.01171875 508 626.66015625 508 600 c 2
 508 552.004882812 l 2
 508 532.008789062 497.998046875 522.004882812 478 522.004882812 c 2
 299.59765625 522.002929688 l 2
 276.322265625 522.002929688 271.797851562 532.310546875 271.797851562 548.008789062 c 2
 271.797851562 600 l 2
 271.797851562 604.53125 272.615234375 607.008789062 274.197265625 608 c 1
 79.4072265625 608.0078125 l 2
EndSplineSet
Refer: 479 3526 N 1 0 0 1 0 0 2
EndChar

StartChar: si_FRI
Encoding: 427 -1 98
GlifName: si_F_R_I_
Width: 564
VWidth: 0
Flags: HW
LayerCount: 2
Back
Fore
SplineSet
23.1923828125 -21 m 5
 59.998046875 -21 l 5
 59.998046875 -98 l 6
 59.998046875 -110 65.087890625 -118.005859375 78.2021484375 -118.005859375 c 6
 453 -118.005859375 l 6
 467.833984375 -118.005859375 472.999023438 -109.877929688 472.999023438 -97 c 6
 472.999023438 -21 l 5
 510 -21 l 5
 510 -107 l 6
 510 -138.565429688 494.333007812 -150 469 -150 c 6
 67.1923828125 -150 l 6
 40.1083984375 -150 23.1923828125 -135.796875 23.1923828125 -105.802734375 c 6
 23.1923828125 -21 l 5
EndSplineSet
Refer: 96 -1 N 1 0 0 1 0 0 2
EndChar

StartChar: si_FRIi
Encoding: 428 -1 99
GlifName: si_F_R_I_i
Width: 564
VWidth: 0
Flags: HW
LayerCount: 2
Back
Fore
SplineSet
23.1923828125 -21 m 5
 59.998046875 -21 l 5
 59.998046875 -98 l 6
 59.998046875 -110 65.087890625 -118.005859375 78.2021484375 -118.005859375 c 6
 453 -118.005859375 l 6
 467.833984375 -118.005859375 472.999023438 -109.877929688 472.999023438 -97 c 6
 472.999023438 -21 l 5
 510 -21 l 5
 510 -107 l 6
 510 -138.565429688 494.333007812 -150 469 -150 c 6
 67.1923828125 -150 l 6
 40.1083984375 -150 23.1923828125 -135.796875 23.1923828125 -105.802734375 c 6
 23.1923828125 -21 l 5
EndSplineSet
Refer: 97 -1 N 1 0 0 1 0 0 2
EndChar

StartChar: si_FRa
Encoding: 426 -1 100
GlifName: si_F_R_a
Width: 564
VWidth: 0
Flags: HW
LayerCount: 2
Back
Fore
SplineSet
23.1923828125 -21 m 5
 59.998046875 -21 l 5
 59.998046875 -98 l 6
 59.998046875 -110 65.087890625 -118.005859375 78.2021484375 -118.005859375 c 6
 453 -118.005859375 l 6
 467.833984375 -118.005859375 472.999023438 -109.877929688 472.999023438 -97 c 6
 472.999023438 -21 l 5
 510 -21 l 5
 510 -107 l 6
 510 -138.565429688 494.333007812 -150 469 -150 c 6
 67.1923828125 -150 l 6
 40.1083984375 -150 23.1923828125 -135.796875 23.1923828125 -105.802734375 c 6
 23.1923828125 -21 l 5
EndSplineSet
Refer: 479 3526 N 1 0 0 1 0 0 2
EndChar

StartChar: si_FU
Encoding: 423 -1 101
GlifName: si_F_U_
Width: 564
VWidth: 0
Flags: HW
LayerCount: 2
Back
Fore
SplineSet
511 -159 m 5
 24.0009765625 -159 l 5
 24.0009765625 -126.904296875 l 5
 473.912109375 -126.904296875 l 5
 473.912109375 28 l 5
 478.912109375 28 l 6
 487.374023438 28 505.666992188 38 511 64 c 5
 511 -159 l 5
EndSplineSet
Refer: 479 3526 N 1 0 0 1 0 0 2
EndChar

StartChar: si_FUu
Encoding: 424 -1 102
GlifName: si_F_U_u
Width: 564
VWidth: 0
Flags: HW
LayerCount: 2
Back
Fore
SplineSet
511.000976562 -158.999023438 m 1
 480.19921875 -158.999023438 l 1
 474.999023438 -149.727539062 463.53125 -138.131835938 455.802734375 -132.797851562 c 0
 445.631835938 -125.778320312 427.609375 -119.993164062 408.798828125 -119.993164062 c 1
 333.000976562 -119.993164062 l 1
 315.342773438 -119.993164062 294.840820312 -127.5 282.412109375 -132.598632812 c 1
 234.803710938 -152.40234375 l 1
 219.131835938 -158.381835938 190.318359375 -162.8046875 156.006835938 -162.8046875 c 2
 71.2041015625 -162.8046875 l 2
 38.7900390625 -162.8046875 23.203125 -150.575195312 23.203125 -122.001953125 c 2
 23.203125 -29.0029296875 l 1
 60.0009765625 -29.0029296875 l 1
 60.0009765625 -112.604492188 l 2
 60.0009765625 -123.888671875 64.869140625 -130.60546875 76.8056640625 -130.60546875 c 2
 161.80078125 -130.60546875 l 2
 182.76953125 -130.60546875 208.596679688 -127.923828125 232.000976562 -119.001953125 c 1
 271.20703125 -103.399414062 l 1
 284.172851562 -98.072265625 308.600585938 -91.595703125 330.796875 -91.595703125 c 1
 413.009765625 -91.595703125 l 1
 434.702148438 -91.595703125 454.147460938 -97.3720703125 462.409179688 -102.80078125 c 0
 468.36328125 -106.712890625 469.049804688 -107.639648438 473.796875 -112.400390625 c 1
 473.796875 35 l 1
 486.995117188 35 l 2
 492.563476562 35 507.000976562 49 511.000976562 77 c 1
 511.000976562 -158.999023438 l 1
EndSplineSet
Refer: 479 3526 N 1 0 0 1 0 0 2
EndChar

StartChar: si_GDha
Encoding: 437 -1 105
GlifName: si_G_D_ha
Width: 886
VWidth: 1000
Flags: HW
LayerCount: 2
Back
Fore
SplineSet
470.9765625 497 m 25
 470.999023438 465 l 25
 328.997070312 465 l 2
 300.491210938 465 290.479492188 454.046875 286.997070312 435 c 2
 259.575195312 285 l 1
 283.583007812 285 l 2
 308.25 285 320.583007812 270.666992188 320.583007812 242 c 2
 320.583007812 60 l 2
 320.583007812 12.607421875 301.182617188 0 253.583007812 0 c 2
 70 0 l 2
 33.361328125 0 22 19.0517578125 22 56 c 2
 22 441.999023438 l 2
 22 478.666015625 40.3330078172 496.998703727 77 496.999023438 c 2
 185.997070312 497 l 1
 185.997070312 465 l 1
 88.806640625 464.999023438 l 2
 65.9169921899 464.998800337 59.00390625 459.095703125 59.00390625 435.999023438 c 2
 59 59.80078125 l 2
 59 40.587890625 62.9167999542 32 82 32 c 2
 246.997070312 32 l 2
 274.131835938 32 283.583007812 37.6572265625 283.583007812 64 c 2
 283.583007812 231.99609375 l 2
 283.583007812 245.99609375 279.143554688 252.99609375 264.997070312 252.99609375 c 2
 218.583007812 252.99609375 l 1
 252.583007812 446 l 2
 258.583007812 480 282.583007812 497 324.583007812 497 c 2
 470.9765625 497 l 25
EndSplineSet
Refer: 461 3504 N 1 0 0 1 375 0 2
EndChar

StartChar: si_Gh.halant
Encoding: 119 -1 115
GlifName: si_G_h.halant
Width: 562
VWidth: 0
Flags: HW
LayerCount: 2
Back
Fore
SplineSet
472.200195312 492 m 1
 472.200195312 649 l 1
 508.990234375 649 l 1
 508.990234375 468 l 1
 506.624023438 473.674804688 500.386397025 478.212729546 493 485 c 128
 489.790284805 487.949368282 480.329101562 492 474.599609375 492 c 2
 472.200195312 492 l 1
EndSplineSet
Refer: 442 3485 N 1 0 0 1 0 0 2
EndChar

StartChar: si_GhI
Encoding: 120 -1 116
GlifName: si_G_hI_
Width: 562
VWidth: 0
Flags: HW
LayerCount: 2
Back
Fore
SplineSet
22.1943359375 511 m 5
 22.1943359375 595.802734375 l 6
 22.1943359375 625.796875 39.1103515625 640 66.1943359375 640 c 6
 466 640 l 6
 491.332395515 640 507 628.565429688 507 597 c 6
 507 511 l 5
 469.999023438 511 l 5
 469.999023438 587 l 6
 469.999023438 599.877929688 464.833573031 608.005859375 450 608.005859375 c 6
 77.2041015625 608.005859375 l 6
 64.08984375 608.005859375 59 600 59 588 c 6
 59 511 l 5
 22.1943359375 511 l 5
EndSplineSet
Refer: 442 3485 N 1 0 0 1 0 0 2
EndChar

StartChar: si_GhIi
Encoding: 121 -1 117
GlifName: si_G_hI_i
Width: 562
VWidth: 0
Flags: HW
LayerCount: 2
Back
Fore
SplineSet
324.807617188 608 m 2
 314.807617188 608 309.807617188 604 309.807617188 596 c 2
 309.807617188 556 l 2
 309.807617188 547.333007812 311.140625 543 321.807617188 543 c 2
 459.807617188 543 l 2
 470.474609375 543 471.807617188 547.666992188 471.807617188 557 c 2
 471.807617188 592.196289062 l 2
 471.807617188 602.60546875 466.140625 608 454.807617188 608 c 2
 324.807617188 608 l 2
78.201171875 608.0078125 m 2
 66.75390625 608.0078125 59 602 59 590 c 2
 59 511 l 1
 22.1943359375 511 l 1
 22.1943359375 595.802734375 l 2
 22.1943359375 625.796875 39.8056640625 640.010742188 67 640.010742188 c 2
 466.807617188 640.01171875 l 2
 494.607421875 640.011786653 508.806640625 626.66015625 508.806640625 600 c 2
 508.806640625 540.99609375 l 2
 508.806640625 521 498.8046875 510.99609375 478.806640625 510.99609375 c 2
 300.404296875 510.994140625 l 2
 277.12890625 510.994140625 272.604492188 521.301757812 272.604492188 537 c 2
 272.604492188 600 l 2
 272.604492188 604.53125 273.421875 607.008789062 275.00390625 608 c 1
 78.201171875 608.0078125 l 2
EndSplineSet
Refer: 442 3485 N 1 0 0 1 0 0 2
EndChar

StartChar: si_GhRI
Encoding: 125 -1 118
GlifName: si_G_hR_I_
Width: 562
VWidth: 0
Flags: HW
LayerCount: 2
Back
Fore
SplineSet
22.1943359375 -21 m 5
 22.1943359375 -105.802734375 l 6
 22.1943359375 -135.796875 39.1103515625 -150 66.1943359375 -150 c 6
 467.202148438 -150 l 6
 492.53515625 -150 508.202148438 -138.565429688 508.202148438 -107 c 6
 508.202148438 -21 l 5
 471.201171875 -21 l 5
 471.201171875 -97 l 6
 471.201171875 -109.877929688 466.036132812 -118.005859375 451.202148438 -118.005859375 c 6
 77.2041015625 -118.005859375 l 6
 64.08984375 -118.005859375 59 -110 59 -98 c 6
 59 -21 l 5
 22.1943359375 -21 l 5
EndSplineSet
Refer: 116 -1 N 1 0 0 1 0 0 2
EndChar

StartChar: si_GhRIi
Encoding: 126 -1 119
GlifName: si_G_hR_I_i
Width: 677
VWidth: 0
Flags: HW
LayerCount: 2
Back
Fore
SplineSet
22.1943359375 -21 m 1
 22.1943359375 -105.802734375 l 2
 22.1943359375 -135.796875 39.1103515625 -150 66.1943359375 -150 c 2
 467.202148438 -150 l 2
 492.53515625 -150 508.202148438 -138.565429688 508.202148438 -107 c 2
 508.202148438 -21 l 1
 471.201171875 -21 l 1
 471.201171875 -97 l 2
 471.201171875 -109.877929688 466.036132812 -118.005859375 451.202148438 -118.005859375 c 2
 77.2041015625 -118.005859375 l 2
 64.08984375 -118.005859375 59 -110 59 -98 c 2
 59 -21 l 1
 22.1943359375 -21 l 1
EndSplineSet
Refer: 117 -1 S 1 0 0 1 0 0 2
EndChar

StartChar: si_GhRa
Encoding: 127 -1 120
GlifName: si_G_hR_a
Width: 562
VWidth: 0
Flags: HW
LayerCount: 2
Back
Fore
SplineSet
22.1943359375 -21 m 5
 22.1943359375 -105.802734375 l 6
 22.1943359375 -135.796875 39.1103515625 -150 66.1943359375 -150 c 6
 467.202148438 -150 l 6
 492.53515625 -150 508.202148438 -138.565429688 508.202148438 -107 c 6
 508.202148438 -21 l 5
 471.201171875 -21 l 5
 471.201171875 -97 l 6
 471.201171875 -109.877929688 466.036132812 -118.005859375 451.202148438 -118.005859375 c 6
 77.2041015625 -118.005859375 l 6
 64.08984375 -118.005859375 59 -110 59 -98 c 6
 59 -21 l 5
 22.1943359375 -21 l 5
EndSplineSet
Refer: 442 3485 N 1 0 0 1 0 0 2
EndChar

StartChar: si_GhU
Encoding: 122 -1 121
GlifName: si_G_hU_
Width: 562
VWidth: 0
Flags: HW
LayerCount: 2
Back
Fore
SplineSet
510.00390625 -159 m 1
 22 -159 l 5
 22 -126.904296875 l 5
 472.916015625 -126.904296875 l 1
 472.916015625 28 l 1
 477.916015625 28 l 2
 486.377929688 28 504.670898438 38 510.00390625 64 c 1
 510.00390625 -159 l 1
EndSplineSet
Refer: 442 3485 N 1 0 0 1 0 0 2
EndChar

StartChar: si_GhUu
Encoding: 123 -1 122
GlifName: si_G_hU_u
Width: 562
VWidth: 0
Flags: HW
LayerCount: 2
Back
Fore
SplineSet
510 -158.999023438 m 5
 479.198242188 -158.999023438 l 5
 473.998046875 -149.727539062 462.530273438 -138.131835938 454.801757812 -132.797851562 c 4
 444.630859375 -125.778320312 426.608398438 -119.993164062 407.797851562 -119.993164062 c 5
 325 -119.993164062 l 5
 307.341796875 -119.993164062 286.83984375 -127.5 274.411132812 -132.598632812 c 5
 226.802734375 -152.40234375 l 5
 211.130859375 -158.381835938 182.317382812 -162.8046875 148.005859375 -162.8046875 c 6
 70.203125 -162.8046875 l 6
 37.7890625 -162.8046875 22.2021484375 -150.575195312 22.2021484375 -122.001953125 c 6
 22.2021484375 -29.0029296875 l 5
 59 -29.0029296875 l 5
 59 -112.604492188 l 6
 59 -123.888671875 63.8681640625 -130.60546875 75.8046875 -130.60546875 c 6
 153.799804688 -130.60546875 l 6
 174.768554688 -130.60546875 200.595703125 -127.923828125 224 -119.001953125 c 5
 263.206054688 -103.399414062 l 5
 276.171875 -98.072265625 300.599609375 -91.595703125 322.795898438 -91.595703125 c 5
 412.008789062 -91.595703125 l 5
 433.701171875 -91.595703125 453.146484375 -97.3720703125 461.408203125 -102.80078125 c 4
 467.362304688 -106.712890625 468.048828125 -107.639648438 472.795898438 -112.400390625 c 5
 472.795898438 35 l 5
 485.994140625 35 l 6
 491.5625 35 506 49 510 77 c 5
 510 -158.999023438 l 5
EndSplineSet
Refer: 442 3485 N 1 0 0 1 0 0 2
EndChar

StartChar: si_HU
Encoding: 410 -1 129
GlifName: si_H_U_
Width: 590
VWidth: 0
Flags: HW
LayerCount: 2
Back
Fore
SplineSet
537.999023438 -159 m 1
 24.796875 -159 l 1
 24.796875 -126.904296875 l 1
 500.911132812 -126.904296875 l 1
 500.911132812 35.8076171875 l 1
 505.911132812 35.8076171875 l 2
 514.373046875 35.8076171875 532.666015625 45.8076171875 537.999023438 71.8076171875 c 1
 537.999023438 -159 l 1
EndSplineSet
Refer: 477 3524 N 1 0 0 1 0 0 2
EndChar

StartChar: si_HUu
Encoding: 411 -1 130
GlifName: si_H_U_u
Width: 590
VWidth: 0
Flags: HW
LayerCount: 2
Back
Fore
SplineSet
538 -158.999023438 m 1
 507.198242188 -158.999023438 l 1
 501.998046875 -149.727539062 490.530273438 -138.131835938 482.801757812 -132.797851562 c 0
 472.630859375 -125.778320312 454.608398438 -119.993164062 435.797851562 -119.993164062 c 1
 342 -119.993164062 l 1
 324.341796875 -119.993164062 303.83984375 -127.5 291.411132812 -132.598632812 c 1
 243.802734375 -152.40234375 l 1
 228.130859375 -158.381835938 199.317382812 -162.8046875 165.005859375 -162.8046875 c 2
 71 -162.8046875 l 2
 38.5859375 -162.8046875 22.9990234375 -150.575195312 22.9990234375 -122.001953125 c 2
 22.9990234375 -29.0029296875 l 1
 59.796875 -29.0029296875 l 1
 59.796875 -112.604492188 l 2
 59.796875 -123.888671875 64.6650390625 -130.60546875 76.6015625 -130.60546875 c 2
 170.799804688 -130.60546875 l 2
 191.768554688 -130.60546875 217.595703125 -127.923828125 241 -119.001953125 c 1
 280.206054688 -103.399414062 l 1
 293.171875 -98.072265625 317.599609375 -91.595703125 339.795898438 -91.595703125 c 1
 440.008789062 -91.595703125 l 1
 461.701171875 -91.595703125 481.146484375 -97.3720703125 489.408203125 -102.80078125 c 0
 495.362304688 -106.712890625 496.048828125 -107.639648438 500.795898438 -112.400390625 c 1
 500.795898438 35 l 1
 513.994140625 35 l 2
 519.5625 35 534 49 538 77 c 1
 538 -158.999023438 l 1
EndSplineSet
Refer: 477 3524 N 1 0 0 1 0 0 2
EndChar

StartChar: si_J.halant
Encoding: 150 -1 132
GlifName: si_J_.halant
Width: 512
VWidth: 0
Flags: HW
LayerCount: 2
Back
Fore
SplineSet
265.004882812 435.98828125 m 5
 265.004882812 649 l 5
 302.1953125 649 l 5
 302.1953125 421 l 5
 296.2890625 426.786132812 275.18359375 435.98828125 265.004882812 435.98828125 c 5
EndSplineSet
Refer: 447 3490 N 1 0 0 1 0 0 2
EndChar

StartChar: si_JI
Encoding: 151 -1 133
GlifName: si_J_I_
Width: 512
VWidth: 0
Flags: HW
LayerCount: 2
Back
Fore
SplineSet
40 511.604492188 m 5
 77.001953125 511.604492188 l 5
 77.001953125 581 l 6
 77.001953125 603.366028623 89.4218321175 610.998046875 111 610.998046875 c 6
 380 610.998046875 l 5
 416 642.990234375 l 5
 98.7978515625 642.989257812 l 6
 68.6699218753 642.989165058 40 624.453125 40 590.990234375 c 6
 40 511.604492188 l 5
EndSplineSet
Refer: 447 3490 N 1 0 0 1 0 0 2
EndChar

StartChar: si_JIi
Encoding: 152 -1 134
GlifName: si_J_I_i
Width: 512
VWidth: 0
Flags: HW
LayerCount: 2
Back
Fore
SplineSet
211.625976562 601 m 6
 211.625976562 568 l 6
 211.625976562 561.115234375 214.416992188 557.19921875 224.653320312 557.19921875 c 6
 273.653320312 557.19921875 l 6
 286.080078125 557.19921875 286.65234375 562.6953125 286.65234375 570 c 6
 286.65234375 594 l 6
 286.65234375 604.651367188 283.766601562 612.240234375 271.653320312 612.240234375 c 6
 225 612.240234375 l 6
 214.658203125 612.240234375 211.625976562 605.666992188 211.625976562 601 c 6
292 525 m 6
 197.653320312 525 l 6
 184.4609375 525 174.653320312 531.4921875 174.653320312 548 c 6
 174.653320312 605 l 6
 174.653320312 608 175.96484375 611.219726562 177.653320312 613.201171875 c 5
 98 613.201171875 l 6
 83.1412138725 613.201171875 77.001953125 604 77.001953125 592 c 6
 77.001953125 507 l 5
 40 507 l 5
 40 600.791992188 l 6
 40 625.454101562 61.7109375 644.791992188 86 644.791992188 c 6
 279.653320312 644.791992188 l 6
 305.084960938 644.791992188 323.718060943 631.849598502 323.841796875 599 c 6
 324 557 l 14
 324 540 311.090188767 525 292 525 c 6
EndSplineSet
Refer: 447 3490 N 1 0 0 1 0 0 2
EndChar

StartChar: si_JRI
Encoding: 157 -1 135
GlifName: si_J_R_I_
Width: 512
VWidth: 0
Flags: HW
LayerCount: 2
Back
Fore
SplineSet
22.1943359375 -21 m 5
 22.1943359375 -105.802734375 l 6
 22.1943359375 -135.796875 39.1103515625 -150 66.1943359375 -150 c 6
 418.802734375 -150 l 6
 444.135742188 -150 459.802734375 -138.565429688 459.802734375 -107 c 6
 459.802734375 -21 l 5
 422.801757812 -21 l 5
 422.801757812 -97 l 6
 422.801757812 -109.877929688 417.63671875 -118.005859375 402.802734375 -118.005859375 c 6
 77.2041015625 -118.005859375 l 6
 64.08984375 -118.005859375 59 -110 59 -98 c 6
 59 -21 l 5
 22.1943359375 -21 l 5
EndSplineSet
Refer: 133 -1 N 1 0 0 1 0 0 2
EndChar

StartChar: si_JRIi
Encoding: 158 -1 136
GlifName: si_J_R_I_i
Width: 512
VWidth: 0
Flags: HW
LayerCount: 2
Back
Fore
SplineSet
22.1943359375 -21 m 5
 22.1943359375 -105.802734375 l 6
 22.1943359375 -135.796875 39.1103515625 -150 66.1943359375 -150 c 6
 418.802734375 -150 l 6
 444.135742188 -150 459.802734375 -138.565429688 459.802734375 -107 c 6
 459.802734375 -21 l 5
 422.801757812 -21 l 5
 422.801757812 -97 l 6
 422.801757812 -109.877929688 417.63671875 -118.005859375 402.802734375 -118.005859375 c 6
 77.2041015625 -118.005859375 l 6
 64.08984375 -118.005859375 59 -110 59 -98 c 6
 59 -21 l 5
 22.1943359375 -21 l 5
EndSplineSet
Refer: 134 -1 N 1 0 0 1 0 0 2
EndChar

StartChar: si_JRa
Encoding: 156 -1 137
GlifName: si_J_R_a
Width: 512
VWidth: 0
Flags: HW
LayerCount: 2
Back
Fore
SplineSet
22.1943359375 -21 m 5
 22.1943359375 -105.802734375 l 6
 22.1943359375 -135.796875 39.1103515625 -150 66.1943359375 -150 c 6
 418.802734375 -150 l 6
 444.135742188 -150 459.802734375 -138.565429688 459.802734375 -107 c 6
 459.802734375 -21 l 5
 422.801757812 -21 l 5
 422.801757812 -97 l 6
 422.801757812 -109.877929688 417.63671875 -118.005859375 402.802734375 -118.005859375 c 6
 77.2041015625 -118.005859375 l 6
 64.08984375 -118.005859375 59 -110 59 -98 c 6
 59 -21 l 5
 22.1943359375 -21 l 5
EndSplineSet
Refer: 447 3490 N 1 0 0 1 0 0 2
EndChar

StartChar: si_Ja.reph
Encoding: 155 -1 140
GlifName: si_J_a.reph
Width: 512
VWidth: 0
Flags: HW
LayerCount: 2
Back
Fore
SplineSet
159.997070312 621.401367188 m 1
 198 621.401367188 l 1
 198 555.401367188 l 2
 198 528.223632812 186.508789062 518.401367188 167 518.401367188 c 2
 63 518.401367188 l 2
 36.5302734375 518.401367188 23 532.296875 23 564.401367188 c 2
 23 662.401367188 l 2
 23 691.138671875 40.2490234375 710.401367188 77 710.401367188 c 2
 273 710.401367188 l 2
 306.4453125 710.401367188 324 693.580078125 324 654.401367188 c 2
 324 521.401367188 l 1
 287.001953125 521.401367188 l 1
 287.001953125 650 l 2
 287.001953125 669.77734375 280.771484375 678.3984375 267 678.3984375 c 2
 82 678.3984375 l 2
 69.3994140625 678.3984375 60.0078125 672.094726562 60.0078125 657 c 2
 60.0078125 570 l 2
 60.0078125 557.327148438 63.248046875 549.791992188 75 549.791992188 c 2
 147.206054688 549.791992188 l 2
 158.470703125 549.791992188 159.997070312 555.125 159.997070312 565.791992188 c 2
 159.997070312 621.401367188 l 1
EndSplineSet
Refer: 447 3490 N 1 0 0 1 0 0 2
EndChar

StartChar: si_Jh.halant
Encoding: 159 -1 141
GlifName: si_J_h.halant
Width: 915
VWidth: 0
Flags: HW
LayerCount: 2
Back
Fore
SplineSet
872 400 m 1
 834.599609375 400 l 1
 834.599609375 465 l 2
 834.599609375 505.98046875 822.364257812 518 787 518 c 2
 426 518 l 1
 426 550 l 1
 494 550 l 1
 464.666992188 557.333007812 462 582.666992188 462 604 c 2
 462 632 l 2
 462 659.333007812 478.333007812 673 511 673 c 2
 870 673 l 1
 870 641 l 1
 514.5 641 l 2
 499.53125 641 499 633.666992188 499 616 c 0
 499 573.677734375 509.397460938 550 580 550 c 2
 795 550 l 2
 855.37890625 550 872 528.467773438 872 469 c 2
 872 400 l 1
871.973632812 428 m 25
 871.973632812 50 l 2
 871.973632812 19.6376953125 858.372070312 0 824.975585938 0 c 2
 700.790039062 0 l 2
 674.790039062 0 658.456054688 12.3330078125 651.790039062 37 c 1
 648.616210938 16.3779296875 628.059570312 0 604.790039062 0 c 2
 479.999023438 0 l 2
 448.608398438 0 432.999023438 15.017578125 432.999023438 48 c 2
 432.999023438 345.002929688 l 2
 432.999023438 383.557617188 451.01953125 410.002929688 491.999023438 410.002929688 c 2
 658.184570312 410.002929688 l 1
 658.185546875 377.8046875 l 1
 503.999023438 377.8046875 l 2
 477.385742188 377.8046875 469.999023438 363.440429688 469.999023438 342.002929688 c 2
 469.999023438 58 l 2
 469.999023438 42.228515625 473.955078125 32 492.999023438 32 c 2
 586.987304688 32 l 2
 626.116210938 32 632.987304688 65.521484375 632.987304688 100.801757812 c 2
 632.987304688 229 l 1
 670.186523438 229 l 1
 670.186523438 101 l 2
 670.186523438 66.1650390625 679.265625 32 720.987304688 32 c 2
 812.975585938 32 l 2
 829.90234375 32 834.581054688 43.689453125 834.581054688 60 c 2
 834.581054688 428 l 25
 871.973632812 428 l 25
330.994140625 307.80859375 m 6
 330.994140625 326.779296875 321.033203125 332.80859375 305.994140625 332.80859375 c 6
 163 332.809570312 l 5
 71.203125 256 l 5
 97.984375 256 l 5
 97.984375 228.200195312 l 5
 63.9150390625 209.637695312 58.984375 193.123046875 58.984375 146.013671875 c 6
 58.984375 56 l 6
 58.984375 38.6669921875 64.630859375 32 79.3837890625 32 c 6
 133.797851562 32 l 6
 173.903320312 32 176.197265625 61.5810546875 176.197265625 94 c 6
 176.197265625 188 l 5
 213.3984375 188.002929688 l 5
 213.3984375 94 l 6
 213.3984375 61.568359375 213.90234375 32 251.797851562 32 c 6
 305 32 l 6
 326.588867188 32 330.994140625 46.0009765625 330.994140625 64 c 6
 330.994140625 307.80859375 l 6
530 408 m 5
 412 438 l 6
 383.765989134 445.178138356 355.663085938 446.37890625 344.204101562 446.37890625 c 4
 323.862304688 446.37890625 295.398432144 436.958107426 273 419.801757812 c 6
 201.205078125 364.809570312 l 5
 320.994140625 364.80859375 l 6
 346.368164062 364.80859375 367.994140625 350.016601562 367.994140625 315.80859375 c 6
 367.994140625 52.9990234375 l 6
 367.994140625 19.49609375 344.573242188 -0.0009765625 316.809570312 -0.0009765625 c 6
 230.997070312 0 l 6
 212.040039062 0 198.6640625 9.6669921875 193.997070312 29.0009765625 c 5
 189.330078125 9.6669921875 172.689453125 0 154.997070312 0 c 6
 66.984375 0 l 6
 38.4755859375 0 21.984375 19.74609375 21.984375 46 c 6
 21.984375 156.010742188 l 6
 21.984375 198.78125 29.92578125 215.780273438 44.783203125 224.799804688 c 5
 12 224.799804688 l 5
 12 252.991210938 l 5
 156.9921875 374.2109375 l 5
 156.831054688 430 l 6
 156.77734375 454.000976562 150.944335938 465 128 465 c 6
 38 465 l 5
 38 497.000976562 l 5
 147.1953125 497 l 6
 175.43359375 497 192.909179688 477.275390625 192.947265625 440.798828125 c 6
 192.995117188 404.206054688 l 5
 254.396484375 450.801757812 l 6
 286.163061594 474.908484897 319.587890625 481 344 481 c 4
 358.34375 481 382.510423745 480.872308623 413 473 c 6
 657 410 l 5
 530 408 l 5
EndSplineSet
EndChar

StartChar: si_JhI
Encoding: 160 -1 142
GlifName: si_J_hI_
Width: 916
VWidth: 0
Flags: HW
LayerCount: 2
Back
Fore
SplineSet
330.994140625 307.80859375 m 2
 330.994140625 326.779296875 321.033203125 332.80859375 305.994140625 332.80859375 c 2
 163 332.809570312 l 1
 71.203125 256 l 1
 97.984375 256 l 1
 97.984375 228.200195312 l 1
 63.9150390625 209.637695312 58.984375 193.123046875 58.984375 146.013671875 c 2
 58.984375 56 l 2
 58.984375 38.6669921875 64.630859375 32 79.3837890625 32 c 2
 133.797851562 32 l 2
 173.903320312 32 176.197265625 61.5810546875 176.197265625 94 c 2
 176.197265625 188 l 1
 213.3984375 188.002929688 l 1
 213.3984375 94 l 2
 213.3984375 61.568359375 213.90234375 32 251.797851562 32 c 2
 305 32 l 2
 326.588867188 32 330.994140625 46.0009765625 330.994140625 64 c 2
 330.994140625 307.80859375 l 2
530 408 m 1
 412 438 l 2
 383.765989134 445.178138356 355.663085938 446.37890625 344.204101562 446.37890625 c 0
 323.862304688 446.37890625 295.398432144 436.958107426 273 419.801757812 c 2
 201.205078125 364.809570312 l 1
 320.994140625 364.80859375 l 2
 346.368164062 364.80859375 367.994140625 350.016601562 367.994140625 315.80859375 c 2
 367.994140625 52.9990234375 l 2
 367.994140625 19.49609375 344.573242188 -0.0009765625 316.809570312 -0.0009765625 c 2
 230.997070312 0 l 2
 212.040039062 0 198.6640625 9.6669921875 193.997070312 29.0009765625 c 1
 189.330078125 9.6669921875 172.689453125 0 154.997070312 0 c 2
 66.984375 0 l 2
 38.4755859375 0 21.984375 19.74609375 21.984375 46 c 2
 21.984375 156.010742188 l 2
 21.984375 198.78125 29.92578125 215.780273438 44.783203125 224.799804688 c 1
 12 224.799804688 l 1
 12 252.991210938 l 1
 156.9921875 374.2109375 l 1
 156.831054688 430 l 2
 156.77734375 454.000976562 150.944335938 465 128 465 c 2
 38 465 l 1
 38 497.000976562 l 1
 147.1953125 497 l 2
 175.43359375 497 192.909179688 477.275390625 192.947265625 440.798828125 c 2
 192.995117188 404.206054688 l 1
 254.396484375 450.801757812 l 2
 286.163061594 474.908484897 319.587890625 481 344 481 c 0
 358.34375 481 382.510423745 480.872308623 413 473 c 2
 657 410 l 1
 530 408 l 1
EndSplineSet
Refer: 85 -1 N 1 0 0 1 412 0 2
EndChar

StartChar: si_JhIi
Encoding: 161 -1 143
GlifName: si_J_hI_i
Width: 915
VWidth: 0
Flags: HW
LayerCount: 2
Back
Fore
SplineSet
330.994140625 307.80859375 m 2
 330.994140625 326.779296875 321.033203125 332.80859375 305.994140625 332.80859375 c 2
 163 332.809570312 l 1
 71.203125 256 l 1
 97.984375 256 l 1
 97.984375 228.200195312 l 1
 63.9150390625 209.637695312 58.984375 193.123046875 58.984375 146.013671875 c 2
 58.984375 56 l 2
 58.984375 38.6669921875 64.630859375 32 79.3837890625 32 c 2
 133.797851562 32 l 2
 173.903320312 32 176.197265625 61.5810546875 176.197265625 94 c 2
 176.197265625 188 l 1
 213.3984375 188.002929688 l 1
 213.3984375 94 l 2
 213.3984375 61.568359375 213.90234375 32 251.797851562 32 c 2
 305 32 l 2
 326.588867188 32 330.994140625 46.0009765625 330.994140625 64 c 2
 330.994140625 307.80859375 l 2
530 408 m 1
 412 438 l 2
 383.765989134 445.178138356 355.663085938 446.37890625 344.204101562 446.37890625 c 0
 323.862304688 446.37890625 295.398432144 436.958107426 273 419.801757812 c 2
 201.205078125 364.809570312 l 1
 320.994140625 364.80859375 l 2
 346.368164062 364.80859375 367.994140625 350.016601562 367.994140625 315.80859375 c 2
 367.994140625 52.9990234375 l 2
 367.994140625 19.49609375 344.573242188 -0.0009765625 316.809570312 -0.0009765625 c 2
 230.997070312 0 l 2
 212.040039062 0 198.6640625 9.6669921875 193.997070312 29.0009765625 c 1
 189.330078125 9.6669921875 172.689453125 0 154.997070312 0 c 2
 66.984375 0 l 2
 38.4755859375 0 21.984375 19.74609375 21.984375 46 c 2
 21.984375 156.010742188 l 2
 21.984375 198.78125 29.92578125 215.780273438 44.783203125 224.799804688 c 1
 12 224.799804688 l 1
 12 252.991210938 l 1
 156.9921875 374.2109375 l 1
 156.831054688 430 l 2
 156.77734375 454.000976562 150.944335938 465 128 465 c 2
 38 465 l 1
 38 497.000976562 l 1
 147.1953125 497 l 2
 175.43359375 497 192.909179688 477.275390625 192.947265625 440.798828125 c 2
 192.995117188 404.206054688 l 1
 254.396484375 450.801757812 l 2
 286.163061594 474.908484897 319.587890625 481 344 481 c 0
 358.34375 481 382.510423745 480.872308623 413 473 c 2
 657 410 l 1
 530 408 l 1
EndSplineSet
Refer: 86 -1 N 1 0 0 1 411 0 2
EndChar

StartChar: si_JhRI
Encoding: 168 -1 144
GlifName: si_J_hR_I_
Width: 916
VWidth: 0
Flags: HW
LayerCount: 2
Back
Fore
SplineSet
433.39453125 -21 m 1
 433.39453125 -105.802734375 l 2
 433.39453125 -135.796875 450.310546875 -150 477.39453125 -150 c 2
 830.791992188 -150 l 2
 856.125 -150 871.791992188 -138.565429688 871.791992188 -107 c 2
 871.791992188 -21 l 1
 834.791015625 -21 l 1
 834.791015625 -97 l 2
 834.791015625 -109.877929688 829.625976562 -118.005859375 814.791992188 -118.005859375 c 2
 488.404296875 -118.005859375 l 2
 475.290039062 -118.005859375 470.200195312 -110 470.200195312 -98 c 2
 470.200195312 -21 l 1
 433.39453125 -21 l 1
EndSplineSet
Refer: 142 -1 N 1 0 0 1 0 0 2
EndChar

StartChar: si_JhRIi
Encoding: 169 -1 145
GlifName: si_J_hR_I_i
Width: 915
VWidth: 0
Flags: HW
LayerCount: 2
Back
Fore
SplineSet
433.39453125 -21 m 1
 433.39453125 -105.802734375 l 2
 433.39453125 -135.796875 450.310546875 -150 477.39453125 -150 c 2
 830.791992188 -150 l 2
 856.125 -150 871.791992188 -138.565429688 871.791992188 -107 c 2
 871.791992188 -21 l 1
 834.791015625 -21 l 1
 834.791015625 -97 l 2
 834.791015625 -109.877929688 829.625976562 -118.005859375 814.791992188 -118.005859375 c 2
 488.404296875 -118.005859375 l 2
 475.290039062 -118.005859375 470.200195312 -110 470.200195312 -98 c 2
 470.200195312 -21 l 1
 433.39453125 -21 l 1
EndSplineSet
Refer: 143 -1 N 1 0 0 1 0 0 2
EndChar

StartChar: si_JhRa
Encoding: 167 -1 146
GlifName: si_J_hR_a
Width: 915
VWidth: 0
Flags: HW
LayerCount: 2
Back
Fore
SplineSet
433.39453125 -21 m 5
 433.39453125 -105.802734375 l 6
 433.39453125 -135.796875 450.310546875 -150 477.39453125 -150 c 6
 830.791992188 -150 l 6
 856.125 -150 871.791992188 -138.565429688 871.791992188 -107 c 6
 871.791992188 -21 l 5
 834.791015625 -21 l 5
 834.791015625 -97 l 6
 834.791015625 -109.877929688 829.625976562 -118.005859375 814.791992188 -118.005859375 c 6
 488.404296875 -118.005859375 l 6
 475.290039062 -118.005859375 470.200195312 -110 470.200195312 -98 c 6
 470.200195312 -21 l 5
 433.39453125 -21 l 5
EndSplineSet
Refer: 448 3491 N 1 0 0 1 0 0 2
EndChar

StartChar: si_JhU.reph
Encoding: 165 -1 148
GlifName: si_J_hU_.reph
Width: 1087
VWidth: 0
Flags: HW
LayerCount: 2
Back
Fore
SplineSet
617.390625 659.59765625 m 5
 655.393554688 659.59765625 l 5
 655.393554688 566 l 6
 655.393554688 538.822265625 643.90234375 529 624.393554688 529 c 6
 525 529 l 6
 498.536132812 529 485 542.895507812 485 575 c 6
 485 668.20703125 l 6
 485 696.944335938 502.249023438 716.20703125 539 716.20703125 c 6
 730.393554688 716.20703125 l 6
 763.838867188 716.20703125 781.393554688 699.385742188 781.393554688 660.20703125 c 6
 781.393554688 533.602539062 l 5
 744.395507812 533.602539062 l 5
 744.395507812 655.805664062 l 6
 744.395507812 675.583007812 738.165039062 684.204101562 724.393554688 684.204101562 c 6
 544 684.204101562 l 6
 531.399414062 684.204101562 522.0078125 677.900390625 522.0078125 662.805664062 c 6
 522.0078125 580.598632812 l 6
 522.0078125 567.92578125 525.252929688 560.390625 537 560.390625 c 6
 604.599609375 560.390625 l 6
 615.864257812 560.390625 617.390625 565.723632812 617.390625 576.390625 c 6
 617.390625 659.59765625 l 5
EndSplineSet
Refer: 147 -1 N 1 0 0 1 0 0 2
EndChar

StartChar: si_JhUu.reph
Encoding: 166 -1 150
GlifName: si_J_hU_u.reph
Width: 915
VWidth: 0
Flags: HW
LayerCount: 2
Back
Fore
SplineSet
617.390625 659.59765625 m 1
 655.393554688 659.59765625 l 1
 655.393554688 566 l 2
 655.393554688 538.822265625 643.90234375 529 624.393554688 529 c 2
 525 529 l 2
 498.536132812 529 485 542.895507812 485 575 c 2
 485 668.20703125 l 2
 485 696.944335938 502.249023438 716.20703125 539 716.20703125 c 2
 730.393554688 716.20703125 l 2
 763.838867188 716.20703125 781.393554688 699.385742188 781.393554688 660.20703125 c 2
 781.393554688 533.602539062 l 1
 744.395507812 533.602539062 l 1
 744.395507812 655.805664062 l 2
 744.395507812 675.583007812 738.165039062 684.204101562 724.393554688 684.204101562 c 2
 544 684.204101562 l 2
 531.399414062 684.204101562 522.0078125 677.900390625 522.0078125 662.805664062 c 2
 522.0078125 580.598632812 l 2
 522.0078125 567.92578125 525.252929688 560.390625 537 560.390625 c 2
 604.599609375 560.390625 l 2
 615.864257812 560.390625 617.390625 565.723632812 617.390625 576.390625 c 2
 617.390625 659.59765625 l 1
EndSplineSet
Refer: 487 3542 N 1 0 0 1 936 0 2
Refer: 448 3491 N 1 0 0 1 0 0 2
EndChar

StartChar: si_Jha.reph
Encoding: 164 -1 151
GlifName: si_J_ha.reph
Width: 915
VWidth: 0
Flags: HW
LayerCount: 2
Back
Fore
SplineSet
617.390625 659.59765625 m 5
 655.393554688 659.59765625 l 5
 655.393554688 566 l 6
 655.393554688 538.822265625 643.90234375 529 624.393554688 529 c 6
 525 529 l 6
 498.536132812 529 485 542.895507812 485 575 c 6
 485 668.20703125 l 6
 485 696.944335938 502.249023438 716.20703125 539 716.20703125 c 6
 730.393554688 716.20703125 l 6
 763.838867188 716.20703125 781.393554688 699.385742188 781.393554688 660.20703125 c 6
 781.393554688 533.602539062 l 5
 744.395507812 533.602539062 l 5
 744.395507812 655.805664062 l 6
 744.395507812 675.583007812 738.165039062 684.204101562 724.393554688 684.204101562 c 6
 544 684.204101562 l 6
 531.399414062 684.204101562 522.0078125 677.900390625 522.0078125 662.805664062 c 6
 522.0078125 580.598632812 l 6
 522.0078125 567.92578125 525.252929688 560.390625 537 560.390625 c 6
 604.599609375 560.390625 l 6
 615.864257812 560.390625 617.390625 565.723632812 617.390625 576.390625 c 6
 617.390625 659.59765625 l 5
EndSplineSet
Refer: 448 3491 N 1 0 0 1 0 0 2
EndChar

StartChar: si_JnyAa
Encoding: 183 -1 153
GlifName: si_J_nyA_a
Width: 1006
VWidth: 1000
Flags: HW
LayerCount: 2
Back
Fore
SplineSet
620.0234375 465 m 25
 487.020507812 465 l 2
 458.514648438 465 448.502929688 454.046875 445.020507812 435 c 2
 417.598632812 285 l 1
 441.606445312 285 l 2
 466.2734375 285 478.606445312 270.666992188 478.606445312 242 c 2
 478.606445312 60 l 2
 478.606445312 12.607421875 459.206054688 0 411.606445312 0 c 2
 228.0234375 0 l 2
 191.384765625 0 180.0234375 19.0517578125 180.0234375 56 c 2
 180.0234375 413 l 2
 180.0234375 475.43359375 228.947265625 497 265.614257812 497 c 2
 344.020507812 497 l 1
 344.020507812 465 l 1
 269.614257812 465 l 2
 233.555664062 465 217.02734375 445.48828125 217.02734375 403 c 2
 217.0234375 59.80078125 l 2
 217.0234375 40.587890625 220.940429688 32 240.0234375 32 c 2
 405.020507812 32 l 2
 432.155273438 32 441.606445312 37.6572265625 441.606445312 64 c 2
 441.606445312 231.99609375 l 2
 441.606445312 245.99609375 437.166992188 252.99609375 423.020507812 252.99609375 c 2
 376.606445312 252.99609375 l 1
 410.606445312 446 l 2
 416.606445312 480 440.622823043 497 482.606445312 497 c 2
 619.999023438 497 l 25
 620.0234375 465 l 25
116.6015625 465 m 2
 76.890625 465 59 452.739906784 59 412 c 2
 59 0 l 1
 22 0 l 1
 22 424 l 2
 22 476.166015625 58.8512667515 497 105.400390625 497 c 2
 281.614257812 497 l 1
 211.614257812 465 l 1
 116.6015625 465 l 2
EndSplineSet
Refer: 41 -1 N 1 0 0 1 542 0 2
EndChar

StartChar: si_JnyI
Encoding: 187 -1 154
GlifName: si_J_nyI_
Width: 1006
VWidth: 0
Flags: HW
LayerCount: 2
Back
Fore
SplineSet
570.194335938 511 m 1
 570.194335938 595.802734375 l 2
 570.194335938 625.796875 587.110351562 640 614.194335938 640 c 2
 913 640 l 2
 938.333007812 640 954 628.565429688 954 597 c 2
 954 511 l 1
 916.999023438 511 l 1
 916.999023438 587 l 2
 916.999023438 599.877929688 911.833984375 608.005859375 897 608.005859375 c 2
 625.204101562 608.005859375 l 2
 612.08984375 608.005859375 607 600 607 588 c 2
 607 511 l 1
 570.194335938 511 l 1
EndSplineSet
Refer: 450 3493 N 1 0 0 1 0 0 2
EndChar

StartChar: si_JnyIi
Encoding: 188 -1 155
GlifName: si_J_nyI_i
Width: 1006
VWidth: 0
Flags: HW
LayerCount: 2
Back
Fore
SplineSet
797.607421875 608 m 2
 787.607421875 608 782.607421875 604 782.607421875 596 c 2
 782.607421875 556 l 2
 782.607421875 547.333007812 783.940429688 543 794.607421875 543 c 2
 908.415039062 543 l 2
 919.08203125 543 920.415039062 547.666992188 920.415039062 557 c 2
 920.415039062 592.196289062 l 2
 920.415039062 602.60546875 914.748046875 608 903.415039062 608 c 2
 797.607421875 608 l 2
630.208007812 608.0078125 m 10
 620.607421875 607 611.607421875 602 611.607421875 590 c 2
 611.607421875 511 l 1
 574.801757812 511 l 1
 574.801757812 595.802734375 l 2
 574.801757812 625.796875 592.413085938 640.010742188 619.607421875 640.010742188 c 2
 915.21484375 640.01171875 l 2
 943.014648438 640.01171875 957.4140625 626.66015625 957.4140625 600 c 2
 957.4140625 540.99609375 l 2
 957.4140625 521 947.412109375 510.99609375 927.4140625 510.99609375 c 2
 773.204101562 510.994140625 l 2
 749.928710938 510.994140625 745.404296875 521.301757812 745.404296875 537 c 2
 745.404296875 600 l 2
 745.404296875 604.53125 746.221679688 607.008789062 747.803710938 608 c 1
 630.208007812 608.0078125 l 10
EndSplineSet
Refer: 450 3493 N 1 0 0 1 0 0 2
EndChar

StartChar: si_JnyRI
Encoding: 192 -1 156
GlifName: si_J_nyR_I_
Width: 1006
VWidth: 1000
Flags: HW
LayerCount: 2
Back
Fore
SplineSet
620.0234375 465 m 25
 487.020507812 465 l 2
 458.514648438 465 448.502929688 454.046875 445.020507812 435 c 2
 417.598632812 285 l 1
 441.606445312 285 l 2
 466.2734375 285 478.606445312 270.666992188 478.606445312 242 c 2
 478.606445312 60 l 2
 478.606445312 12.607421875 459.206054688 0 411.606445312 0 c 2
 228.0234375 0 l 2
 191.384765625 0 180.0234375 19.0517578125 180.0234375 56 c 2
 180.0234375 413 l 2
 180.0234375 475.43359375 228.947265625 497 265.614257812 497 c 2
 344.020507812 497 l 1
 344.020507812 465 l 1
 269.614257812 465 l 2
 233.555664062 465 217.02734375 445.48828125 217.02734375 403 c 2
 217.0234375 59.80078125 l 2
 217.0234375 40.587890625 220.940429688 32 240.0234375 32 c 2
 405.020507812 32 l 2
 432.155273438 32 441.606445312 37.6572265625 441.606445312 64 c 2
 441.606445312 231.99609375 l 2
 441.606445312 245.99609375 437.166992188 252.99609375 423.020507812 252.99609375 c 2
 376.606445312 252.99609375 l 1
 410.606445312 446 l 2
 416.606445312 480 440.622823043 497 482.606445312 497 c 2
 619.999023438 497 l 25
 620.0234375 465 l 25
116.6015625 465 m 2
 76.890625 465 59 452.739906784 59 412 c 2
 59 0 l 1
 22 0 l 1
 22 424 l 2
 22 476.166015625 58.8512667515 497 105.400390625 497 c 2
 281.614257812 497 l 1
 211.614257812 465 l 1
 116.6015625 465 l 2
EndSplineSet
Refer: 53 -1 N 1 0 0 1 550 0 2
EndChar

StartChar: si_JnyRIi
Encoding: 193 -1 157
GlifName: si_J_nyR_I_i
Width: 1006
VWidth: 1000
Flags: HW
LayerCount: 2
Back
Fore
SplineSet
620.0234375 465 m 25
 487.020507812 465 l 2
 458.514648438 465 448.502929688 454.046875 445.020507812 435 c 2
 417.598632812 285 l 1
 441.606445312 285 l 2
 466.2734375 285 478.606445312 270.666992188 478.606445312 242 c 2
 478.606445312 60 l 2
 478.606445312 12.607421875 459.206054688 0 411.606445312 0 c 2
 228.0234375 0 l 2
 191.384765625 0 180.0234375 19.0517578125 180.0234375 56 c 2
 180.0234375 413 l 2
 180.0234375 475.43359375 228.947265625 497 265.614257812 497 c 2
 344.020507812 497 l 1
 344.020507812 465 l 1
 269.614257812 465 l 2
 233.555664062 465 217.02734375 445.48828125 217.02734375 403 c 2
 217.0234375 59.80078125 l 2
 217.0234375 40.587890625 220.940429688 32 240.0234375 32 c 2
 405.020507812 32 l 2
 432.155273438 32 441.606445312 37.6572265625 441.606445312 64 c 2
 441.606445312 231.99609375 l 2
 441.606445312 245.99609375 437.166992188 252.99609375 423.020507812 252.99609375 c 2
 376.606445312 252.99609375 l 1
 410.606445312 446 l 2
 416.606445312 480 440.622823043 497 482.606445312 497 c 2
 619.999023438 497 l 25
 620.0234375 465 l 25
116.6015625 465 m 2
 76.890625 465 59 452.739906784 59 412 c 2
 59 0 l 1
 22 0 l 1
 22 424 l 2
 22 476.166015625 58.8512667515 497 105.400390625 497 c 2
 281.614257812 497 l 1
 211.614257812 465 l 1
 116.6015625 465 l 2
EndSplineSet
Refer: 54 -1 N 1 0 0 1 549 0 2
EndChar

StartChar: si_JnyRa
Encoding: 191 -1 158
GlifName: si_J_nyR_a
Width: 1006
VWidth: 1000
Flags: HW
LayerCount: 2
Back
Fore
SplineSet
620.0234375 465 m 25
 487.020507812 465 l 2
 458.514648438 465 448.502929688 454.046875 445.020507812 435 c 2
 417.598632812 285 l 1
 441.606445312 285 l 2
 466.2734375 285 478.606445312 270.666992188 478.606445312 242 c 2
 478.606445312 60 l 2
 478.606445312 12.607421875 459.206054688 0 411.606445312 0 c 2
 228.0234375 0 l 2
 191.384765625 0 180.0234375 19.0517578125 180.0234375 56 c 2
 180.0234375 413 l 2
 180.0234375 475.43359375 228.947265625 497 265.614257812 497 c 2
 344.020507812 497 l 1
 344.020507812 465 l 1
 269.614257812 465 l 2
 233.555664062 465 217.02734375 445.48828125 217.02734375 403 c 2
 217.0234375 59.80078125 l 2
 217.0234375 40.587890625 220.940429688 32 240.0234375 32 c 2
 405.020507812 32 l 2
 432.155273438 32 441.606445312 37.6572265625 441.606445312 64 c 2
 441.606445312 231.99609375 l 2
 441.606445312 245.99609375 437.166992188 252.99609375 423.020507812 252.99609375 c 2
 376.606445312 252.99609375 l 1
 410.606445312 446 l 2
 416.606445312 480 440.622823043 497 482.606445312 497 c 2
 619.999023438 497 l 25
 620.0234375 465 l 25
116.6015625 465 m 2
 76.890625 465 59 452.739906784 59 412 c 2
 59 0 l 1
 22 0 l 1
 22 424 l 2
 22 476.166015625 58.8512667515 497 105.400390625 497 c 2
 281.614257812 497 l 1
 211.614257812 465 l 1
 116.6015625 465 l 2
EndSplineSet
Refer: 55 -1 N 1 0 0 1 550 0 2
EndChar

StartChar: si_JnyU
Encoding: 189 -1 159
GlifName: si_J_nyU_
Width: 1006
VWidth: 1000
Flags: HW
LayerCount: 2
Back
Fore
SplineSet
620.0234375 465 m 29
 487.020507812 465 l 6
 458.514648438 465 448.502929688 454.046875 445.020507812 435 c 6
 417.598632812 285 l 5
 441.606445312 285 l 6
 466.2734375 285 478.606445312 270.666992188 478.606445312 242 c 6
 478.606445312 60 l 6
 478.606445312 12.607421875 459.206054688 0 411.606445312 0 c 6
 228.0234375 0 l 6
 191.384765625 0 180.0234375 19.0517578125 180.0234375 56 c 6
 180.0234375 413 l 6
 180.0234375 475.43359375 228.947265625 497 265.614257812 497 c 6
 344.020507812 497 l 5
 344.020507812 465 l 5
 269.614257812 465 l 6
 233.555664062 465 217.02734375 445.48828125 217.02734375 403 c 6
 217.0234375 59.80078125 l 6
 217.0234375 40.587890625 220.940429688 32 240.0234375 32 c 6
 405.020507812 32 l 6
 432.155273438 32 441.606445312 37.6572265625 441.606445312 64 c 6
 441.606445312 231.99609375 l 6
 441.606445312 245.99609375 437.166992188 252.99609375 423.020507812 252.99609375 c 6
 376.606445312 252.99609375 l 5
 410.606445312 446 l 6
 416.606445312 480 440.623046875 497 482.606445312 497 c 6
 619.999023438 497 l 29
 620.0234375 465 l 29
116.6015625 465 m 2
 76.890625 465 59 452.740234375 59 412 c 2
 59 0 l 1
 22 0 l 1
 22 424 l 2
 22 476.166015625 58.8515625 497 105.400390625 497 c 2
 281.614257812 497 l 1
 211.614257812 465 l 1
 116.6015625 465 l 2
EndSplineSet
Refer: 56 -1 N 1 0 0 1 544 0 2
EndChar

StartChar: si_JnyUu
Encoding: 190 -1 160
GlifName: si_J_nyU_u
Width: 1006
VWidth: 1000
Flags: HW
LayerCount: 2
Back
Fore
SplineSet
620.0234375 465 m 25
 487.020507812 465 l 2
 458.514648438 465 448.502929688 454.046875 445.020507812 435 c 2
 417.598632812 285 l 1
 441.606445312 285 l 2
 466.2734375 285 478.606445312 270.666992188 478.606445312 242 c 2
 478.606445312 60 l 2
 478.606445312 12.607421875 459.206054688 0 411.606445312 0 c 2
 228.0234375 0 l 2
 191.384765625 0 180.0234375 19.0517578125 180.0234375 56 c 2
 180.0234375 413 l 2
 180.0234375 475.43359375 228.947265625 497 265.614257812 497 c 2
 344.020507812 497 l 1
 344.020507812 465 l 1
 269.614257812 465 l 2
 233.555664062 465 217.02734375 445.48828125 217.02734375 403 c 2
 217.0234375 59.80078125 l 2
 217.0234375 40.587890625 220.940429688 32 240.0234375 32 c 2
 405.020507812 32 l 2
 432.155273438 32 441.606445312 37.6572265625 441.606445312 64 c 2
 441.606445312 231.99609375 l 2
 441.606445312 245.99609375 437.166992188 252.99609375 423.020507812 252.99609375 c 2
 376.606445312 252.99609375 l 1
 410.606445312 446 l 2
 416.606445312 480 440.623046875 497 482.606445312 497 c 2
 619.999023438 497 l 25
 620.0234375 465 l 25
116.6015625 465 m 2
 76.890625 465 59 452.740234375 59 412 c 2
 59 0 l 1
 22 0 l 1
 22 424 l 2
 22 476.166015625 58.8515625 497 105.400390625 497 c 2
 281.614257812 497 l 1
 211.614257812 465 l 1
 116.6015625 465 l 2
EndSplineSet
Refer: 57 -1 N 1 0 0 1 544 0 2
EndChar

StartChar: si_KSsI
Encoding: 441 -1 168
GlifName: si_K_S_sI_
Width: 918
VWidth: 1000
Flags: HW
LayerCount: 2
Back
Fore
SplineSet
432.198242188 511 m 1
 432.198242188 595.802734375 l 2
 432.198242188 625.796875 449.114257812 640 476.198242188 640 c 2
 828.602539062 640 l 2
 853.935546875 640 869.602539062 628.565429688 869.602539062 597 c 2
 869.602539062 511 l 1
 832.6015625 511 l 1
 832.6015625 587 l 2
 832.6015625 599.877929688 827.436523438 608.005859375 812.602539062 608.005859375 c 2
 487.208007812 608.005859375 l 2
 474.09375 608.005859375 469.00390625 600 469.00390625 588 c 2
 469.00390625 511 l 1
 432.198242188 511 l 1
EndSplineSet
Refer: 172 -1 N 1 0 0 1 0 0 2
EndChar

StartChar: si_KSsIi
Encoding: 442 -1 169
GlifName: si_K_S_sI_i
Width: 918
VWidth: 1000
Flags: HW
LayerCount: 2
Back
Fore
SplineSet
685.802734375 608 m 6
 675.802734375 608 670.802734375 604 670.802734375 596 c 6
 670.802734375 565.409179688 l 6
 670.802734375 556.7421875 672.135742188 552.409179688 682.802734375 552.409179688 c 6
 820.802734375 552.409179688 l 6
 831.469726562 552.409179688 832.802734375 557.076171875 832.802734375 566.409179688 c 6
 832.802734375 592.196289062 l 6
 832.802734375 602.60546875 827.135742188 608 815.802734375 608 c 6
 685.802734375 608 l 6
491.202148438 608.0078125 m 6
 479.754882812 608.0078125 472.000976562 602 472.000976562 590 c 6
 472.000976562 511 l 5
 435.1953125 511 l 5
 435.1953125 595.802734375 l 6
 435.1953125 625.796875 452.806640625 640.010742188 480.000976562 640.010742188 c 6
 827.602539062 640.01171875 l 6
 855.40234375 640.01171875 869.801757812 626.66015625 869.801757812 600 c 6
 869.801757812 550.405273438 l 6
 869.801757812 530.409179688 859.799804688 520.405273438 839.801757812 520.405273438 c 6
 661.399414062 520.403320312 l 6
 638.124023438 520.403320312 633.599609375 530.7109375 633.599609375 546.409179688 c 6
 633.599609375 600 l 6
 633.599609375 604.53125 634.416992188 607.008789062 635.999023438 608 c 5
 491.202148438 608.0078125 l 6
EndSplineSet
Refer: 172 -1 N 1 0 0 1 0 0 2
EndChar

StartChar: si_KSsa
Encoding: 429 -1 172
GlifName: si_K_S_sa
Width: 918
VWidth: 1000
Flags: HW
LayerCount: 2
Back
Fore
SplineSet
330.994140625 307.80859375 m 6
 330.994140625 326.779296875 321.033203125 332.80859375 305.994140625 332.80859375 c 6
 163 332.809570312 l 5
 71.203125 256 l 5
 97.984375 256 l 5
 97.984375 228.200195312 l 5
 63.9150390625 209.637695312 58.984375 193.123426584 58.984375 146.013671875 c 6
 58.984375 56 l 6
 58.984375 38.6669921875 64.630859375 32 79.3837890625 32 c 6
 133.797851562 32 l 6
 173.903320312 32 176.197265625 61.5810546875 176.197265625 94 c 6
 176.197265625 188 l 5
 213.3984375 188.002929688 l 5
 213.3984375 94 l 6
 213.3984375 61.568359375 213.90234375 32 251.797851562 32 c 6
 305 32 l 6
 326.589120023 32 330.994140625 46.0009765625 330.994140625 64 c 6
 330.994140625 307.80859375 l 6
481.599609375 465 m 29
 355.815429688 465 l 6
 328.594726562 465 312.182924806 457.315613392 292.609375 441 c 6
 201.205078125 364.809570312 l 5
 320.994140625 364.80859375 l 6
 346.368164062 364.80859375 367.994140625 350.016601562 367.994140625 315.80859375 c 6
 367.994140625 52.9990234375 l 6
 367.994140625 19.49609375 344.573242188 -0.0009765625 316.809570312 -0.0009765625 c 6
 230.997070312 0 l 6
 212.040039062 0 198.6640625 9.6669921875 193.997070312 29.0009765625 c 5
 189.330078125 9.6669921875 172.689453125 0 154.997070312 0 c 6
 66.984375 0 l 6
 38.4755859375 0 21.984375 19.74609375 21.984375 46 c 6
 21.984375 156.010742188 l 6
 21.984375 198.780874003 29.92578125 215.780273438 44.783203125 224.799804688 c 5
 12 224.799804688 l 5
 12 252.991210938 l 5
 156.9921875 374.2109375 l 5
 156.831054688 430 l 6
 156.777345124 454.001013717 150.944422432 465 128 465 c 6
 38 465 l 5
 38 497.000976562 l 5
 147.1953125 497 l 6
 175.43359375 497 192.909179688 477.275390625 192.947265625 440.798828125 c 6
 192.995117188 404.206054688 l 5
 274.005859375 472 l 6
 297.624494819 491.765285891 320.747070312 497 339.208984375 497 c 6
 481.59765625 497 l 29
 481.599609375 465 l 29
EndSplineSet
Refer: 475 3522 N 1 0 0 1 409 0 2
EndChar

StartChar: si_KV.halant
Encoding: 445 -1 176
GlifName: si_K_V_.halant
Width: 910
VWidth: 1000
Flags: HW
LayerCount: 2
Back
Fore
SplineSet
860 415 m 5
 860 54 l 6
 860 16.2705078125 845.075195312 0 808 0 c 6
 472 0 l 6
 434.927734375 0 422 16.2734375 422 54 c 6
 422 280 l 6
 422 316.666992188 440.666992188 335 478 335 c 6
 603.09375 335 l 5
 603.09375 402 l 6
 603.09375 419.568359375 588.666992188 422 578 422 c 6
 421.999023438 422 l 5
 421.999023438 454 l 5
 589 454 l 6
 624.22265625 454 639.994140625 438.405273438 639.99609375 402 c 6
 640 303 l 5
 487 303 l 6
 471.166992188 303 459 296.975585938 459 275 c 6
 459 58 l 6
 459 43.3330078125 460.958007812 32 478 32 c 6
 800.799804688 32 l 6
 816.448242188 32 823 40.740234375 823 61 c 6
 823 415 l 5
 860 415 l 5
860 400 m 5
 823 400 l 5
 823 465 l 6
 823 505.98046875 810.364257812 518 775 518 c 6
 414 518 l 5
 414 550 l 5
 482 550 l 5
 452.666992188 557.333007812 450 582.666992188 450 604 c 6
 450 632 l 6
 450 659.333007812 466.333007812 673 499 673 c 6
 858 673 l 5
 858 641 l 5
 502.5 641 l 6
 487.53125 641 487 633.666992188 487 616 c 4
 487 573.677734375 497.397460938 550 568 550 c 6
 783 550 l 6
 843.37890625 550 860 528.467773438 860 469 c 6
 860 400 l 5
330.994140625 307.80859375 m 6
 330.994140625 326.779296875 321.033203125 332.80859375 305.994140625 332.80859375 c 6
 163 332.809570312 l 5
 71.203125 256 l 5
 97.984375 256 l 5
 97.984375 228.200195312 l 5
 63.9150390625 209.637695312 58.984375 193.123046875 58.984375 146.013671875 c 6
 58.984375 56 l 6
 58.984375 38.6669921875 64.630859375 32 79.3837890625 32 c 6
 133.797851562 32 l 6
 173.903320312 32 176.197265625 61.5810546875 176.197265625 94 c 6
 176.197265625 188 l 5
 213.3984375 188.002929688 l 5
 213.3984375 94 l 6
 213.3984375 61.568359375 213.90234375 32 251.797851562 32 c 6
 305 32 l 6
 326.588867188 32 330.994140625 46.0009765625 330.994140625 64 c 6
 330.994140625 307.80859375 l 6
481.599609375 422.000976562 m 5
 309 422.000976562 l 6
 281.779296875 422.000976562 267.535326042 420.360703064 248 404 c 6
 201.205078125 364.809570312 l 5
 320.994140625 364.80859375 l 6
 346.368164062 364.80859375 367.994140625 350.016601562 367.994140625 315.80859375 c 6
 367.994140625 52.9990234375 l 6
 367.994140625 19.49609375 344.573242188 -0.0009765625 316.809570312 -0.0009765625 c 6
 230.997070312 0 l 6
 212.040039062 0 198.6640625 9.6669921875 193.997070312 29.0009765625 c 5
 189.330078125 9.6669921875 172.689453125 0 154.997070312 0 c 6
 66.984375 0 l 6
 38.4755859375 0 21.984375 19.74609375 21.984375 46 c 6
 21.984375 156.010742188 l 6
 21.984375 198.78125 29.92578125 215.780273438 44.783203125 224.799804688 c 5
 12 224.799804688 l 5
 12 252.991210938 l 5
 156.9921875 374.2109375 l 5
 156.831054688 430 l 6
 156.77734375 454.000976562 150.944335938 465 128 465 c 6
 38 465 l 5
 38 497.000976562 l 5
 147.1953125 497 l 6
 175.43359375 497 192.909179688 477.275390625 192.947265625 440.798828125 c 6
 192.995117188 404.206054688 l 5
 226 432 l 6
 249.557259117 451.837948686 273.931640625 454.000976562 292.393554688 454.000976562 c 6
 481.59765625 454.000976562 l 5
 481.599609375 422.000976562 l 5
EndSplineSet
EndChar

StartChar: si_KVI
Encoding: 446 -1 177
GlifName: si_K_V_I_
Width: 910
VWidth: 1000
Flags: HW
LayerCount: 2
Back
Fore
SplineSet
860 400 m 5
 823 400 l 5
 823 457 l 6
 823 496.377929688 813.940429688 509.5 781 509.5 c 6
 469 509.5 l 6
 437.666992188 509.5 422 525.5 422 557.5 c 6
 422 620 l 6
 422 653.415039062 436.103515625 672 472 672 c 6
 858.5 672 l 5
 858.5 640 l 5
 484 640 l 6
 463.083007812 640 458.875 635.55859375 458.875 611 c 6
 458.875 566 l 6
 458.875 552.489257812 460.432617188 541.5 483 541.5 c 6
 787 541.5 l 6
 838.204101562 541.5 860 524.66015625 860 463 c 6
 860 400 l 5
860 415 m 1
 860 54 l 2
 860 16.2705078125 845.075195312 0 808 0 c 2
 472 0 l 2
 434.927734375 0 422 16.2734375 422 54 c 2
 422 280 l 2
 422 316.666992188 440.666992188 335 478 335 c 2
 603.09375 335 l 1
 603.09375 402 l 2
 603.09375 419.568359375 588.666992188 422 578 422 c 2
 421.999023438 422 l 1
 421.999023438 454 l 1
 589 454 l 2
 624.22265625 454 639.994140625 438.405273438 639.99609375 402 c 2
 640 303 l 1
 487 303 l 2
 471.166992188 303 459 296.975585938 459 275 c 2
 459 58 l 2
 459 43.3330078125 460.958007812 32 478 32 c 2
 800.799804688 32 l 2
 816.448242188 32 823 40.740234375 823 61 c 2
 823 415 l 1
 860 415 l 1
330.994140625 307.80859375 m 2
 330.994140625 326.779296875 321.033203125 332.80859375 305.994140625 332.80859375 c 2
 163 332.809570312 l 1
 71.203125 256 l 1
 97.984375 256 l 1
 97.984375 228.200195312 l 1
 63.9150390625 209.637695312 58.984375 193.123046875 58.984375 146.013671875 c 2
 58.984375 56 l 2
 58.984375 38.6669921875 64.630859375 32 79.3837890625 32 c 2
 133.797851562 32 l 2
 173.903320312 32 176.197265625 61.5810546875 176.197265625 94 c 2
 176.197265625 188 l 1
 213.3984375 188.002929688 l 1
 213.3984375 94 l 2
 213.3984375 61.568359375 213.90234375 32 251.797851562 32 c 2
 305 32 l 2
 326.588867188 32 330.994140625 46.0009765625 330.994140625 64 c 2
 330.994140625 307.80859375 l 2
481.599609375 422.000976562 m 1
 309 422.000976562 l 2
 281.779296875 422.000976562 267.535326042 420.360703064 248 404 c 2
 201.205078125 364.809570312 l 1
 320.994140625 364.80859375 l 2
 346.368164062 364.80859375 367.994140625 350.016601562 367.994140625 315.80859375 c 2
 367.994140625 52.9990234375 l 2
 367.994140625 19.49609375 344.573242188 -0.0009765625 316.809570312 -0.0009765625 c 2
 230.997070312 0 l 2
 212.040039062 0 198.6640625 9.6669921875 193.997070312 29.0009765625 c 1
 189.330078125 9.6669921875 172.689453125 0 154.997070312 0 c 2
 66.984375 0 l 2
 38.4755859375 0 21.984375 19.74609375 21.984375 46 c 2
 21.984375 156.010742188 l 2
 21.984375 198.78125 29.92578125 215.780273438 44.783203125 224.799804688 c 1
 12 224.799804688 l 1
 12 252.991210938 l 1
 156.9921875 374.2109375 l 1
 156.831054688 430 l 2
 156.77734375 454.000976562 150.944335938 465 128 465 c 2
 38 465 l 1
 38 497.000976562 l 1
 147.1953125 497 l 2
 175.43359375 497 192.909179688 477.275390625 192.947265625 440.798828125 c 2
 192.995117188 404.206054688 l 1
 226 432 l 2
 249.557259117 451.837948686 273.931640625 454.000976562 292.393554688 454.000976562 c 2
 481.59765625 454.000976562 l 1
 481.599609375 422.000976562 l 1
EndSplineSet
EndChar

StartChar: si_KVIi
Encoding: 447 -1 178
GlifName: si_K_V_I_i
Width: 910
VWidth: 1000
Flags: HW
LayerCount: 2
Back
Fore
SplineSet
822.999023438 405 m 1
 822.999023438 479.5 l 2
 822.999023438 497.690429688 805.681640625 509.5 786.999023438 509.5 c 2
 464.999023438 509.5 l 2
 435.15625 509.5 421.999023438 518.271484375 421.999023438 550.5 c 2
 421.999023438 618 l 2
 421.999023438 654.859375 435.41015625 672 471.999023438 672 c 2
 809.999023438 672 l 2
 846.586914062 672 859.999023438 654.858398438 859.999023438 618 c 2
 859.999023438 570 l 2
 859.999023438 547.837890625 850.685546875 532.870117188 832.999023438 528 c 1
 854.91015625 521.15234375 859.999023438 504.274414062 859.999023438 475 c 2
 859.999023438 405 l 1
 822.999023438 405 l 1
671.999023438 539 m 17
 661.999023438 542 653.999023438 550.291992188 653.999023438 567 c 2
 653.999023438 621 l 2
 653.999023438 633.107421875 660.5 638.25 663.999023438 640 c 1
 663.8515625 640 475.874023438 640 475.874023438 640 c 2
 464.541015625 640 458.874023438 635.333007812 458.874023438 626 c 2
 458.874023438 554 l 2
 458.874023438 544 464.20703125 539 474.874023438 539 c 2
 671.999023438 539 l 17
714.999023438 640 m 2
 699.44921875 640 690.999023438 630.698242188 690.999023438 616 c 2
 690.999023438 570.5 l 2
 690.999023438 551.6015625 707.265625 545.5 724.499023438 545.5 c 2
 786.999023438 545.5 l 2
 803.34375 545.5 822.999023438 550.392578125 822.999023438 577 c 2
 822.999023438 627.5 l 2
 822.999023438 636.697265625 815.692382812 640 808.499023438 640 c 2
 714.999023438 640 l 2
860 415 m 1
 860 54 l 2
 860 16.2705078125 845.075195312 0 808 0 c 2
 472 0 l 2
 434.927734375 0 422 16.2734375 422 54 c 2
 422 280 l 2
 422 316.666992188 440.666992188 335 478 335 c 2
 603.09375 335 l 1
 603.09375 402 l 2
 603.09375 419.568359375 588.666992188 422 578 422 c 2
 421.999023438 422 l 1
 421.999023438 454 l 1
 589 454 l 2
 624.22265625 454 639.994140625 438.405273438 639.99609375 402 c 2
 640 303 l 1
 487 303 l 2
 471.166992188 303 459 296.975585938 459 275 c 2
 459 58 l 2
 459 43.3330078125 460.958007812 32 478 32 c 2
 800.799804688 32 l 2
 816.448242188 32 823 40.740234375 823 61 c 2
 823 415 l 1
 860 415 l 1
330.994140625 307.80859375 m 2
 330.994140625 326.779296875 321.033203125 332.80859375 305.994140625 332.80859375 c 2
 163 332.809570312 l 1
 71.203125 256 l 1
 97.984375 256 l 1
 97.984375 228.200195312 l 1
 63.9150390625 209.637695312 58.984375 193.123046875 58.984375 146.013671875 c 2
 58.984375 56 l 2
 58.984375 38.6669921875 64.630859375 32 79.3837890625 32 c 2
 133.797851562 32 l 2
 173.903320312 32 176.197265625 61.5810546875 176.197265625 94 c 2
 176.197265625 188 l 1
 213.3984375 188.002929688 l 1
 213.3984375 94 l 2
 213.3984375 61.568359375 213.90234375 32 251.797851562 32 c 2
 305 32 l 2
 326.588867188 32 330.994140625 46.0009765625 330.994140625 64 c 2
 330.994140625 307.80859375 l 2
481.599609375 422.000976562 m 1
 309 422.000976562 l 2
 281.779296875 422.000976562 267.535326042 420.360703064 248 404 c 2
 201.205078125 364.809570312 l 1
 320.994140625 364.80859375 l 2
 346.368164062 364.80859375 367.994140625 350.016601562 367.994140625 315.80859375 c 2
 367.994140625 52.9990234375 l 2
 367.994140625 19.49609375 344.573242188 -0.0009765625 316.809570312 -0.0009765625 c 2
 230.997070312 0 l 2
 212.040039062 0 198.6640625 9.6669921875 193.997070312 29.0009765625 c 1
 189.330078125 9.6669921875 172.689453125 0 154.997070312 0 c 2
 66.984375 0 l 2
 38.4755859375 0 21.984375 19.74609375 21.984375 46 c 2
 21.984375 156.010742188 l 2
 21.984375 198.78125 29.92578125 215.780273438 44.783203125 224.799804688 c 1
 12 224.799804688 l 1
 12 252.991210938 l 1
 156.9921875 374.2109375 l 1
 156.831054688 430 l 2
 156.77734375 454.000976562 150.944335938 465 128 465 c 2
 38 465 l 1
 38 497.000976562 l 1
 147.1953125 497 l 2
 175.43359375 497 192.909179688 477.275390625 192.947265625 440.798828125 c 2
 192.995117188 404.206054688 l 1
 226 432 l 2
 249.557259117 451.837948686 273.931640625 454.000976562 292.393554688 454.000976562 c 2
 481.59765625 454.000976562 l 1
 481.599609375 422.000976562 l 1
EndSplineSet
EndChar

StartChar: si_KVa
Encoding: 430 -1 181
GlifName: si_K_V_a
Width: 910
VWidth: 1000
Flags: HW
LayerCount: 2
Back
Fore
SplineSet
330.994140625 307.80859375 m 2
 330.994140625 326.779296875 321.033203125 332.80859375 305.994140625 332.80859375 c 2
 163 332.809570312 l 1
 71.203125 256 l 1
 97.984375 256 l 1
 97.984375 228.200195312 l 1
 63.9150390625 209.637695312 58.984375 193.123426584 58.984375 146.013671875 c 2
 58.984375 56 l 2
 58.984375 38.6669921875 64.630859375 32 79.3837890625 32 c 2
 133.797851562 32 l 2
 173.903320312 32 176.197265625 61.5810546875 176.197265625 94 c 2
 176.197265625 188 l 1
 213.3984375 188.002929688 l 1
 213.3984375 94 l 2
 213.3984375 61.568359375 213.90234375 32 251.797851562 32 c 2
 305 32 l 2
 326.589120023 32 330.994140625 46.0009765625 330.994140625 64 c 2
 330.994140625 307.80859375 l 2
481.599609375 465 m 25
 355.815429688 465 l 2
 328.594726562 465 312.182924806 457.315613392 292.609375 441 c 2
 201.205078125 364.809570312 l 1
 320.994140625 364.80859375 l 2
 346.368164062 364.80859375 367.994140625 350.016601562 367.994140625 315.80859375 c 2
 367.994140625 52.9990234375 l 2
 367.994140625 19.49609375 344.573242188 -0.0009765625 316.809570312 -0.0009765625 c 2
 230.997070312 0 l 2
 212.040039062 0 198.6640625 9.6669921875 193.997070312 29.0009765625 c 1
 189.330078125 9.6669921875 172.689453125 0 154.997070312 0 c 2
 66.984375 0 l 2
 38.4755859375 0 21.984375 19.74609375 21.984375 46 c 2
 21.984375 156.010742188 l 2
 21.984375 198.780874003 29.92578125 215.780273438 44.783203125 224.799804688 c 1
 12 224.799804688 l 1
 12 252.991210938 l 1
 156.9921875 374.2109375 l 1
 156.831054688 430 l 2
 156.777345124 454.001013717 150.944422432 465 128 465 c 2
 38 465 l 1
 38 497.000976562 l 1
 147.1953125 497 l 2
 175.43359375 497 192.909179688 477.275390625 192.947265625 440.798828125 c 2
 192.995117188 404.206054688 l 1
 274.005859375 472 l 2
 297.624494819 491.765285891 320.747070312 497 339.208984375 497 c 2
 481.59765625 497 l 25
 481.599609375 465 l 25
EndSplineSet
Refer: 473 3520 N 1 0 0 1 401 0 2
EndChar

StartChar: si_Kh.halant
Encoding: 100 -1 183
GlifName: si_K_h.halant
Width: 518
VWidth: 1000
Flags: HW
LayerCount: 2
Back
Fore
SplineSet
460 413 m 25
 460 51 l 2
 460 26.0732421875 448.266601562 0 414.004882812 0 c 2
 316.407226562 0 l 2
 283.07421875 0 244.1640625 46.2275390625 234.805664062 68.0009765625 c 1
 208.006835938 -5 l 1
 169.807617188 -5 l 1
 250 216.59765625 l 1
 250.000976562 348.599609375 l 2
 250.000976562 364.890625 243.139648438 379.801757812 222.998046875 379.801757812 c 2
 88 379.801757812 l 2
 68.18359375 379.801757812 59 366.1171875 59 345.000976562 c 2
 59 57 l 2
 59 39.127112055 64.625 32 81.001953125 32 c 2
 133.002929688 32 l 1
 133 0 l 1
 65 0 l 2
 38.3046995551 0 22 16.7641508739 22 48 c 2
 22 348.000976562 l 2
 22 383.966796875 40.6513671875 411.975585938 81 411.975585938 c 2
 231.19140625 411.975585938 l 2
 263.717773438 411.975585938 287.19140625 394.668945312 287.19140625 357.000976562 c 2
 286.590820312 212 l 1
 250.403320312 111.80078125 l 1
 256.577148438 96.876953125 292.041992188 32 333.407226562 32 c 2
 400.00390625 32 l 2
 419.401367188 32 423.006835938 49.201171875 423.006835938 63.201171875 c 2
 423.006835938 413.000976562 l 25
 460 413 l 25
460 400 m 5
 423 400 l 5
 423 465 l 6
 423 505.980913355 410.364053106 518 375 518 c 6
 14 518 l 5
 14 550 l 5
 82 550 l 5
 52.6669921875 557.333007812 50 582.666992188 50 604 c 6
 50 632 l 6
 50 659.333333333 66.3333333333 673 99 673 c 6
 458 673 l 5
 458 641 l 5
 102.5 641 l 6
 87.53125 641 87 633.667282104 87 616 c 4
 87 573.677734375 97.3973370288 550 168 550 c 6
 383 550 l 6
 443.379036403 550 460 528.467891223 460 469 c 6
 460 400 l 5
EndSplineSet
EndChar

StartChar: si_KhI
Encoding: 101 -1 184
GlifName: si_K_hI_
Width: 518
VWidth: 1000
Flags: HW
LayerCount: 2
Back
Fore
SplineSet
460 413 m 25
 460 51 l 2
 460 26.0732421875 448.266601562 0 414.004882812 0 c 2
 316.407226562 0 l 2
 283.07421875 0 244.1640625 46.2275390625 234.805664062 68.0009765625 c 1
 208.006835938 -5 l 1
 169.807617188 -5 l 1
 250 216.59765625 l 1
 250.000976562 348.599609375 l 2
 250.000976562 364.890625 243.139648438 379.801757812 222.998046875 379.801757812 c 2
 88 379.801757812 l 2
 68.18359375 379.801757812 59 366.1171875 59 345.000976562 c 2
 59 57 l 2
 59 39.127112055 64.625 32 81.001953125 32 c 2
 133.002929688 32 l 1
 133 0 l 1
 65 0 l 2
 38.3046995551 0 22 16.7641508739 22 48 c 2
 22 348.000976562 l 2
 22 383.966796875 40.6513671875 411.975585938 81 411.975585938 c 2
 231.19140625 411.975585938 l 2
 263.717773438 411.975585938 287.19140625 394.668945312 287.19140625 357.000976562 c 2
 286.590820312 212 l 1
 250.403320312 111.80078125 l 1
 256.577148438 96.876953125 292.041992188 32 333.407226562 32 c 2
 400.00390625 32 l 2
 419.401367188 32 423.006835938 49.201171875 423.006835938 63.201171875 c 2
 423.006835938 413.000976562 l 25
 460 413 l 25
460 400 m 5
 423 400 l 5
 423 476 l 6
 423 499.380859375 416.126953125 509.5 391 509.5 c 6
 69 509.5 l 6
 37.6669921875 509.5 22 525.5 22 557.5 c 6
 22 620 l 6
 22 653.415199923 36.1038354598 672 72 672 c 6
 458.5 672 l 5
 458.5 640 l 5
 84 640 l 6
 63.0830078125 640 58.875 635.55848028 58.875 611 c 6
 58.875 566 l 6
 58.875 552.489578247 60.4326171875 541.5 83 541.5 c 6
 391 541.5 l 6
 447.814453125 541.5 460 524.084960938 460 466 c 6
 460 400 l 5
EndSplineSet
EndChar

StartChar: si_KhIi
Encoding: 102 -1 185
GlifName: si_K_hI_i
Width: 518
VWidth: 1000
Flags: HW
LayerCount: 2
Back
Fore
SplineSet
423 405 m 5
 423 479.5 l 6
 423 497.690429688 405.682617188 509.5 387 509.5 c 6
 65 509.5 l 6
 35.1572265625 509.5 22 518.271484375 22 550.5 c 6
 22 618 l 6
 22 654.859629233 35.4108204097 672 72 672 c 6
 410 672 l 6
 446.587890625 672 460 654.858398438 460 618 c 6
 460 570 l 6
 460 547.837890625 450.686523438 532.870117188 433 528 c 5
 454.911132812 521.15234375 460 504.274414062 460 475 c 6
 460 405 l 5
 423 405 l 5
272 539 m 21
 260.918198095 542.511433308 254 550.291992188 254 567 c 6
 254 621 l 6
 254 633.107421875 260.500976562 638.25 264 640 c 5
 263.852539062 640 75.875 640 75.875 640 c 6
 64.5419921875 640 58.875 635.333007812 58.875 626 c 6
 58.875 554 l 6
 58.875 544 64.2080078125 539 74.875 539 c 6
 272 539 l 21
315 640 m 6
 299.450195312 640 291 630.698242188 291 616 c 6
 291 570.5 l 6
 291 551.6015625 307.266601562 545.5 324.5 545.5 c 6
 387 545.5 l 6
 403.344726562 545.5 423 550.392578125 423 577 c 6
 423 627.5 l 6
 423 636.697265625 415.693359375 640 408.5 640 c 6
 315 640 l 6
460 413 m 25
 460 51 l 2
 460 26.0732421875 448.266601562 0 414.004882812 0 c 2
 316.407226562 0 l 2
 283.07421875 0 244.1640625 46.2275390625 234.805664062 68.0009765625 c 1
 208.006835938 -5 l 1
 169.807617188 -5 l 1
 250 216.59765625 l 1
 250.000976562 348.599609375 l 2
 250.000976562 364.890625 243.139648438 379.801757812 222.998046875 379.801757812 c 2
 88 379.801757812 l 2
 68.18359375 379.801757812 59 366.1171875 59 345.000976562 c 2
 59 57 l 2
 59 39.127112055 64.625 32 81.001953125 32 c 2
 133.002929688 32 l 1
 133 0 l 1
 65 0 l 2
 38.3046995551 0 22 16.7641508739 22 48 c 2
 22 348.000976562 l 2
 22 383.966796875 40.6513671875 411.975585938 81 411.975585938 c 2
 231.19140625 411.975585938 l 2
 263.717773438 411.975585938 287.19140625 394.668945312 287.19140625 357.000976562 c 2
 286.590820312 212 l 1
 250.403320312 111.80078125 l 1
 256.577148438 96.876953125 292.041992188 32 333.407226562 32 c 2
 400.00390625 32 l 2
 419.401367188 32 423.006835938 49.201171875 423.006835938 63.201171875 c 2
 423.006835938 413.000976562 l 25
 460 413 l 25
EndSplineSet
EndChar

StartChar: si_KhR.halant
Encoding: 106 -1 186
GlifName: si_K_hR_.halant
Width: 517
VWidth: 0
Flags: HW
LayerCount: 2
Back
Fore
SplineSet
22.1943359375 -21 m 1
 22.1943359375 -105.802734375 l 2
 22.1943359375 -135.796875 39.1103515625 -150 66.1943359375 -150 c 2
 418.805664062 -150 l 2
 444.138671875 -150 459.805664062 -138.565429688 459.805664062 -107 c 2
 459.805664062 -21 l 1
 422.8046875 -21 l 1
 422.8046875 -97 l 2
 422.8046875 -109.877929688 417.639648438 -118.005859375 402.805664062 -118.005859375 c 2
 77.2041015625 -118.005859375 l 2
 64.08984375 -118.005859375 59 -110 59 -98 c 2
 59 -21 l 1
 22.1943359375 -21 l 1
EndSplineSet
Refer: 183 -1 N 1 0 0 1 0 0 2
EndChar

StartChar: si_KhRI
Encoding: 107 -1 187
GlifName: si_K_hR_I_
Width: 518
VWidth: 1000
Flags: HW
LayerCount: 2
Back
Fore
SplineSet
22.1943359375 -21 m 5
 22.1943359375 -105.802734375 l 6
 22.1943359375 -135.796875 39.1103515625 -150 66.1943359375 -150 c 6
 418.805664062 -150 l 6
 444.138671875 -150 459.805664062 -138.565429688 459.805664062 -107 c 6
 459.805664062 -21 l 5
 422.8046875 -21 l 5
 422.8046875 -97 l 6
 422.8046875 -109.877929688 417.639648438 -118.005859375 402.805664062 -118.005859375 c 6
 77.2041015625 -118.005859375 l 6
 64.08984375 -118.005859375 59 -110 59 -98 c 6
 59 -21 l 5
 22.1943359375 -21 l 5
EndSplineSet
Refer: 184 -1 N 1 0 0 1 0 0 2
EndChar

StartChar: si_KhRIi
Encoding: 108 -1 188
GlifName: si_K_hR_I_i
Width: 518
VWidth: 1000
Flags: HW
LayerCount: 2
Back
Fore
SplineSet
22.1943359375 -21 m 5
 22.1943359375 -105.802734375 l 6
 22.1943359375 -135.796875 39.1103515625 -150 66.1943359375 -150 c 6
 418.805664062 -150 l 6
 444.138671875 -150 459.805664062 -138.565429688 459.805664062 -107 c 6
 459.805664062 -21 l 5
 422.8046875 -21 l 5
 422.8046875 -97 l 6
 422.8046875 -109.877929688 417.639648438 -118.005859375 402.805664062 -118.005859375 c 6
 77.2041015625 -118.005859375 l 6
 64.08984375 -118.005859375 59 -110 59 -98 c 6
 59 -21 l 5
 22.1943359375 -21 l 5
EndSplineSet
Refer: 185 -1 N 1 0 0 1 0 0 2
EndChar

StartChar: si_KhRa
Encoding: 105 -1 189
GlifName: si_K_hR_a
Width: 517
VWidth: 0
Flags: HW
LayerCount: 2
Back
Fore
SplineSet
22.1943359375 -21 m 5
 22.1943359375 -105.802734375 l 6
 22.1943359375 -135.796875 39.1103515625 -150 66.1943359375 -150 c 6
 418.805664062 -150 l 6
 444.138671875 -150 459.805664062 -138.565429688 459.805664062 -107 c 6
 459.805664062 -21 l 5
 422.8046875 -21 l 5
 422.8046875 -97 l 6
 422.8046875 -109.877929688 417.639648438 -118.005859375 402.805664062 -118.005859375 c 6
 77.2041015625 -118.005859375 l 6
 64.08984375 -118.005859375 59 -110 59 -98 c 6
 59 -21 l 5
 22.1943359375 -21 l 5
EndSplineSet
Refer: 440 3483 N 1 0 0 1 0 0 2
EndChar

StartChar: si_L.halant
Encoding: 366 -1 192
GlifName: si_L_.halant
Width: 557
VWidth: 0
Flags: HW
LayerCount: 2
Back
Fore
SplineSet
467.002929688 466 m 5
 467.002929688 649 l 5
 503.79296875 649 l 5
 503.79296875 412 l 5
 501.426757812 417.674804688 495.002929688 437.0859375 490.40234375 446 c 132
 486.40234375 453.750976562 475.131835938 466 469.40234375 466 c 6
 467.002929688 466 l 5
EndSplineSet
Refer: 472 3517 N 1 0 0 1 0 0 2
EndChar

StartChar: si_LI
Encoding: 367 -1 193
GlifName: si_L_I_
Width: 557
VWidth: 0
Flags: HW
LayerCount: 2
Back
Fore
SplineSet
22.1943359375 511 m 5
 22.1943359375 595.802734375 l 6
 22.1943359375 625.796875 39.1103515625 640 66.1943359375 640 c 6
 460 640 l 6
 485.333007812 640 501 628.565429688 501 597 c 6
 501 511 l 5
 463.999023438 511 l 5
 463.999023438 587 l 6
 463.999023438 599.877929688 458.833984375 608.005859375 444 608.005859375 c 6
 77.2041015625 608.005859375 l 6
 64.08984375 608.005859375 59 600 59 588 c 6
 59 511 l 5
 22.1943359375 511 l 5
EndSplineSet
Refer: 472 3517 N 1 0 0 1 0 0 2
EndChar

StartChar: si_LIi
Encoding: 368 -1 194
GlifName: si_L_I_i
Width: 557
VWidth: 0
Flags: HW
LayerCount: 2
Back
Fore
SplineSet
318.000976562 608 m 6
 308.000976562 608 303.000976562 604 303.000976562 596 c 6
 303.000976562 567.008789062 l 6
 303.000976562 558.341796875 304.333984375 554.008789062 315.000976562 554.008789062 c 6
 453.000976562 554.008789062 l 6
 463.66796875 554.008789062 465.000976562 558.67578125 465.000976562 568.008789062 c 6
 465.000976562 592.196289062 l 6
 465.000976562 602.60546875 459.333984375 608 448.000976562 608 c 6
 318.000976562 608 l 6
79.607421875 608.0078125 m 6
 68.16015625 608.0078125 60.005859375 602 60.005859375 590 c 6
 60.005859375 511 l 5
 23.2001953125 511 l 5
 23.2001953125 595.802734375 l 6
 23.2001953125 625.796875 40.8115234377 640.010674439 68.005859375 640.010742188 c 6
 460.000976562 640.01171875 l 6
 487.80078125 640.01171875 502 626.66015625 502 600 c 6
 502 552.004882812 l 6
 502 532.008789062 491.998046875 522.004882812 472 522.004882812 c 6
 293.59765625 522.002929688 l 6
 270.322265625 522.002929688 265.797851562 532.310546875 265.797851562 548.008789062 c 6
 265.797851562 600 l 6
 265.797851562 604.53125 266.615234375 607.008789062 268.197265625 608 c 5
 79.607421875 608.0078125 l 6
EndSplineSet
Refer: 472 3517 N 1 0 0 1 0 0 2
EndChar

StartChar: si_LU
Encoding: 369 -1 195
GlifName: si_L_U_
Width: 557
VWidth: 1000
Flags: HW
LayerCount: 2
Back
Fore
SplineSet
503.599609375 -159 m 1
 22 -159 l 1
 22 -127 l 1
 466.611328125 -127 l 1
 466.611328125 13 l 1
 471.807617188 13 l 2
 485.6171875 13 498.986788269 14.864142178 503.599609375 25 c 1
 503.599609375 -159 l 1
240.186523438 188 m 2
 240.186523438 329.206054688 l 1
 157.80078125 329.206054688 l 1
 157.80078125 361.606445312 l 1
 360.1875 361.606445312 l 1
 360.1875 329.204101562 l 1
 277.188476562 329.203125 l 1
 277.188476562 196 l 2
 277.188476562 180.734375 285.529296875 172 301.188476562 172 c 2
 442.794921875 172 l 2
 460.961914062 172 466.795898438 185.982421875 466.795898438 206 c 2
 466.795898438 420 l 2
 466.795898438 441.17578125 461.850585938 465 432.794921875 465 c 2
 89 465 l 2
 67.185882045 465 59 450.776367188 59 427 c 2
 59 87.611328125 l 2
 59 49.55078125 68.4765625 38.408203125 101.000976562 38.408203125 c 2
 503.606445312 38.408203125 l 1
 503.606445312 7 l 1
 92 7 l 2
 52.1142578125 7 22 23.4580078125 22 79 c 2
 22 434 l 2
 22 471.685554162 47.5458984375 497.000976562 76.400390625 497.000976562 c 2
 442.794921875 497 l 2
 479.056640625 497 503.80859375 464 503.806640625 428 c 2
 503.794921875 201 l 2
 503.793945312 167.205078125 489.595703125 140 451.794921875 140 c 2
 289.186523438 140 l 2
 256.286132812 140 240.186523438 160.872070312 240.186523438 188 c 2
EndSplineSet
EndChar

StartChar: si_LUu
Encoding: 370 -1 196
GlifName: si_L_U_u
Width: 557
VWidth: 1000
Flags: HW
LayerCount: 2
Back
Fore
SplineSet
503.3984375 -158.999023438 m 1
 472.596679688 -158.999023438 l 1
 467.396484375 -149.727539062 455.928710938 -138.131835938 448.200195312 -132.797851562 c 0
 438.029296875 -125.778320312 420.006835938 -119.993164062 401.196289062 -119.993164062 c 1
 324 -119.993164062 l 1
 306.341796875 -119.993164062 285.83984375 -127.5 273.411132812 -132.598632812 c 1
 225.802734375 -152.40234375 l 1
 210.130859375 -158.381835938 181.317382812 -162.8046875 147.005859375 -162.8046875 c 2
 70.3984375 -162.8046875 l 2
 37.984375 -162.8046875 22.3974609375 -150.575195312 22.3974609375 -122.001953125 c 2
 22.3974609375 -29.0029296875 l 1
 59.1953125 -29.0029296875 l 1
 59.1953125 -112.604492188 l 2
 59.1953125 -123.888671875 64.0634765625 -130.60546875 76 -130.60546875 c 2
 152.799804688 -130.60546875 l 2
 173.768554688 -130.60546875 199.595703125 -127.923828125 223 -119.001953125 c 1
 262.206054688 -102.999023438 l 1
 275.171875 -97.671875 299.599609375 -87.9921875 321.795898438 -87.9921875 c 1
 405.407226562 -87.9921875 l 1
 431.322035238 -87.9983616 446.544921875 -97.3720703125 454.806640625 -102.80078125 c 0
 460.760742188 -106.712890625 461.447265625 -107.639648438 466.194335938 -112.400390625 c 1
 466.194335938 14 l 1
 479.392578125 14 l 2
 484.9609375 14 497.731534334 15.1100827445 503.3984375 24 c 1
 503.3984375 -158.999023438 l 1
240.186523438 188 m 2
 240.186523438 329.206054688 l 1
 157.80078125 329.206054688 l 1
 157.80078125 361.606445312 l 1
 360.1875 361.606445312 l 1
 360.1875 329.204101562 l 1
 277.188476562 329.203125 l 1
 277.188476562 196 l 2
 277.188476562 180.734375 285.529296875 172 301.188476562 172 c 2
 442.794921875 172 l 2
 460.961914062 172 466.795898438 185.982421875 466.795898438 206 c 2
 466.795898438 420 l 2
 466.795898438 441.17578125 461.850585938 465 432.794921875 465 c 2
 89 465 l 2
 67.185882045 465 59 450.776367188 59 427 c 2
 59 87.611328125 l 2
 59 49.55078125 68.4765625 38.408203125 101.000976562 38.408203125 c 2
 503.606445312 38.408203125 l 1
 503.606445312 7 l 1
 92 7 l 2
 52.1142578125 7 22 23.4580078125 22 79 c 2
 22 434 l 2
 22 471.685554162 47.5458984375 497.000976562 76.400390625 497.000976562 c 2
 442.794921875 497 l 2
 479.056640625 496.999903351 503.808746904 471.159505868 503.806640625 430 c 2
 503.794921875 201 l 2
 503.793192468 167.205078164 489.595703125 140 451.794921875 140 c 2
 289.186523438 140 l 2
 256.286132812 140 240.186523438 160.872070312 240.186523438 188 c 2
EndSplineSet
EndChar

StartChar: si_Ll.halant
Encoding: 415 -1 197
GlifName: si_L_l.halant
Width: 553
VWidth: 0
Flags: HW
LayerCount: 2
Back
Fore
SplineSet
465.201171875 466 m 5
 465.201171875 649 l 5
 501.991210938 649 l 5
 501.991210938 412 l 5
 499.625 417.674804688 493.201171875 437.0859375 488.600585938 446 c 132
 484.600585938 453.750976562 473.330078125 466 467.600585938 466 c 6
 465.201171875 466 l 5
EndSplineSet
Refer: 478 3525 N 1 0 0 1 0 0 2
EndChar

StartChar: si_LlI
Encoding: 416 -1 198
GlifName: si_L_lI_
Width: 553
VWidth: 0
Flags: HW
LayerCount: 2
Back
Fore
SplineSet
99.1943359375 511 m 1
 99.1943359375 595.802734375 l 2
 99.1943359375 625.796875 116.110351562 640 143.194335938 640 c 2
 460 640 l 2
 485.333007812 640 501 628.565429688 501 597 c 2
 501 511 l 1
 463.999023438 511 l 1
 463.999023438 587 l 2
 463.999023438 599.877929688 458.833984375 608.005859375 444 608.005859375 c 2
 154.204101562 608.005859375 l 2
 141.08984375 608.005859375 136 600 136 588 c 2
 136 511 l 1
 99.1943359375 511 l 1
EndSplineSet
Refer: 478 3525 N 1 0 0 1 0 0 2
EndChar

StartChar: si_LlIi
Encoding: 417 -1 199
GlifName: si_L_lI_i
Width: 553
VWidth: 0
Flags: HW
LayerCount: 2
Back
Fore
SplineSet
318.000976562 608 m 2
 308.000976562 608 303.000976562 604 303.000976562 596 c 2
 303.000976562 567.008789062 l 2
 303.000976562 558.341796875 304.333984375 554.008789062 315.000976562 554.008789062 c 2
 453.000976562 554.008789062 l 2
 463.66796875 554.008789062 465.000976562 558.67578125 465.000976562 568.008789062 c 2
 465.000976562 592.196289062 l 2
 465.000976562 602.60546875 459.333984375 608 448.000976562 608 c 2
 318.000976562 608 l 2
153.6015625 608.0078125 m 6
 142.154296875 608.0078125 134 602 134 590 c 6
 134 511 l 5
 97.1943359375 511 l 5
 97.1943359375 595.802734375 l 6
 97.1943359375 625.796875 114.805664062 640.010742188 142 640.010742188 c 6
 460.000976562 640.01171875 l 2
 487.80078125 640.011804122 502 626.66015625 502 600 c 2
 502 552.004882812 l 2
 502 532.008789062 491.998046875 522.004882812 472 522.004882812 c 2
 293.59765625 522.002929688 l 2
 270.322265625 522.002929688 265.797851562 532.310546875 265.797851562 548.008789062 c 2
 265.797851562 600 l 2
 265.797851562 604.53125 266.615234375 607.008789062 268.197265625 608 c 1
 153.6015625 608.0078125 l 6
EndSplineSet
Refer: 478 3525 N 1 0 0 1 0 0 2
EndChar

StartChar: si_LlU
Encoding: 418 -1 200
GlifName: si_L_lU_
Width: 666
VWidth: 1000
Flags: HW
LayerCount: 2
Back
Fore
SplineSet
116.6015625 380.000976562 m 6
 76.890625 380.000976562 59 367.741210938 59 327.000976562 c 6
 59 0 l 5
 22 0 l 5
 22 339.000976562 l 6
 22 391.166992188 58.8515625 412.000976562 105.400390625 412.000976562 c 6
 246.568359375 412.000976562 l 5
 244.568359375 380.000976562 l 5
 116.6015625 380.000976562 l 6
EndSplineSet
Refer: 465 3509 S 1 0 0 1 158 0 2
EndChar

StartChar: si_LlUu
Encoding: 419 -1 201
GlifName: si_L_lU_u
Width: 890
VWidth: 0
Flags: HW
LayerCount: 2
Back
Fore
SplineSet
116.6015625 380.000976562 m 2
 76.890625 380.000976562 59 367.741210938 59 327.000976562 c 2
 59 0 l 1
 22 0 l 1
 22 339.000976562 l 2
 22 391.166992188 58.8515625 412.000976562 105.400390625 412.000976562 c 2
 246.568359375 412.000976562 l 1
 244.568359375 380.000976562 l 1
 116.6015625 380.000976562 l 2
EndSplineSet
Refer: 465 3509 N 1 0 0 1 158 0 2
Refer: 483 3537 N 1 0 0 1 637 0 2
EndChar

StartChar: si_M.halant
Encoding: 332 -1 202
GlifName: si_M_.halant
Width: 518
VWidth: 1000
Flags: HW
LayerCount: 2
Back
Fore
SplineSet
460 400 m 5
 423 400 l 5
 423 484 l 6
 423 513.545898438 406.061523438 518 387 518 c 6
 14 518 l 5
 14 550 l 5
 82 550 l 5
 52.6669921875 557.333007812 50 582.666992188 50 604 c 6
 50 632 l 6
 50 659.333333333 66.3333333333 673 99 673 c 6
 458 673 l 5
 458 641 l 5
 102.5 641 l 6
 87.53125 641 87 633.667282104 87 616 c 4
 87 573.677734375 97.3973370288 550 168 550 c 6
 391 550 l 6
 446.44140625 550 460 525.686523438 460 469 c 6
 460 400 l 5
460 415 m 1
 460 54 l 2
 460 16.2705078125 447.075195312 0 410 0 c 2
 72 0 l 2
 34.0314662294 0 22 15.7515389988 22 54 c 2
 22 373 l 2
 22 404.537647836 42.279533299 427 74 427 c 2
 209 427 l 2
 239.5625 427 259 408.583984375 259 378 c 2
 259 212 l 2
 259 182.666992188 244.666992188 168 216 168 c 2
 58.875 168 l 1
 58.875 54 l 2
 58.875 39.3388722636 64.875 32 76.875 32 c 2
 405 32 l 2
 417 32 423 39.3330078125 423 54 c 2
 423 415 l 1
 460 415 l 1
58.875 200 m 1
 203 200 l 2
 216.796875 200 221 206.333007812 221 219 c 2
 221 374 l 2
 221 385.791992188 213.700195312 394 197 394 c 2
 83 394 l 2
 71 394 58.875 387.598307133 58.875 372 c 2
 58.875 200 l 1
EndSplineSet
EndChar

StartChar: si_MI
Encoding: 333 -1 203
GlifName: si_M_I_
Width: 518
VWidth: 1000
Flags: HW
LayerCount: 2
Back
Fore
SplineSet
460 400 m 5
 423 400 l 5
 423 476 l 6
 423 499.380859375 416.126953125 509.5 391 509.5 c 6
 69 509.5 l 6
 37.6669921875 509.5 22 525.5 22 557.5 c 6
 22 620 l 6
 22 653.415199923 36.1038354598 672 72 672 c 6
 458.5 672 l 5
 458.5 640 l 5
 84 640 l 6
 63.0830078125 640 58.875 635.55848028 58.875 611 c 6
 58.875 566 l 6
 58.875 552.489578247 60.4326171875 541.5 83 541.5 c 6
 391 541.5 l 6
 447.814453125 541.5 460 524.084960938 460 466 c 6
 460 400 l 5
460 415 m 1
 460 54 l 2
 460 16.2705078125 447.075195312 0 410 0 c 2
 72 0 l 2
 34.0314662294 0 22 15.7515389988 22 54 c 2
 22 373 l 2
 22 404.537647836 42.279533299 427 74 427 c 2
 209 427 l 2
 239.5625 427 259 408.583984375 259 378 c 2
 259 212 l 2
 259 182.666992188 244.666992188 168 216 168 c 2
 58.875 168 l 1
 58.875 54 l 2
 58.875 39.3388722636 64.875 32 76.875 32 c 2
 405 32 l 2
 417 32 423 39.3330078125 423 54 c 2
 423 415 l 1
 460 415 l 1
58.875 200 m 1
 203 200 l 2
 216.796875 200 221 206.333007812 221 219 c 2
 221 374 l 2
 221 385.791992188 213.700195312 394 197 394 c 2
 83 394 l 2
 71 394 58.875 387.598307133 58.875 372 c 2
 58.875 200 l 1
EndSplineSet
EndChar

StartChar: si_MIi
Encoding: 334 -1 204
GlifName: si_M_I_i
Width: 518
VWidth: 1000
Flags: HW
LayerCount: 2
Back
Fore
SplineSet
423 405 m 5
 423 479.5 l 6
 423 497.690429688 405.682617188 509.5 387 509.5 c 6
 65 509.5 l 6
 35.1572265625 509.5 22 518.271484375 22 550.5 c 6
 22 618 l 6
 22 654.859629233 35.4108204097 672 72 672 c 6
 410 672 l 6
 446.587890625 672 460 654.858398438 460 618 c 6
 460 570 l 6
 460 547.837890625 450.686523438 532.870117188 433 528 c 5
 454.911132812 521.15234375 460 504.274414062 460 475 c 6
 460 405 l 5
 423 405 l 5
272 539 m 21
 260.918198095 542.511433308 254 550.291992188 254 567 c 6
 254 621 l 6
 254 633.107421875 260.500976562 638.25 264 640 c 5
 263.852539062 640 75.875 640 75.875 640 c 6
 64.5419921875 640 58.875 635.333007812 58.875 626 c 6
 58.875 554 l 6
 58.875 544 64.2080078125 539 74.875 539 c 6
 272 539 l 21
315 640 m 6
 299.450195312 640 291 630.698242188 291 616 c 6
 291 570.5 l 6
 291 551.6015625 307.266601562 545.5 324.5 545.5 c 6
 387 545.5 l 6
 403.344726562 545.5 423 550.392578125 423 577 c 6
 423 627.5 l 6
 423 636.697265625 415.693359375 640 408.5 640 c 6
 315 640 l 6
460 415 m 1
 460 54 l 2
 460 16.2705078125 447.075195312 0 410 0 c 2
 72 0 l 2
 34.0314662294 0 22 15.7515389988 22 54 c 2
 22 373 l 2
 22 404.537647836 42.279533299 427 74 427 c 2
 209 427 l 2
 239.5625 427 259 408.583984375 259 378 c 2
 259 212 l 2
 259 182.666992188 244.666992188 168 216 168 c 2
 58.875 168 l 1
 58.875 54 l 2
 58.875 39.3388722636 64.875 32 76.875 32 c 2
 405 32 l 2
 417 32 423 39.3330078125 423 54 c 2
 423 415 l 1
 460 415 l 1
58.875 200 m 1
 203 200 l 2
 216.796875 200 221 206.333007812 221 219 c 2
 221 374 l 2
 221 385.791992188 213.700195312 394 197 394 c 2
 83 394 l 2
 71 394 58.875 387.598307133 58.875 372 c 2
 58.875 200 l 1
EndSplineSet
EndChar

StartChar: si_MRI
Encoding: 339 -1 205
GlifName: si_M_R_I_
Width: 518
VWidth: 1000
Flags: HW
LayerCount: 2
Back
Fore
SplineSet
22.1943359375 -21 m 5
 22.1943359375 -105.802734375 l 6
 22.1943359375 -135.796875 39.1103515625 -150 66.1943359375 -150 c 6
 418.805664062 -150 l 6
 444.138671875 -150 459.805664062 -138.565429688 459.805664062 -107 c 6
 459.805664062 -21 l 5
 422.8046875 -21 l 5
 422.8046875 -97 l 6
 422.8046875 -109.877929688 417.639648438 -118.005859375 402.805664062 -118.005859375 c 6
 77.2041015625 -118.005859375 l 6
 64.08984375 -118.005859375 59 -110 59 -98 c 6
 59 -21 l 5
 22.1943359375 -21 l 5
460 400 m 1
 423 400 l 1
 423 476 l 2
 423 499.380859375 416.126953125 509.5 391 509.5 c 2
 69 509.5 l 2
 37.6669921875 509.5 22 525.5 22 557.5 c 2
 22 620 l 2
 22 653.415199923 36.1038354598 672 72 672 c 2
 458.5 672 l 1
 458.5 640 l 1
 84 640 l 2
 63.0830078125 640 58.875 635.55848028 58.875 611 c 2
 58.875 566 l 2
 58.875 552.489578247 60.4326171875 541.5 83 541.5 c 2
 391 541.5 l 2
 447.814453125 541.5 460 524.084960938 460 466 c 2
 460 400 l 1
460 415 m 1
 460 54 l 2
 460 16.2705078125 447.075195312 0 410 0 c 2
 72 0 l 2
 34.0314662294 0 22 15.7515389988 22 54 c 2
 22 373 l 2
 22 404.537647836 42.279533299 427 74 427 c 2
 209 427 l 2
 239.5625 427 259 408.583984375 259 378 c 2
 259 212 l 2
 259 182.666992188 244.666992188 168 216 168 c 2
 58.875 168 l 1
 58.875 54 l 2
 58.875 39.3388722636 64.875 32 76.875 32 c 2
 405 32 l 2
 417 32 423 39.3330078125 423 54 c 2
 423 415 l 1
 460 415 l 1
58.875 200 m 1
 203 200 l 2
 216.796875 200 221 206.333007812 221 219 c 2
 221 374 l 2
 221 385.791992188 213.700195312 394 197 394 c 2
 83 394 l 2
 71 394 58.875 387.598307133 58.875 372 c 2
 58.875 200 l 1
EndSplineSet
EndChar

StartChar: si_MRIi
Encoding: 340 -1 206
GlifName: si_M_R_I_i
Width: 518
VWidth: 1000
Flags: HW
LayerCount: 2
Back
Fore
SplineSet
22.1943359375 -21 m 5
 22.1943359375 -105.802734375 l 6
 22.1943359375 -135.796875 39.1103515625 -150 66.1943359375 -150 c 6
 418.805664062 -150 l 6
 444.138671875 -150 459.805664062 -138.565429688 459.805664062 -107 c 6
 459.805664062 -21 l 5
 422.8046875 -21 l 5
 422.8046875 -97 l 6
 422.8046875 -109.877929688 417.639648438 -118.005859375 402.805664062 -118.005859375 c 6
 77.2041015625 -118.005859375 l 6
 64.08984375 -118.005859375 59 -110 59 -98 c 6
 59 -21 l 5
 22.1943359375 -21 l 5
EndSplineSet
Refer: 204 -1 N 1 0 0 1 0 0 2
EndChar

StartChar: si_MRa
Encoding: 338 -1 207
GlifName: si_M_R_a
Width: 517
VWidth: 0
Flags: HW
LayerCount: 2
Back
Fore
SplineSet
22.1943359375 -21 m 5
 22.1943359375 -105.802734375 l 6
 22.1943359375 -135.796875 39.1103515625 -150 66.1943359375 -150 c 6
 418.805664062 -150 l 6
 444.138671875 -150 459.805664062 -138.565429688 459.805664062 -107 c 6
 459.805664062 -21 l 5
 422.8046875 -21 l 5
 422.8046875 -97 l 6
 422.8046875 -109.877929688 417.639648438 -118.005859375 402.805664062 -118.005859375 c 6
 77.2041015625 -118.005859375 l 6
 64.08984375 -118.005859375 59 -110 59 -98 c 6
 59 -21 l 5
 22.1943359375 -21 l 5
EndSplineSet
Refer: 468 3512 N 1 0 0 1 0 0 2
EndChar

StartChar: si_Ma.reph
Encoding: 337 -1 210
GlifName: si_M_a.reph
Width: 517
VWidth: 0
Flags: HW
LayerCount: 2
Back
Fore
SplineSet
208.997070312 659.59765625 m 5
 247 659.59765625 l 5
 247 566 l 6
 247 538.822265625 235.508789062 529 216 529 c 6
 116.606445312 529 l 6
 90.142578125 529 76.6064453125 542.895507812 76.6064453125 575 c 6
 76.6064453125 668.20703125 l 6
 76.6064453125 696.944335938 93.85546875 716.20703125 130.606445312 716.20703125 c 6
 322 716.20703125 l 6
 355.4453125 716.20703125 373 699.385742188 373 660.20703125 c 6
 373 533.602539062 l 5
 336.001953125 533.602539062 l 5
 336.001953125 655.805664062 l 6
 336.001953125 675.583007812 329.771484375 684.204101562 316 684.204101562 c 6
 135.606445312 684.204101562 l 6
 123.005859375 684.204101562 113.614257812 677.900390625 113.614257812 662.805664062 c 6
 113.614257812 580.598632812 l 6
 113.614257812 567.92578125 116.859375 560.390625 128.606445312 560.390625 c 6
 196.206054688 560.390625 l 6
 207.470703125 560.390625 208.997070312 565.723632812 208.997070312 576.390625 c 6
 208.997070312 659.59765625 l 5
EndSplineSet
Refer: 468 3512 N 1 0 0 1 0 0 2
EndChar

StartChar: si_MatraU.alt
Encoding: 86 -1 212
GlifName: si_M_atraU_.alt
Width: 2
VWidth: 1000
Flags: HW
LayerCount: 2
Back
Fore
SplineSet
-13.0126953125 -126.998046875 m 1
 -13.0126953125 -159.012695312 l 1
 -165.416015625 -159.012695312 l 2
 -186.749023438 -159.012695312 -197.416015625 -149.012695312 -197.416015625 -129.012695312 c 2
 -197.416015625 32 l 1
 -160.80078125 32 l 1
 -160.80078125 -107.998046875 l 2
 -160.80078125 -121.631835938 -159.251953125 -126.998046875 -144.80078125 -126.998046875 c 2
 -13.0126953125 -126.998046875 l 1
EndSplineSet
EndChar

StartChar: si_MatraUu.alt
Encoding: 87 -1 213
GlifName: si_M_atraU_u.alt
Width: 2
VWidth: 1000
Flags: HW
LayerCount: 2
Back
Fore
SplineSet
-1 -140.794921875 m 1
 -1 -173 l 1
 -193 -173 l 2
 -215 -173 -226 -163.959276018 -226 -146 c 2
 -226 -126.59375 l 2
 -226 -118.59375 -221.424804688 -110.805664062 -211 -106.59375 c 2
 -113 -68 l 1
 -226 -68 l 1
 -226 -38 l 1
 -155 8 l 1
 -102 8 l 1
 -168 -36.2021484375 l 1
 -22 -36.2021484375 l 1
 -22 -62 l 1
 -177 -127 l 2
 -184.762223074 -130.255125805 -187 -132.740234375 -187 -136.000976562 c 0
 -187 -139.897023989 -185.196289062 -141 -181 -141 c 18
 -1 -140.794921875 l 1
EndSplineSet
EndChar

StartChar: si_Mb.halant
Encoding: 341 -1 214
GlifName: si_M_b.halant
Width: 515
VWidth: 1000
Flags: HW
LayerCount: 2
Back
Fore
SplineSet
460 400 m 5
 423 400 l 5
 423 484 l 6
 423 513.545898438 406.061523438 518 387 518 c 6
 14 518 l 5
 14 550 l 5
 82 550 l 5
 52.6669921875 557.333007812 50 582.666992188 50 604 c 6
 50 632 l 6
 50 659.333333333 66.3333333333 673 99 673 c 6
 458 673 l 5
 458 641 l 5
 102.5 641 l 6
 87.53125 641 87 633.667282104 87 616 c 4
 87 573.677734375 97.3973370288 550 168 550 c 6
 391 550 l 6
 446.44140625 550 460 525.686523438 460 469 c 6
 460 400 l 5
460.024414062 54 m 6
 459.8671875 16 448.265625 0 414.798828125 0 c 6
 302 0 l 6
 275.99609375 0 254.965820312 20.8427734375 254.965820312 47 c 6
 254.965820312 97.7978515625 l 6
 254.965820312 127.928710938 286.11328125 142.0859375 292.999023438 146.201171875 c 4
 298.989257812 149.78125 319 159 319.400390625 175.002929688 c 22
 319.39453125 193 l 6
 319.391601562 201.379882812 314.458007812 203.592773438 306 203.592773438 c 6
 241.20703125 203.592773438 l 5
 177 203.592773438 l 6
 170.041015625 203.592773438 163.163085938 201.379882812 163.16015625 193 c 6
 163.154296875 175.203125 l 14
 163 159 183.353515625 148.510742188 189 144.603515625 c 4
 195.596679688 140.0390625 227.84765625 127.526367188 227.84765625 97.7978515625 c 6
 227.84765625 47 l 6
 227.84765625 20.8427734375 206.514648438 0 180.814453125 0 c 6
 67.27734375 0 l 6
 33.74609375 0 22.0576171875 16 22.0517578125 54 c 6
 22 404.390625 l 14
 22 436.591796875 43.162109375 461.592773438 83 461.592773438 c 6
 217.999023438 461.592773438 l 6
 254.255859375 461.592773438 276.998046875 447.912109375 276.999023438 410.591796875 c 6
 277 343.197265625 l 6
 277 304.1796875 262.854492188 285.594726562 224.999023438 285.594726562 c 6
 46.91796875 285.59375 l 5
 46.9169921875 318.393554688 l 5
 217.197265625 318 l 6
 230.197265625 318 239.796875 325.197265625 239.796875 346 c 6
 239.79296875 406.594726562 l 6
 239.701171875 422.307617188 229.383789062 429.594726562 211.197265625 429.594726562 c 6
 87 429.594726562 l 6
 65.3779296875 429.594726562 59 417.935546875 59 403.1953125 c 6
 59 57 l 6
 59 41.61328125 64.34375 32 75.19921875 32 c 6
 169 32 l 6
 179.569335938 32 190.7890625 34.46875 190.796875 50.2001953125 c 6
 190.6171875 89 l 6
 190.540039062 105.642578125 174.811523438 116.228515625 164 123 c 4
 156.140625 127.922851562 126.146484375 141.854492188 126.146484375 166 c 6
 126.146484375 207 l 6
 126.146484375 228.586914062 139.990234375 235.590820312 155.000976562 235.590820312 c 6
 241.20703125 235.590820312 l 5
 326.204101562 235.590820312 l 6
 340.428710938 235.590820312 355.651367188 229.581054688 355.651367188 207 c 6
 355.651367188 166 l 6
 355.651367188 139.0546875 322.549804688 127.56640625 315 122.999023438 c 4
 302.09375 115.19140625 292 106 291.740234375 90 c 22
 291.741210938 51.2001953125 l 6
 291.741210938 36.28515625 301.235351562 32 312 32 c 6
 402.799804688 32 l 6
 418.358398438 32 423.000976562 44 423.000976562 56.7998046875 c 6
 423.000976562 415 l 5
 460.067382812 415 l 5
 460.024414062 54 l 6
EndSplineSet
EndChar

StartChar: si_MbI
Encoding: 342 -1 215
GlifName: si_M_bI_
Width: 515
VWidth: 1000
Flags: HW
LayerCount: 2
Back
Fore
SplineSet
460 400 m 5
 423 400 l 5
 423 476 l 6
 423 499.380859375 416.126953125 509.5 391 509.5 c 6
 69 509.5 l 6
 37.6669921875 509.5 22 525.5 22 557.5 c 6
 22 620 l 6
 22 653.415199923 36.1038354598 672 72 672 c 6
 458.5 672 l 5
 458.5 640 l 5
 84 640 l 6
 63.0830078125 640 58.875 635.55848028 58.875 611 c 6
 58.875 566 l 6
 58.875 552.489578247 60.4326171875 541.5 83 541.5 c 6
 391 541.5 l 6
 447.814453125 541.5 460 524.084960938 460 466 c 6
 460 400 l 5
460.024414062 54 m 2
 459.8671875 16 448.265625 0 414.798828125 0 c 2
 302 0 l 2
 275.99609375 0 254.965820312 20.8427734375 254.965820312 47 c 2
 254.965820312 97.7978515625 l 2
 254.965820312 127.928710938 286.11328125 142.0859375 292.999023438 146.201171875 c 0
 298.989257812 149.78125 319 159 319.400390625 175.002929688 c 18
 319.39453125 193 l 2
 319.391601562 201.379882812 314.458007812 203.592773438 306 203.592773438 c 2
 241.20703125 203.592773438 l 1
 177 203.592773438 l 2
 170.041015625 203.592773438 163.163085938 201.379882812 163.16015625 193 c 2
 163.154296875 175.203125 l 10
 163 159 183.353515625 148.510742188 189 144.603515625 c 0
 195.596679688 140.0390625 227.84765625 127.526367188 227.84765625 97.7978515625 c 2
 227.84765625 47 l 2
 227.84765625 20.8427734375 206.514648438 0 180.814453125 0 c 2
 67.27734375 0 l 2
 33.74609375 0 22.0576171875 16 22.0517578125 54 c 2
 22 404.390625 l 10
 22 436.591796875 43.162109375 461.592773438 83 461.592773438 c 2
 217.999023438 461.592773438 l 2
 254.255859375 461.592773438 276.998046875 447.912109375 276.999023438 410.591796875 c 2
 277 343.197265625 l 2
 277 304.1796875 262.854492188 285.594726562 224.999023438 285.594726562 c 2
 46.91796875 285.59375 l 1
 46.9169921875 318.393554688 l 1
 217.197265625 318 l 2
 230.197265625 318 239.796875 325.197265625 239.796875 346 c 2
 239.79296875 406.594726562 l 2
 239.701171875 422.307617188 229.383789062 429.594726562 211.197265625 429.594726562 c 2
 87 429.594726562 l 2
 65.3779296875 429.594726562 59 417.935546875 59 403.1953125 c 2
 59 57 l 2
 59 41.61328125 64.34375 32 75.19921875 32 c 2
 169 32 l 2
 179.569335938 32 190.7890625 34.46875 190.796875 50.2001953125 c 2
 190.6171875 89 l 2
 190.540039062 105.642578125 174.811523438 116.228515625 164 123 c 0
 156.140625 127.922851562 126.146484375 141.854492188 126.146484375 166 c 2
 126.146484375 207 l 2
 126.146484375 228.586914062 139.990234375 235.590820312 155.000976562 235.590820312 c 2
 241.20703125 235.590820312 l 1
 326.204101562 235.590820312 l 2
 340.428710938 235.590820312 355.651367188 229.581054688 355.651367188 207 c 2
 355.651367188 166 l 2
 355.651367188 139.0546875 322.549804688 127.56640625 315 122.999023438 c 0
 302.09375 115.19140625 292 106 291.740234375 90 c 18
 291.741210938 51.2001953125 l 2
 291.741210938 36.28515625 301.235351562 32 312 32 c 2
 402.799804688 32 l 2
 418.358398438 32 423.000976562 44 423.000976562 56.7998046875 c 2
 423.000976562 415 l 1
 460.067382812 415 l 1
 460.024414062 54 l 2
EndSplineSet
EndChar

StartChar: si_MbIi
Encoding: 343 -1 216
GlifName: si_M_bI_i
Width: 515
VWidth: 1000
Flags: HW
LayerCount: 2
Back
Fore
SplineSet
423 405 m 5
 423 479.5 l 6
 423 497.690429688 405.682617188 509.5 387 509.5 c 6
 65 509.5 l 6
 35.1572265625 509.5 22 518.271484375 22 550.5 c 6
 22 618 l 6
 22 654.859629233 35.4108204097 672 72 672 c 6
 410 672 l 6
 446.587890625 672 460 654.858398438 460 618 c 6
 460 570 l 6
 460 547.837890625 450.686523438 532.870117188 433 528 c 5
 454.911132812 521.15234375 460 504.274414062 460 475 c 6
 460 405 l 5
 423 405 l 5
272 539 m 21
 260.918198095 542.511433308 254 550.291992188 254 567 c 6
 254 621 l 6
 254 633.107421875 260.500976562 638.25 264 640 c 5
 263.852539062 640 75.875 640 75.875 640 c 6
 64.5419921875 640 58.875 635.333007812 58.875 626 c 6
 58.875 554 l 6
 58.875 544 64.2080078125 539 74.875 539 c 6
 272 539 l 21
315 640 m 6
 299.450195312 640 291 630.698242188 291 616 c 6
 291 570.5 l 6
 291 551.6015625 307.266601562 545.5 324.5 545.5 c 6
 387 545.5 l 6
 403.344726562 545.5 423 550.392578125 423 577 c 6
 423 627.5 l 6
 423 636.697265625 415.693359375 640 408.5 640 c 6
 315 640 l 6
460.024414062 54 m 2
 459.8671875 16 448.265625 0 414.798828125 0 c 2
 302 0 l 2
 275.99609375 0 254.965820312 20.8427734375 254.965820312 47 c 2
 254.965820312 97.7978515625 l 2
 254.965820312 127.928710938 286.11328125 142.0859375 292.999023438 146.201171875 c 0
 298.989257812 149.78125 319 159 319.400390625 175.002929688 c 18
 319.39453125 193 l 2
 319.391601562 201.379882812 314.458007812 203.592773438 306 203.592773438 c 2
 241.20703125 203.592773438 l 1
 177 203.592773438 l 2
 170.041015625 203.592773438 163.163085938 201.379882812 163.16015625 193 c 2
 163.154296875 175.203125 l 10
 163 159 183.353515625 148.510742188 189 144.603515625 c 0
 195.596679688 140.0390625 227.84765625 127.526367188 227.84765625 97.7978515625 c 2
 227.84765625 47 l 2
 227.84765625 20.8427734375 206.514648438 0 180.814453125 0 c 2
 67.27734375 0 l 2
 33.74609375 0 22.0576171875 16 22.0517578125 54 c 2
 22 404.390625 l 10
 22 436.591796875 43.162109375 461.592773438 83 461.592773438 c 2
 217.999023438 461.592773438 l 2
 254.255859375 461.592773438 276.998046875 447.912109375 276.999023438 410.591796875 c 2
 277 343.197265625 l 2
 277 304.1796875 262.854492188 285.594726562 224.999023438 285.594726562 c 2
 46.91796875 285.59375 l 1
 46.9169921875 318.393554688 l 1
 217.197265625 318 l 2
 230.197265625 318 239.796875 325.197265625 239.796875 346 c 2
 239.79296875 406.594726562 l 2
 239.701171875 422.307617188 229.383789062 429.594726562 211.197265625 429.594726562 c 2
 87 429.594726562 l 2
 65.3779296875 429.594726562 59 417.935546875 59 403.1953125 c 2
 59 57 l 2
 59 41.61328125 64.34375 32 75.19921875 32 c 2
 169 32 l 2
 179.569335938 32 190.7890625 34.46875 190.796875 50.2001953125 c 2
 190.6171875 89 l 2
 190.540039062 105.642578125 174.811523438 116.228515625 164 123 c 0
 156.140625 127.922851562 126.146484375 141.854492188 126.146484375 166 c 2
 126.146484375 207 l 2
 126.146484375 228.586914062 139.990234375 235.590820312 155.000976562 235.590820312 c 2
 241.20703125 235.590820312 l 1
 326.204101562 235.590820312 l 2
 340.428710938 235.590820312 355.651367188 229.581054688 355.651367188 207 c 2
 355.651367188 166 l 2
 355.651367188 139.0546875 322.549804688 127.56640625 315 122.999023438 c 0
 302.09375 115.19140625 292 106 291.740234375 90 c 18
 291.741210938 51.2001953125 l 2
 291.741210938 36.28515625 301.235351562 32 312 32 c 2
 402.799804688 32 l 2
 418.358398438 32 423.000976562 44 423.000976562 56.7998046875 c 2
 423.000976562 415 l 1
 460.067382812 415 l 1
 460.024414062 54 l 2
EndSplineSet
EndChar

StartChar: si_NDAa
Encoding: 456 -1 221
GlifName: si_N_D_A_a
Width: 871
VWidth: 0
Flags: HW
LayerCount: 2
Back
Fore
SplineSet
213.197265625 360 m 1
 178 316 l 1
 178 431.795898438 l 2
 178 457.849395235 168.270507812 465 146.598632812 465 c 2
 22 465 l 1
 22 497 l 1
 155.59765625 497 l 2
 198.9296875 497 213.197265625 482.112304688 213.197265625 439 c 2
 213.197265625 360 l 1
182 291.5 m 1
 210 324.059570312 l 1
 308 324 l 2
 343.001953125 323.981445312 356 309.198242188 356 276.072265625 c 2
 356 60 l 2
 356 12.607421875 336.599609375 0 289 0 c 2
 70 0 l 2
 33.361328125 0 22 14.0517578125 22 51 c 2
 22 341.25 l 1
 58.875 341.25 l 1
 58.875 214 l 1
 58.875 194 l 1
 58.875 56 l 2
 58.875 38.8638305664 62.2272529602 32 82 32 c 2
 286 32 l 2
 313.784179688 32 319 40.9619140625 319 66 c 2
 319 267 l 2
 319 286.298828125 309.581054688 291.5 293 291.5 c 2
 182 291.5 l 1
471 465 m 25
 379 465 l 2
 344.311523438 465 331.194335938 458.682617188 310.598632812 435.000976562 c 2
 98.5 191.703125 l 2
 88.60546875 180.352539062 79.3583984375 176.901367188 72.5 176.901367188 c 0
 64.37109375 176.901367188 58.8828125 179.36328125 56 182.5 c 1
 56 182.986328125 55.875 224 55.875 224 c 1
 58.05859375 221.135742188 62.337890625 217 68 217 c 0
 75.7841796875 217 80.2939453125 222.200195312 86 228.5 c 2
 270 440 l 2
 292.493953155 465.855821154 317.209628214 497 355 497 c 2
 471.000976562 497 l 25
 471 465 l 25
EndSplineSet
Refer: 41 -1 N 1 0 0 1 404 0 2
EndChar

StartChar: si_NDAe
Encoding: 457 -1 222
GlifName: si_N_D_A_e
Width: 929
VWidth: 0
Flags: HW
LayerCount: 2
Back
Fore
SplineSet
213.197265625 360 m 1
 178 316 l 1
 178 431.795898438 l 2
 178 457.849395235 168.270507812 465 146.598632812 465 c 2
 22 465 l 1
 22 497 l 1
 155.59765625 497 l 2
 198.9296875 497 213.197265625 482.112304688 213.197265625 439 c 2
 213.197265625 360 l 1
182 291.5 m 1
 210 324.059570312 l 1
 308 324 l 2
 343.001953125 323.981445312 356 309.198242188 356 276.072265625 c 2
 356 60 l 2
 356 12.607421875 336.599609375 0 289 0 c 2
 70 0 l 2
 33.361328125 0 22 14.0517578125 22 51 c 2
 22 341.25 l 1
 58.875 341.25 l 1
 58.875 214 l 1
 58.875 194 l 1
 58.875 56 l 2
 58.875 38.8638305664 62.2272529602 32 82 32 c 2
 286 32 l 2
 313.784179688 32 319 40.9619140625 319 66 c 2
 319 267 l 2
 319 286.298828125 309.581054688 291.5 293 291.5 c 2
 182 291.5 l 1
471 465 m 25
 379 465 l 2
 344.311523438 465 331.194335938 458.682617188 310.598632812 435.000976562 c 2
 98.5 191.703125 l 2
 88.60546875 180.352539062 79.3583984375 176.901367188 72.5 176.901367188 c 0
 64.37109375 176.901367188 58.8828125 179.36328125 56 182.5 c 1
 56 182.986328125 55.875 224 55.875 224 c 1
 58.05859375 221.135742188 62.337890625 217 68 217 c 0
 75.7841796875 217 80.2939453125 222.200195312 86 228.5 c 2
 270 440 l 2
 292.493953155 465.855821154 317.209628214 497 355 497 c 2
 471.000976562 497 l 25
 471 465 l 25
EndSplineSet
Refer: 44 -1 N 1 0 0 1 424 0 2
EndChar

StartChar: si_NDAee
Encoding: 458 -1 223
GlifName: si_N_D_A_ee
Width: 929
VWidth: 0
Flags: HW
LayerCount: 2
Back
Fore
SplineSet
213.197265625 360 m 1
 178 316 l 1
 178 431.795898438 l 2
 178 457.849395235 168.270507812 465 146.598632812 465 c 2
 22 465 l 1
 22 497 l 1
 155.59765625 497 l 2
 198.9296875 497 213.197265625 482.112304688 213.197265625 439 c 2
 213.197265625 360 l 1
182 291.5 m 1
 210 324.059570312 l 1
 308 324 l 2
 343.001953125 323.981445312 356 309.198242188 356 276.072265625 c 2
 356 60 l 2
 356 12.607421875 336.599609375 0 289 0 c 2
 70 0 l 2
 33.361328125 0 22 14.0517578125 22 51 c 2
 22 341.25 l 1
 58.875 341.25 l 1
 58.875 214 l 1
 58.875 194 l 1
 58.875 56 l 2
 58.875 38.8638305664 62.2272529602 32 82 32 c 2
 286 32 l 2
 313.784179688 32 319 40.9619140625 319 66 c 2
 319 267 l 2
 319 286.298828125 309.581054688 291.5 293 291.5 c 2
 182 291.5 l 1
471 465 m 25
 379 465 l 2
 344.311523438 465 331.194335938 458.682617188 310.598632812 435.000976562 c 2
 98.5 191.703125 l 2
 88.60546875 180.352539062 79.3583984375 176.901367188 72.5 176.901367188 c 0
 64.37109375 176.901367188 58.8828125 179.36328125 56 182.5 c 1
 56 182.986328125 55.875 224 55.875 224 c 1
 58.05859375 221.135742188 62.337890625 217 68 217 c 0
 75.7841796875 217 80.2939453125 222.200195312 86 228.5 c 2
 270 440 l 2
 292.493953155 465.855821154 317.209628214 497 355 497 c 2
 471.000976562 497 l 25
 471 465 l 25
EndSplineSet
Refer: 43 -1 N 1 0 0 1 416 0 2
EndChar

StartChar: si_NDI
Encoding: 459 -1 224
GlifName: si_N_D_I_
Width: 849
VWidth: 1000
Flags: HW
LayerCount: 2
Back
Fore
SplineSet
402.794921875 511 m 1
 402.794921875 595.802734375 l 2
 402.794921875 625.796875 419.7109375 640 446.794921875 640 c 2
 745.600585938 640 l 2
 770.93359375 640 786.600585938 628.565429688 786.600585938 597 c 2
 786.600585938 511 l 1
 749.599609375 511 l 1
 749.599609375 587 l 2
 749.599609375 599.877929688 744.434570312 608.005859375 729.600585938 608.005859375 c 2
 457.8046875 608.005859375 l 2
 444.690429688 608.005859375 439.600585938 600 439.600585938 588 c 2
 439.600585938 511 l 1
 402.794921875 511 l 1
EndSplineSet
Refer: 231 -1 N 1 0 0 1 0 0 2
EndChar

